<?xml version="1.0" encoding="UTF-8"?>
<svg version="1.1" xmlns="http://www.w3.org/2000/svg" width="193" height="220">
<path d="M0 0 C14.5570756 -0.78568924 27.84466484 1.93000094 39.04296875 11.80078125 C39.68878906 12.40277344 40.33460937 13.00476563 41 13.625 C43.90446708 16.31780552 46.38879079 17.69511499 50.125 19 C56.40983427 21.26254034 59.45011222 24.96761087 62.4375 30.8125 C63.81433112 38.61454299 62.32249123 43.51626315 58 50 C57.37720095 53.3249433 57.13349 56.62270295 57 60 C46.67275755 61.39777395 36.40798659 62.43174786 26 63 C26 63.66 26 64.32 26 65 C27.27230469 65.04898438 28.54460937 65.09796875 29.85546875 65.1484375 C42.62328032 65.67813592 55.29121835 66.6737543 68 68 C68 69.32 68 70.64 68 72 C62.47173012 73.17525931 56.94004674 74.3322071 51.40454102 75.47290039 C49.52493288 75.86283714 47.64632234 76.2576171 45.76879883 76.6574707 C43.05803064 77.23387774 40.34406207 77.79233282 37.62890625 78.34765625 C36.80040665 78.52780777 35.97190704 78.70795929 35.11830139 78.89356995 C27.5237942 80.41447868 20.77608195 80.0244853 13.52734375 77.15234375 C12.1496582 76.61577148 12.1496582 76.61577148 10.74414062 76.06835938 C9.81794922 75.69517578 8.89175781 75.32199219 7.9375 74.9375 C6.97650391 74.56044922 6.01550781 74.18339844 5.02539062 73.79492188 C2.67957196 72.87293344 0.33815662 71.94121118 -2 71 C-4.55266817 73.42396221 -6.57984679 75.64828689 -8.25 78.75 C-8.8275 79.8225 -9.405 80.895 -10 82 C-3.03321521 84.65321798 -3.03321521 84.65321798 4.109375 84.30859375 C5.75338609 83.22641214 7.37717643 82.11370245 9 81 C13.43525267 80.38824101 15.21453021 80.46521206 18.9375 83 C19.618125 83.66 20.29875 84.32 21 85 C20.125 89.875 20.125 89.875 19 91 C15.15402433 91.32049797 12.49028148 90.59555725 9 89 C9.495 92.465 9.495 92.465 10 96 C8.125 96.625 8.125 96.625 6 97 C5.34 96.34 4.68 95.68 4 95 C4 94.01 4 93.02 4 92 C3.40574219 92.04640625 2.81148438 92.0928125 2.19921875 92.140625 C-5.32239685 92.46816036 -12.53019088 91.21668383 -18.76953125 86.7265625 C-21.00183257 84.60362464 -22.02081423 82.9375573 -23 80 C-22.109375 77.66015625 -22.109375 77.66015625 -20.75 75.0625 C-20.31171875 74.20785156 -19.8734375 73.35320312 -19.421875 72.47265625 C-18.09274283 70.16128079 -16.64953386 68.09102675 -15 66 C-19.74784246 67.8401702 -21.0173639 70.94720212 -23.0546875 75.40625 C-24.47561171 79.3049842 -24.6713943 81.14852617 -23 85 C-20.58609444 86.97812084 -18.12382802 88.62570046 -15.4453125 90.2265625 C-11.78895387 92.87829863 -10.36572312 95.55079768 -9.26953125 99.89453125 C-9.11871094 100.85746094 -8.96789062 101.82039063 -8.8125 102.8125 C-8.57466797 104.27623047 -8.57466797 104.27623047 -8.33203125 105.76953125 C-8.22246094 106.50558594 -8.11289063 107.24164063 -8 108 C-7.56042969 107.49855469 -7.12085938 106.99710937 -6.66796875 106.48046875 C-5.84232422 105.74763672 -5.84232422 105.74763672 -5 105 C-2.3125 105.3125 -2.3125 105.3125 0 106 C-0.375 107.9375 -0.375 107.9375 -1 110 C-1.99 110.495 -1.99 110.495 -3 111 C-3 111.66 -3 112.32 -3 113 C-2.01 113.33 -1.02 113.66 0 114 C1.485 113.01 1.485 113.01 3 112 C5.6875 112.375 5.6875 112.375 8 113 C8.75 115.75 8.75 115.75 9 119 C7.625 121.375 7.625 121.375 5 123 C0.82991229 123.69113186 -2.77995207 123.44365379 -6.75 122 C-9.9852767 119.12419849 -11.83087834 115.71118159 -14 112 C-15.02768011 110.36611872 -16.06939845 108.74098262 -17.125 107.125 C-17.60195312 106.38507813 -18.07890625 105.64515625 -18.5703125 104.8828125 C-20.03556607 102.73997456 -20.03556607 102.73997456 -23 101 C-24.32 101 -25.64 101 -27 101 C-28.21498523 107.18537934 -28.0919309 111.41768119 -25 117 C-18.24036957 125.30468882 -8.18252586 129.16616361 1.9375 131.75 C17.56167856 133.02544315 32.46668206 130.19039302 45.08984375 120.375 C50.56454305 115.37485181 53.57858575 109.61212213 54.4375 102.25 C53.9500573 98.62899708 53.37884413 96.77531815 51 94 C47.15058552 91.90031937 45.47355816 91.88355127 41.1875 92.9375 C37.67920461 94.73045491 37.67920461 94.73045491 36.875 98.5 C36.72022827 101.86838542 36.72022827 101.86838542 38.125 103.9375 C40.53579338 105.30361625 42.27294446 105.22111261 45 105 C45.495 103.02 45.495 103.02 46 101 C44.02 101 42.04 101 40 101 C39.67 100.01 39.34 99.02 39 98 C40.0625 96.5 40.0625 96.5 42 95 C45.38318857 94.63751551 47.86784865 94.41566382 50.9375 96 C52.66054985 99.24338795 52.63996746 102.46985689 52 106 C50.20636089 108.8100346 48.98119065 110.50940468 46 112 C39.53693958 112.42380724 36.26555857 111.7990502 31.25 107.5 C28.39019278 104.06823133 28.71241775 100.24183815 29 96 C30.74416374 91.31829732 32.87035839 88.78750809 37 86 C42.81385476 84.06204841 48.92108776 83.97944308 54.4375 86.6875 C59.25476509 91.03478801 61.84772784 94.50537507 63 101 C63.17357228 113.72863366 57.40874896 124.31541883 48.9375 133.5625 C35.22831813 146.49172842 17.50286666 151.40717392 -0.96484375 151.20703125 C-18.98863157 150.49927952 -34.66833152 142.96915654 -47 130 C-59.74423832 115.22879035 -64.33039104 98.13895878 -63 79 C-61.01862879 61.03033635 -52.11639168 46.39950747 -38.49609375 34.8828125 C-29.56230487 28.20039578 -19.24769669 24.88993852 -8.6171875 21.89453125 C-5.87988818 21.17349471 -5.87988818 21.17349471 -4 19 C-3.39668443 16.15950947 -2.88208501 13.36510343 -2.4375 10.5 C-1.11277174 2.22554348 -1.11277174 2.22554348 0 0 Z M-0.8125 26.8125 C-4.93379353 30.93379353 -6.20616047 34.63321678 -6.5 40.375 C-6.32986675 46.05899732 -4.76953974 49.7717332 -1 54 C3.57154148 58.05204813 8.00236908 59.23420291 14 59 C19.78267537 57.9993549 23.27221957 55.35632892 26.8125 50.7578125 C29.8883034 46.20481404 30.55730559 42.4801716 30 37 C28.02985504 31.12314715 25.0898491 27.46109739 20 24 C12.14469124 20.70077032 6.08989231 22.36429162 -0.8125 26.8125 Z M52 28 C52.99 30.97 53.98 33.94 55 37 C57.2491908 35.17296773 57.2491908 35.17296773 57.25 32.5 C57.2491908 29.82703227 57.2491908 29.82703227 55 28 C54.01 28 53.02 28 52 28 Z " fill="#546CB6" transform="translate(87,0)"/>
<path d="M0 0 C4.81726509 4.34728801 7.41022784 7.81787507 8.5625 14.3125 C8.73607228 27.04113366 2.97124896 37.62791883 -5.5 46.875 C-19.20918187 59.80422842 -36.93463334 64.71967392 -55.40234375 64.51953125 C-73.42613157 63.81177952 -89.10583152 56.28165654 -101.4375 43.3125 C-109.69695929 33.73937357 -115.14279142 22.89544905 -116.4375 10.3125 C-115.31472656 10.25191406 -114.19195312 10.19132812 -113.03515625 10.12890625 C-102.86549807 9.57608635 -102.86549807 9.57608635 -92.734375 8.5625 C-88.46829906 8.0981652 -84.18299937 7.85921983 -79.90234375 7.56640625 C-75.40406496 7.23676913 -70.92132981 6.79807604 -66.4375 6.3125 C-64.68015549 11.28611654 -63.11165387 16.0540998 -62.4375 21.3125 C-62.045625 20.796875 -61.65375 20.28125 -61.25 19.75 C-60.651875 19.275625 -60.05375 18.80125 -59.4375 18.3125 C-56.75 18.625 -56.75 18.625 -54.4375 19.3125 C-54.8125 21.25 -54.8125 21.25 -55.4375 23.3125 C-56.4275 23.8075 -56.4275 23.8075 -57.4375 24.3125 C-57.4375 24.9725 -57.4375 25.6325 -57.4375 26.3125 C-56.4475 26.6425 -55.4575 26.9725 -54.4375 27.3125 C-53.4475 26.6525 -52.4575 25.9925 -51.4375 25.3125 C-48.75 25.6875 -48.75 25.6875 -46.4375 26.3125 C-45.6875 29.0625 -45.6875 29.0625 -45.4375 32.3125 C-46.8125 34.6875 -46.8125 34.6875 -49.4375 36.3125 C-53.60758771 37.00363186 -57.21745207 36.75615379 -61.1875 35.3125 C-64.4227767 32.43669849 -66.26837834 29.02368159 -68.4375 25.3125 C-69.46518011 23.67861872 -70.50689845 22.05348262 -71.5625 20.4375 C-72.03945312 19.69757813 -72.51640625 18.95765625 -73.0078125 18.1953125 C-74.47306607 16.05247456 -74.47306607 16.05247456 -77.4375 14.3125 C-78.7575 14.3125 -80.0775 14.3125 -81.4375 14.3125 C-82.65248523 20.49787934 -82.5294309 24.73018119 -79.4375 30.3125 C-72.67786957 38.61718882 -62.62002586 42.47866361 -52.5 45.0625 C-36.87582144 46.33794315 -21.97081794 43.50289302 -9.34765625 33.6875 C-3.87295695 28.68735181 -0.85891425 22.92462213 0 15.5625 C-0.4874427 11.94149708 -1.05865587 10.08781815 -3.4375 7.3125 C-7.28691448 5.21281937 -8.96394184 5.19605127 -13.25 6.25 C-16.75829539 8.04295491 -16.75829539 8.04295491 -17.5625 11.8125 C-17.71727173 15.18088542 -17.71727173 15.18088542 -16.3125 17.25 C-13.90170662 18.61611625 -12.16455554 18.53361261 -9.4375 18.3125 C-9.1075 16.9925 -8.7775 15.6725 -8.4375 14.3125 C-10.4175 14.3125 -12.3975 14.3125 -14.4375 14.3125 C-14.9325 12.8275 -14.9325 12.8275 -15.4375 11.3125 C-14.375 9.8125 -14.375 9.8125 -12.4375 8.3125 C-9.05431143 7.95001551 -6.56965135 7.72816382 -3.5 9.3125 C-1.77695015 12.55588795 -1.79753254 15.78235689 -2.4375 19.3125 C-4.23113911 22.1225346 -5.45630935 23.82190468 -8.4375 25.3125 C-14.90056042 25.73630724 -18.17194143 25.1115502 -23.1875 20.8125 C-26.04730722 17.38073133 -25.72508225 13.55433815 -25.4375 9.3125 C-23.69333626 4.63079732 -21.56714161 2.10000809 -17.4375 -0.6875 C-11.62364524 -2.62545159 -5.51641224 -2.70805692 0 0 Z " fill="#0097C4" transform="translate(141.4375,86.6875)"/>
<path d="M0 0 C11 0 11 0 14.26953125 2.78125 C15.15364477 3.99509976 16.0013597 5.2362202 16.8125 6.5 C17.23724609 7.10070312 17.66199219 7.70140625 18.09960938 8.3203125 C18.9641959 9.54612145 19.8146866 10.78199245 20.65087891 12.02734375 C22.98327684 15.43772654 25.4997503 18.71170443 28 22 C28.02505615 21.36908447 28.0501123 20.73816895 28.07592773 20.08813477 C28.19154137 17.24603175 28.31442316 14.40428917 28.4375 11.5625 C28.47681641 10.56927734 28.51613281 9.57605469 28.55664062 8.55273438 C28.59853516 7.60849609 28.64042969 6.66425781 28.68359375 5.69140625 C28.72025146 4.81685791 28.75690918 3.94230957 28.79467773 3.04125977 C29 1 29 1 30 0 C33.63 0 37.26 0 41 0 C41 14.85 41 29.7 41 45 C31 45 31 45 28.625 43.48828125 C28.08875 42.77027344 27.5525 42.05226562 27 41.3125 C26.05640625 40.10207031 26.05640625 40.10207031 25.09375 38.8671875 C24.4028125 37.92101562 23.711875 36.97484375 23 36 C22.09749241 34.83303358 21.19103279 33.66911601 20.28125 32.5078125 C17.82334349 29.36119441 15.40433326 26.18771234 13 23 C12.97494385 23.63091553 12.9498877 24.26183105 12.92407227 24.91186523 C12.80845863 27.75396825 12.68557684 30.59571083 12.5625 33.4375 C12.52318359 34.43072266 12.48386719 35.42394531 12.44335938 36.44726562 C12.40146484 37.39150391 12.35957031 38.33574219 12.31640625 39.30859375 C12.26141968 40.62041626 12.26141968 40.62041626 12.20532227 41.95874023 C12 44 12 44 11 45 C7.37 45 3.74 45 0 45 C0 30.15 0 15.3 0 0 Z " fill="#00A6CF" transform="translate(49,173)"/>
<path d="M0 0 C1.16331466 0.70094012 2.31213767 1.42712005 3.4375 2.1875 C4.2625 2.6825 5.0875 3.1775 5.9375 3.6875 C6.4325 4.1825 6.9275 4.6775 7.4375 5.1875 C7.4375 6.5075 7.4375 7.8275 7.4375 9.1875 C4.66839898 11.50581714 2.52371991 12.99741152 -1.0625 13.625 C-3.5625 13.1875 -3.5625 13.1875 -6.5 11.625 C-10.19348717 9.89132235 -11.70947161 9.95781009 -15.5625 11.1875 C-19.16550696 13.65383183 -19.16550696 13.65383183 -21.5625 17.1875 C-22.11762815 21.81963493 -22.1989242 25.16922127 -19.6875 29.1875 C-16.38682233 32.29402016 -14.12642455 32.46342463 -9.6015625 32.4140625 C-6.69081652 32.09064628 -4.83873116 30.98089425 -2.5625 29.1875 C-2.2325 28.5275 -1.9025 27.8675 -1.5625 27.1875 C-5.1925 27.1875 -8.8225 27.1875 -12.5625 27.1875 C-12.66015625 20.25390625 -12.66015625 20.25390625 -12.5625 18.1875 C-11.5625 17.1875 -11.5625 17.1875 -9.52124023 17.07397461 C-8.64669189 17.07921143 -7.77214355 17.08444824 -6.87109375 17.08984375 C-5.92685547 17.09306641 -4.98261719 17.09628906 -4.00976562 17.09960938 C-2.51993164 17.11217773 -2.51993164 17.11217773 -1 17.125 C-0.00291016 17.12951172 0.99417969 17.13402344 2.02148438 17.13867188 C4.49354849 17.15049993 6.96549518 17.16698151 9.4375 17.1875 C9.51915496 19.39520805 9.57698488 21.60380425 9.625 23.8125 C9.67720703 25.65714844 9.67720703 25.65714844 9.73046875 27.5390625 C9.35098925 32.26484719 7.95233761 35.43268812 4.859375 39.015625 C-0.65263998 43.70341344 -5.99228116 45.75026926 -13.390625 45.4921875 C-21.07304387 44.41443809 -26.29503328 41.20080712 -31.1875 35.28515625 C-35.48713928 28.72576337 -35.49213167 21.80715959 -34.5625 14.1875 C-32.20485742 7.61730486 -28.46087051 3.38955545 -22.39453125 0.02734375 C-15.65996796 -3.0599294 -6.69517683 -3.30969119 0 0 Z " fill="#00A6CF" transform="translate(34.5625,173.8125)"/>
<path d="M0 0 C2.49588631 1.42232823 4.54792624 2.95857717 6.375 5.1875 C7.04457496 7.86068858 7.14862708 10.42575037 7.375 13.1875 C-2.75415995 13.82611604 -2.75415995 13.82611604 -6.4375 11.125 C-7.159375 10.485625 -7.88125 9.84625 -8.625 9.1875 C-11.86793584 9.32367572 -11.86793584 9.32367572 -14.625 10.1875 C-14.295 11.1775 -13.965 12.1675 -13.625 13.1875 C-11.23021125 14.24167951 -8.90092622 15.14271372 -6.4375 16 C-0.57402776 18.18174108 3.50973418 20.07170701 7.375 25.1875 C8.58143566 28.80680698 8.69768559 31.37981005 8.375 35.1875 C6.09145754 39.58543364 3.85168358 42.0610753 -0.625 44.1875 C-8.18678422 46.45444999 -16.61815105 45.8702336 -23.625 42.1875 C-26.01032196 40.29819125 -26.9884619 38.87986913 -28.625 36.1875 C-28.9375 32.8125 -28.9375 32.8125 -28.625 30.1875 C-24.995 30.1875 -21.365 30.1875 -17.625 30.1875 C-17.295 31.1775 -16.965 32.1675 -16.625 33.1875 C-12.995 33.1875 -9.365 33.1875 -5.625 33.1875 C-5.955 32.1975 -6.285 31.2075 -6.625 30.1875 C-9.04214648 29.08209765 -11.37902601 28.13604726 -13.875 27.25 C-19.42457863 25.26648009 -24.26484082 23.33437891 -27.9375 18.4375 C-29.33521989 13.86314398 -29.30884327 9.77113705 -27.4375 5.4375 C-20.80369767 -2.79756497 -9.55568253 -4.66217658 0 0 Z " fill="#00A6CF" transform="translate(123.625,173.8125)"/>
<path d="M0 0 C3.10829719 2.34121099 4.30428967 4.4988065 5.51953125 8.14453125 C5.83181415 12.28227971 5.82535551 14.57819002 3.83203125 18.26953125 C3.39890625 19.21828125 2.96578125 20.16703125 2.51953125 21.14453125 C3.82070677 23.64693143 3.82070677 23.64693143 5.51953125 26.14453125 C6.0566842 31.15795874 5.64480683 34.15711068 2.51953125 38.14453125 C-2.19689715 42.72994775 -6.89319891 43.93588046 -13.35546875 44.45703125 C-19.44127526 44.26795765 -24.61812409 42.54128974 -29.48046875 38.89453125 C-31.8771415 35.59910622 -32.24365843 33.17030666 -32.48046875 29.14453125 C-30.54365714 29.06345542 -28.60587535 29.0053065 -26.66796875 28.95703125 C-25.58902344 28.92222656 -24.51007813 28.88742188 -23.3984375 28.8515625 C-20.11946975 29.18077613 -19.5027297 29.68536207 -17.48046875 32.14453125 C-14.5065583 33.13583473 -13.09733695 33.39461295 -10.16796875 32.20703125 C-9.33265625 31.68109375 -9.33265625 31.68109375 -8.48046875 31.14453125 C-8.48046875 29.49453125 -8.48046875 27.84453125 -8.48046875 26.14453125 C-12.44046875 25.81453125 -16.40046875 25.48453125 -20.48046875 25.14453125 C-20.81046875 22.50453125 -21.14046875 19.86453125 -21.48046875 17.14453125 C-17.17724192 15.67513672 -12.85749508 14.37009862 -8.48046875 13.14453125 C-8.81046875 11.82453125 -9.14046875 10.50453125 -9.48046875 9.14453125 C-12.78614364 8.2906602 -12.78614364 8.2906602 -16.48046875 8.14453125 C-17.08890625 8.79421875 -17.69734375 9.44390625 -18.32421875 10.11328125 C-20.48046875 12.14453125 -20.48046875 12.14453125 -23.49609375 12.53515625 C-25.09710938 12.46554688 -25.09710938 12.46554688 -26.73046875 12.39453125 C-27.808125 12.3584375 -28.88578125 12.32234375 -29.99609375 12.28515625 C-31.22585937 12.21554688 -31.22585937 12.21554688 -32.48046875 12.14453125 C-32.06828784 6.8892246 -31.41084231 3.77256838 -27.48046875 0.14453125 C-19.08562725 -4.28183972 -8.32730419 -4.96132018 0 0 Z " fill="#00A6CF" transform="translate(166.48046875,174.85546875)"/>
<path d="M0 0 C2.5 2.125 2.5 2.125 4 5 C3.93689022 8.15548924 3.48864121 10.13769198 1.9375 12.875 C-1.23572732 14.71751909 -4.43758579 14.66053097 -8 14 C-10.6923481 11.81246717 -10.93936827 10.41576045 -11.4375 7 C-11 4 -11 4 -9.4375 1.625 C-6.04129157 -0.63913895 -3.99900698 -0.64269755 0 0 Z " fill="#6460B5" transform="translate(98,31)"/>
<path d="M0 0 C2 1 2 1 3 3 C3.51981506 6.56444611 3.63102777 9.73794446 2 13 C-1.26205554 14.63102777 -4.43555389 14.51981506 -8 14 C-10 13 -10 13 -11 11 C-11.51981506 7.43555389 -11.63102777 4.26205554 -10 1 C-6.73794446 -0.63102777 -3.56444611 -0.51981506 0 0 Z M-6 2 C-2 3 -2 3 -2 3 Z M-1 3 C-1 5.31 -1 7.62 -1 10 C-0.34 9.67 0.32 9.34 1 9 C0.67 7.02 0.34 5.04 0 3 C-0.33 3 -0.66 3 -1 3 Z M-8 4 C-8.33 5.65 -8.66 7.3 -9 9 C-8.01 9.495 -8.01 9.495 -7 10 C-7 8.02 -7 6.04 -7 4 C-7.33 4 -7.66 4 -8 4 Z M-5 8 C-5.33 9.32 -5.66 10.64 -6 12 C-4.68 11.67 -3.36 11.34 -2 11 C-2.99 10.01 -3.98 9.02 -5 8 Z " fill="#00A6CF" transform="translate(188,173)"/>
<path d="M0 0 C0.94746094 -0.02578125 1.89492187 -0.0515625 2.87109375 -0.078125 C5.9527834 0.29758172 7.28222555 1.2015265 9.5625 3.25 C7.94469843 4.86780157 6.10614482 4.47272147 3.87109375 4.56640625 C2.92685547 4.60830078 1.98261719 4.65019531 1.00976562 4.69335938 C-0.48006836 4.75233398 -0.48006836 4.75233398 -2 4.8125 C-2.99708984 4.85568359 -3.99417969 4.89886719 -5.02148438 4.94335938 C-7.4933415 5.04980298 -9.9653031 5.15181928 -12.4375 5.25 C-8.45584442 0.99374748 -5.77130926 0.09396976 0 0 Z " fill="#1688BB" transform="translate(132.4375,84.75)"/>
<path d="M0 0 C0 1.32 0 2.64 0 4 C-1.875 4.625 -1.875 4.625 -4 5 C-4.66 4.34 -5.32 3.68 -6 3 C-6 2.01 -6 1.02 -6 0 C-3.50907189 -1.24546405 -2.58919267 -0.7767578 0 0 Z " fill="#048ABB" transform="translate(97,92)"/>
</svg>
