<?xml version="1.0" encoding="UTF-8"?>
<svg version="1.1" xmlns="http://www.w3.org/2000/svg" width="1200" height="1200">
<path d="M0 0 C1.37156754 0.00017939 1.37156754 0.00017939 2.77084351 0.0003624 C33.25800235 0.0053782 63.68440241 0.33681677 94.125 2.1875 C94.97856079 2.23841797 95.83212158 2.28933594 96.71154785 2.34179688 C129.82617787 4.34155285 161.96285204 8.9294062 194.125 17.1875 C195.19621094 17.45788086 196.26742187 17.72826172 197.37109375 18.00683594 C247.55996352 30.80468444 297.99657737 53.5048395 339.125 85.1875 C339.99125 84.424375 340.8575 83.66125 341.75 82.875 C363.6225436 64.21512377 386.94049171 50.04843475 415.125 43.1875 C415.8252832 43.01105957 416.52556641 42.83461914 417.24707031 42.65283203 C451.98498647 34.2715414 490.93037409 41.12517709 521.46484375 59.16015625 C538.31373553 70.06748259 552.16709603 83.44721716 563.125 100.1875 C564.06279297 101.58162109 564.06279297 101.58162109 565.01953125 103.00390625 C568.93102024 109.21107726 571.7211276 115.74773044 574.375 122.5625 C574.7045166 123.39982666 575.0340332 124.23715332 575.37353516 125.09985352 C580.52761504 138.86032409 581.65988887 151.81787108 581.62597656 166.37109375 C581.62500831 169.28747699 581.66668113 172.2011843 581.7109375 175.1171875 C581.94299194 211.86425048 564.68838802 244.94814196 539.47265625 270.9375 C529.51733583 280.82561397 506.94950919 301.1875 492.125 301.1875 C492.45709473 302.61908447 492.45709473 302.61908447 492.79589844 304.07958984 C500.20909154 336.15944217 500.20909154 336.15944217 502.5 351.125 C502.64276367 352.04780762 502.78552734 352.97061523 502.93261719 353.92138672 C503.37792883 357.00568203 503.75385156 360.09331711 504.125 363.1875 C504.20656353 363.83916262 504.28812706 364.49082525 504.37216221 365.16223522 C506.35472497 381.41404809 506.40723046 397.63009495 506.3695315 413.97487637 C506.36258179 417.9690628 506.36742677 421.96323921 506.37069702 425.95742798 C506.3748283 432.94485149 506.37159984 439.9322407 506.36343026 446.91966021 C506.35116555 457.44440851 506.35069575 467.96913631 506.35236086 478.49389047 C506.35483845 496.13628887 506.34828551 513.77867233 506.33615112 531.42106628 C506.31977287 555.27595554 506.31594306 579.13081927 506.31420898 602.98571777 C506.30371433 660.32381488 506.27579204 717.66190773 506.25 775 C506.20875 903.101875 506.1675 1031.20375 506.125 1163.1875 C159.625 1163.1875 -186.875 1163.1875 -543.875 1163.1875 C-543.936875 1035.23 -543.99875 907.2725 -544.0625 775.4375 C-544.08981201 735.02313477 -544.11712402 694.60876953 -544.14526367 652.96972656 C-544.15881348 603.64794922 -544.15881348 603.64794922 -544.16133118 580.56390381 C-544.16431197 563.36771034 -544.17723624 546.17155238 -544.19502028 528.97536886 C-544.21292877 511.42064109 -544.21949852 493.86593561 -544.21533485 476.31119905 C-544.21319076 465.88785088 -544.21906748 455.464586 -544.23742279 445.04125333 C-544.24874659 438.13927377 -544.24895833 431.23734898 -544.24050602 424.33536552 C-544.23601338 420.41683353 -544.23598042 416.49846035 -544.24964774 412.57994604 C-544.32743753 388.89421319 -543.00419129 365.52040823 -538.625 342.1875 C-538.42173096 341.07084961 -538.21846191 339.95419922 -538.0090332 338.80371094 C-535.55504759 325.79188023 -532.26486898 312.98289623 -528.875 300.1875 C-529.78942871 299.89560791 -530.70385742 299.60371582 -531.64599609 299.30297852 C-535.54415164 297.95633761 -538.92387994 296.15316971 -542.5 294.125 C-543.2007666 293.72796875 -543.9015332 293.3309375 -544.62353516 292.921875 C-555.03520047 286.90318723 -564.14544528 279.43910808 -572.875 271.1875 C-573.68582031 270.44113281 -574.49664063 269.69476563 -575.33203125 268.92578125 C-601.26795822 244.21517367 -616.34627136 207.58840948 -617.22900391 171.98486328 C-617.49355853 136.73757451 -604.7168233 103.68656204 -580.12890625 78.3515625 C-569.9979397 68.29802615 -558.61464402 60.54489915 -545.875 54.1875 C-545.22950195 53.86410645 -544.58400391 53.54071289 -543.91894531 53.20751953 C-524.88187391 43.86126502 -504.33522765 39.78104641 -483.1875 39.875 C-481.87112549 39.87991455 -480.55475098 39.8848291 -479.19848633 39.88989258 C-469.15208221 40.01030863 -459.62675626 40.76374875 -449.875 43.1875 C-449.17697266 43.35910645 -448.47894531 43.53071289 -447.75976562 43.70751953 C-420.41767557 50.65479446 -397.35940006 63.87248499 -376.875 83.1875 C-373.14095663 81.83390928 -370.13180871 80.1382882 -366.875 77.875 C-312.44855202 41.10396076 -251.23731906 16.89110518 -186.1875 7.375 C-185.52224304 7.27554077 -184.85698608 7.17608154 -184.17156982 7.0736084 C-161.70300935 3.76750129 -138.90633284 2.95297671 -116.23461914 2.23706055 C-112.73237933 2.12641783 -109.23046025 2.00826005 -105.72851562 1.88867188 C-98.82989368 1.65731601 -91.93076927 1.44744846 -85.03111267 1.24941635 C-83.55324952 1.20697706 -82.07539552 1.16421849 -80.59754944 1.12118912 C-53.72954382 0.34076665 -26.87908702 -0.01574561 0 0 Z " fill="#76E0FD" transform="translate(618.875,36.8125)"/>
<path d="M0 0 C1.37156754 0.00017939 1.37156754 0.00017939 2.77084351 0.0003624 C33.25800235 0.0053782 63.68440241 0.33681677 94.125 2.1875 C94.97856079 2.23841797 95.83212158 2.28933594 96.71154785 2.34179688 C129.82617787 4.34155285 161.96285204 8.9294062 194.125 17.1875 C195.19621094 17.45788086 196.26742187 17.72826172 197.37109375 18.00683594 C247.55996352 30.80468444 297.99657737 53.5048395 339.125 85.1875 C339.99125 84.424375 340.8575 83.66125 341.75 82.875 C363.6225436 64.21512377 386.94049171 50.04843475 415.125 43.1875 C415.8252832 43.01105957 416.52556641 42.83461914 417.24707031 42.65283203 C451.98498647 34.2715414 490.93037409 41.12517709 521.46484375 59.16015625 C538.31373553 70.06748259 552.16709603 83.44721716 563.125 100.1875 C564.06279297 101.58162109 564.06279297 101.58162109 565.01953125 103.00390625 C568.93102024 109.21107726 571.7211276 115.74773044 574.375 122.5625 C574.7045166 123.39982666 575.0340332 124.23715332 575.37353516 125.09985352 C580.52761504 138.86032409 581.65988887 151.81787108 581.62597656 166.37109375 C581.62500831 169.28747699 581.66668113 172.2011843 581.7109375 175.1171875 C581.94299194 211.86425048 564.68838802 244.94814196 539.47265625 270.9375 C529.51733583 280.82561397 506.94950919 301.1875 492.125 301.1875 C492.45709473 302.61908447 492.45709473 302.61908447 492.79589844 304.07958984 C500.20909154 336.15944217 500.20909154 336.15944217 502.5 351.125 C502.64276367 352.04780762 502.78552734 352.97061523 502.93261719 353.92138672 C503.37792883 357.00568203 503.75385156 360.09331711 504.125 363.1875 C504.20656353 363.83916262 504.28812706 364.49082525 504.37216221 365.16223522 C506.35463831 381.41333767 506.40721923 397.62866699 506.36953239 413.97273241 C506.36257284 417.97540022 506.36742266 421.97805817 506.37068737 425.98072833 C506.37480816 432.97591861 506.37159332 439.97107464 506.36341095 446.96626091 C506.35127836 457.36763766 506.35074512 467.76899309 506.35249493 478.17037563 C506.35511531 495.67207531 506.34846818 513.17375983 506.33646011 530.67545509 C506.3246086 547.9935393 506.3169247 565.31161719 506.31475449 582.62970543 C506.31461701 583.70822604 506.31447953 584.78674665 506.31433788 585.8979497 C506.31366118 591.37565655 506.31305842 596.8533634 506.31248413 602.33107027 C506.30828812 641.08619632 506.29482685 679.84131413 506.27587891 718.59643555 C506.25749747 756.23640906 506.2433364 793.87638032 506.23486328 831.51635742 C506.2344687 833.25801868 506.2344687 833.25801868 506.23406615 835.03486502 C506.23142902 846.69564152 506.2288774 858.35641805 506.22638843 870.01719459 C506.22131659 893.76957577 506.21567409 917.5219568 506.20968628 941.27433777 C506.2094117 942.36633055 506.20913712 943.45832333 506.20885422 944.58340681 C506.194605 1001.05041397 506.17188436 1057.51741733 506.1472168 1113.98442078 C506.14669658 1115.17544889 506.14669658 1115.17544889 506.14616586 1116.39053817 C506.13933731 1131.98952555 506.13213275 1147.58851275 506.125 1163.1875 C481.375 1163.1875 456.625 1163.1875 431.125 1163.1875 C430.50184443 1119.26953471 430.50184443 1119.26953471 430.349823 1102.98721313 C430.3393387 1101.86457139 430.3288544 1100.74192964 430.3180524 1099.58526845 C430.01899292 1066.50110498 430.03361235 1033.41603341 430.04321289 1000.33081055 C430.04344304 999.50454245 430.04367319 998.67827435 430.04391032 997.82696782 C430.05002162 976.72509051 430.06506373 955.62322197 430.08269665 934.52135157 C430.0999041 913.80278116 430.1080357 893.08420997 430.11529111 872.36563405 C430.11839426 863.61369672 430.12177783 854.86175949 430.12516689 846.10982227 C430.12554166 845.13887821 430.12591643 844.16793415 430.12630256 843.16756754 C430.13519685 820.26527501 430.14687492 797.36298414 430.15942383 774.46069336 C430.16024043 772.96480879 430.16024043 772.96480879 430.16107354 771.43870433 C430.17384315 748.08814311 430.18790461 724.73758307 430.20404053 701.38702393 C430.20473772 700.37654734 430.2054349 699.36607075 430.20615322 698.32497366 C430.2089692 694.24502891 430.21178985 690.16508417 430.21461116 686.08513942 C430.21602009 684.04759249 430.21742856 682.01004556 430.21883656 679.97249863 C430.22024327 677.93725233 430.22165154 675.90200604 430.22306137 673.86675975 C430.2463274 640.21799786 430.26276517 606.56923793 430.27173797 572.92046911 C430.27301409 568.17108331 430.2743828 563.42169754 430.27581596 558.67231178 C430.27623798 557.27095131 430.27623798 557.27095131 430.27666853 555.84128053 C430.28140589 540.87075513 430.29353586 525.90024458 430.30870286 510.92972648 C430.32379521 495.920605 430.33178014 480.91149358 430.33248956 465.9023644 C430.33314083 457.00805149 430.33936495 448.11378384 430.35373188 439.2194823 C430.36279311 433.26717503 430.36446058 427.31489415 430.36033946 421.36258152 C430.35820655 417.98165946 430.3602211 414.60088718 430.36908758 411.21996649 C430.40498063 396.78108482 430.02331678 382.59009688 428.35760026 368.24026225 C428.03075323 365.35574593 427.77405699 362.46588814 427.51953125 359.57421875 C425.27645626 336.77450353 420.62497873 314.10275339 413.19140625 292.4140625 C412.125 289.1875 412.125 289.1875 412.125 287.1875 C412.77645996 286.91711914 413.42791992 286.64673828 414.09912109 286.36816406 C426.83405846 281.06804884 439.51148654 275.66098185 452.0625 269.9375 C453.10776855 269.46731445 454.15303711 268.99712891 455.22998047 268.51269531 C477.6282861 258.19820559 493.48073711 242.98101084 502.20922852 219.89648438 C507.76939786 204.57428687 507.25715157 184.26623869 500.4609375 169.4921875 C496.47765614 161.29660655 491.69273252 154.56858293 485.125 148.1875 C484.51269531 147.55457031 483.90039062 146.92164063 483.26953125 146.26953125 C470.30321341 133.74556114 451.31359441 128.80933893 433.79589844 128.95776367 C401.86109821 129.63885336 376.05221352 151.59133844 351.9296875 170.27734375 C348.39164933 173.00831792 344.77743775 175.61181987 341.125 178.1875 C340.56296875 177.63964844 340.0009375 177.09179688 339.421875 176.52734375 C301.25465752 140.52605732 249.6006904 115.79455515 199.16503906 102.73925781 C196.58910802 102.04256033 194.0521092 101.23135866 191.50952148 100.42260742 C169.98625317 93.67820021 147.21424327 89.87424721 124.9440918 86.60693359 C123.00386422 86.31826026 121.06526996 86.01846119 119.12817383 85.70947266 C110.21576069 84.29038204 101.27801843 83.19995607 92.3125 82.1875 C91.54798523 82.10067963 90.78347046 82.01385925 89.99578857 81.92440796 C80.42352344 80.84116177 70.84967584 79.81263657 61.25 79 C60.41750732 78.92845703 59.58501465 78.85691406 58.72729492 78.78320312 C42.3565215 77.48250721 25.9558298 77.02415335 9.5390625 76.984375 C7.72337828 76.97734522 5.90769429 76.97025849 4.0920105 76.96311951 C-1.68866329 76.94371409 -7.46929692 76.93868407 -13.25 76.9375 C-14.23684784 76.93705814 -15.22369568 76.93661629 -16.240448 76.93616104 C-80.88101728 76.92099959 -144.74447785 80.32365132 -207.875 95.1875 C-209.53595703 95.57808594 -209.53595703 95.57808594 -211.23046875 95.9765625 C-227.00874309 99.72412156 -242.52971472 103.93667312 -257.875 109.1875 C-258.74721191 109.48205078 -259.61942383 109.77660156 -260.51806641 110.08007812 C-301.32430362 123.96454465 -338.77732774 144.23711254 -371.8125 171.9375 C-372.33263672 172.37344482 -372.85277344 172.80938965 -373.38867188 173.25854492 C-377.07778052 176.39845239 -380.4857102 179.73254587 -383.875 183.1875 C-388.07552579 181.79975969 -390.53290447 179.8826418 -393.6875 176.8125 C-413.11103319 158.71684911 -440.08016052 138.19293302 -465.875 131.1875 C-466.57109375 130.98253906 -467.2671875 130.77757812 -467.984375 130.56640625 C-487.44541628 125.70114593 -507.99718403 129.92734758 -525.02929688 139.99414062 C-539.56392254 149.3916605 -550.55299874 165.13095848 -554.50439453 181.94946289 C-555.22554713 186.30440747 -555.16133925 190.65939436 -555.125 195.0625 C-555.13273438 195.99191406 -555.14046875 196.92132813 -555.1484375 197.87890625 C-555.09111033 218.43069697 -546.45244152 236.13279764 -532.5 250.875 C-511.33917559 271.13837873 -478.51227051 280.75528281 -451.875 291.1875 C-453.07875686 297.56492084 -454.52087643 303.80912934 -456.25 310.0625 C-466.06833178 346.67230485 -468.19258308 383.95983003 -468.15447159 421.7062875 C-468.15273087 425.6745732 -468.16269149 429.64283492 -468.17102563 433.61110991 C-468.18402026 440.53350304 -468.18987564 447.45587198 -468.19078636 454.37827682 C-468.19217421 464.67130076 -468.20502791 474.96428919 -468.2200741 485.2573011 C-468.24507896 502.57983835 -468.26101861 519.90237254 -468.27165604 537.22492409 C-468.28220708 554.35777247 -468.29687057 571.49060935 -468.31693649 588.62344933 C-468.31818536 589.69171559 -468.31943423 590.75998185 -468.32072094 591.86061982 C-468.32708535 597.28657477 -468.33352237 602.71252962 -468.33998732 608.13848444 C-468.38555875 646.49539314 -468.42204533 684.85230557 -468.453125 723.20922852 C-468.48332528 760.45500231 -468.51768061 797.70076852 -468.55761719 834.9465332 C-468.55884819 836.09613011 -468.56007919 837.24572701 -468.5613475 838.43016019 C-468.57371516 849.97567604 -468.58616681 861.5211918 -468.59867998 873.06670749 C-468.62416517 896.58285718 -468.64908998 920.09900744 -468.67367554 943.61515808 C-468.67480645 944.69621412 -468.67593736 945.77727016 -468.67710253 946.89108547 C-468.73550496 1002.76655711 -468.78558949 1058.64203581 -468.83375549 1114.51751709 C-468.83443264 1115.30298092 -468.83510978 1116.08844475 -468.83580745 1116.89771051 C-468.84909451 1132.32764015 -468.86201197 1147.7575701 -468.875 1163.1875 C-493.625 1163.1875 -518.375 1163.1875 -543.875 1163.1875 C-543.89931474 1127.79413317 -543.89931474 1127.79413317 -543.9083252 1114.06217957 C-543.90888618 1113.20737705 -543.90944717 1112.35257454 -543.91002516 1111.47186892 C-543.94713724 1054.83816186 -543.98064991 998.20445519 -544.00202942 941.57073975 C-544.00265068 939.92925982 -544.00265068 939.92925982 -544.00328448 938.25461869 C-544.01226439 914.46885957 -544.02057477 890.68310026 -544.02819599 866.89734067 C-544.03193781 855.23185337 -544.0358275 843.56636613 -544.03979492 831.90087891 C-544.0401872 830.7400577 -544.04057948 829.5792365 -544.04098364 828.38323889 C-544.05375476 790.79603592 -544.07627901 753.20884653 -544.10389166 715.62165177 C-544.13222892 676.97766792 -544.15066548 638.33369158 -544.15674497 599.68969752 C-544.15760936 594.2244137 -544.15858627 588.75912991 -544.15963173 583.29384613 C-544.15993513 581.68046656 -544.15993513 581.68046656 -544.16024467 580.03449346 C-544.16378201 562.75999345 -544.17767504 545.48551674 -544.1954961 528.21102621 C-544.21321392 510.82043645 -544.21988995 493.42986966 -544.21550413 476.03927121 C-544.21323223 465.72271256 -544.21921711 455.40623833 -544.23739263 445.08969502 C-544.24873244 438.17723346 -544.24892841 431.2648265 -544.24049544 424.35236101 C-544.23601313 420.42719454 -544.23596293 416.50218647 -544.24964955 412.57703772 C-544.32743347 388.89230156 -543.00400514 365.51941643 -538.625 342.1875 C-538.42173096 341.07084961 -538.21846191 339.95419922 -538.0090332 338.80371094 C-535.55504759 325.79188023 -532.26486898 312.98289623 -528.875 300.1875 C-529.78942871 299.89560791 -530.70385742 299.60371582 -531.64599609 299.30297852 C-535.54415164 297.95633761 -538.92387994 296.15316971 -542.5 294.125 C-543.2007666 293.72796875 -543.9015332 293.3309375 -544.62353516 292.921875 C-555.03520047 286.90318723 -564.14544528 279.43910808 -572.875 271.1875 C-573.68582031 270.44113281 -574.49664063 269.69476563 -575.33203125 268.92578125 C-601.26795822 244.21517367 -616.34627136 207.58840948 -617.22900391 171.98486328 C-617.49355853 136.73757451 -604.7168233 103.68656204 -580.12890625 78.3515625 C-569.9979397 68.29802615 -558.61464402 60.54489915 -545.875 54.1875 C-545.22950195 53.86410645 -544.58400391 53.54071289 -543.91894531 53.20751953 C-524.88187391 43.86126502 -504.33522765 39.78104641 -483.1875 39.875 C-481.87112549 39.87991455 -480.55475098 39.8848291 -479.19848633 39.88989258 C-469.15208221 40.01030863 -459.62675626 40.76374875 -449.875 43.1875 C-449.17697266 43.35910645 -448.47894531 43.53071289 -447.75976562 43.70751953 C-420.41767557 50.65479446 -397.35940006 63.87248499 -376.875 83.1875 C-373.14095663 81.83390928 -370.13180871 80.1382882 -366.875 77.875 C-312.44855202 41.10396076 -251.23731906 16.89110518 -186.1875 7.375 C-185.52224304 7.27554077 -184.85698608 7.17608154 -184.17156982 7.0736084 C-161.70300935 3.76750129 -138.90633284 2.95297671 -116.23461914 2.23706055 C-112.73237933 2.12641783 -109.23046025 2.00826005 -105.72851562 1.88867188 C-98.82989368 1.65731601 -91.93076927 1.44744846 -85.03111267 1.24941635 C-83.55324952 1.20697706 -82.07539552 1.16421849 -80.59754944 1.12118912 C-53.72954382 0.34076665 -26.87908702 -0.01574561 0 0 Z " fill="#384E54" transform="translate(618.875,36.8125)"/>
<path d="M0 0 C1.31171677 -0.01886009 1.31171677 -0.01886009 2.64993286 -0.0381012 C35.91418236 -0.42338079 64.88387745 4.15068301 94.82421875 19.2734375 C95.93152344 19.82773438 97.03882813 20.38203125 98.1796875 20.953125 C142.93087861 44.15744632 172.70623493 85.02973806 187.82421875 132.2734375 C189.06628069 136.25191714 190.0410037 140.18003055 190.82421875 144.2734375 C191.0250708 145.29219971 191.0250708 145.29219971 191.22998047 146.33154297 C196.73903502 175.28971162 195.68823667 207.32023312 185.82421875 235.2734375 C185.55625488 236.04429687 185.28829102 236.81515625 185.01220703 237.609375 C180.62619379 250.09611038 175.38507127 261.78224018 168.82421875 273.2734375 C168.34984375 274.17191406 167.87546875 275.07039063 167.38671875 275.99609375 C165.48503874 278.76779236 163.36988129 280.26418562 160.63671875 282.2109375 C152.01227576 289.10820424 147.05646044 297.68155564 145.32421875 308.6484375 C145.12762603 310.52053634 144.94901949 312.3951863 144.82421875 314.2734375 C143.92703125 314.5415625 143.02984375 314.8096875 142.10546875 315.0859375 C124.5325713 320.60469868 105.56640051 329.10392068 92.57421875 342.4609375 C85.93800215 348.83691031 77.79798105 351.01339189 69.15869141 353.57568359 C67.20516928 354.15957464 65.26804831 354.79796975 63.3359375 355.44921875 C19.08488752 369.72197335 -29.89844619 362.81502169 -70.98046875 342.5 C-93.21103142 331.01507699 -114.07509572 314.23411377 -129.17578125 294.2734375 C-129.91054687 293.34273438 -130.6453125 292.41203125 -131.40234375 291.453125 C-153.19694556 263.36729792 -167.9497921 227.09046498 -168.44921875 191.3046875 C-168.46179214 190.47483337 -168.47436554 189.64497925 -168.48731995 188.78997803 C-168.71639761 170.0355698 -168.41876589 152.42982094 -163.17578125 134.2734375 C-162.9240918 133.37367188 -162.67240234 132.47390625 -162.41308594 131.546875 C-156.96339232 112.51750457 -148.58982056 94.45511093 -137.17578125 78.2734375 C-136.45777344 77.25121094 -135.73976562 76.22898437 -135 75.17578125 C-129.56944093 67.70032249 -123.55148344 60.93631343 -117.17578125 54.2734375 C-116.28890625 53.33371094 -115.40203125 52.39398438 -114.48828125 51.42578125 C-85.71414785 21.68972188 -41.53517734 0.54376339 0 0 Z " fill="#FEFEFE" transform="translate(375.17578125,193.7265625)"/>
<path d="M0 0 C30.57994071 27.56530503 54.10773776 69.29679688 56.43588257 110.97399902 C56.50082289 113.11344111 56.53749133 115.25104434 56.55957031 117.39135742 C56.57439705 118.57543434 56.57439705 118.57543434 56.58952332 119.78343201 C57.04965832 166.11400279 45.73139826 208.7743554 14.32128906 243.92260742 C13.11254003 245.33891942 11.9041474 246.75553575 10.69628906 248.17260742 C-14.14341512 276.1684152 -49.82197547 295.59741597 -86.67871094 301.92260742 C-88.52916016 302.25905273 -88.52916016 302.25905273 -90.41699219 302.60229492 C-110.87865459 305.65377879 -134.57699191 306.08169223 -154.67871094 300.92260742 C-155.56042969 300.69734375 -156.44214844 300.47208008 -157.35058594 300.23999023 C-178.48368982 294.71853379 -178.48368982 294.71853379 -187.55371094 287.29760742 C-201.63912095 276.15835299 -218.53605736 268.12662726 -235.67871094 262.92260742 C-235.75347656 262.19557617 -235.82824219 261.46854492 -235.90527344 260.71948242 C-237.65296167 247.35480769 -243.13728677 237.40096466 -253.67871094 228.92260742 C-255.41809998 227.8305963 -257.18800678 226.81015831 -258.97119141 225.79150391 C-267.95777153 220.61099069 -271.82505935 214.37093166 -275.67871094 204.92260742 C-276.01596191 204.11146484 -276.35321289 203.30032227 -276.70068359 202.46459961 C-286.46648906 178.68659515 -292.31515175 155.69822657 -292.17871094 129.92260742 C-292.17694855 129.0276355 -292.17518616 128.13266357 -292.17337036 127.21057129 C-292.10800859 112.26684028 -290.856889 98.34665267 -286.67871094 83.92260742 C-286.41638672 82.99625488 -286.1540625 82.06990234 -285.88378906 81.11547852 C-282.38359772 69.05576651 -277.70601763 57.91959356 -271.67871094 46.92260742 C-271.03408431 45.70911642 -270.38955202 44.49557529 -269.74511719 43.28198242 C-261.93122809 28.84404643 -251.40851912 16.3591704 -239.67871094 4.92260742 C-238.81826172 3.99448242 -238.81826172 3.99448242 -237.94042969 3.04760742 C-217.88948269 -18.09840071 -189.72786086 -32.77133741 -161.62109375 -39.59838867 C-159.89017421 -40.0252444 -158.17012267 -40.49563315 -156.45214844 -40.97192383 C-101.89922015 -55.89678157 -41.51191339 -36.47769783 0 0 Z " fill="#FEFEFE" transform="translate(911.6787109375,245.077392578125)"/>
<path d="M0 0 C0.72020325 -0.00133942 1.44040649 -0.00267883 2.18243408 -0.00405884 C12.63708705 0.00017145 22.49118171 0.4625487 32.625 3.25 C33.91277344 3.54003906 33.91277344 3.54003906 35.2265625 3.8359375 C51.27816319 7.86190901 66.01804531 17.55981421 75.4453125 31.2265625 C79.54366394 38.25618517 81.1487878 44.13128917 80.625 52.25 C81.50285156 52.435625 81.50285156 52.435625 82.3984375 52.625 C106.60506092 58.44040503 132.59870785 73.22467274 146.625 94.25 C151.2471217 102.85906812 153.80226363 109.6365427 153.75 119.375 C153.75386719 120.10332031 153.75773437 120.83164062 153.76171875 121.58203125 C153.75171034 126.99657931 153.75171034 126.99657931 152.625 129.25 C152.68651113 131.33293691 152.68651113 131.33293691 153 133.625 C153.09023438 134.39585937 153.18046875 135.16671875 153.2734375 135.9609375 C153.56665576 138.19012243 153.56665576 138.19012243 154.14453125 140.06640625 C156.55920874 151.04042835 154.89855978 162.43241522 148.96484375 171.8984375 C139.35744467 185.03709825 123.3515647 191.28836699 107.65625 193.7578125 C96.46878962 195.11343589 84.8732823 194.47236568 73.625 194.25 C73.45484375 193.23679687 73.2846875 192.22359375 73.109375 191.1796875 C72.86531887 189.82799199 72.62048568 188.47643662 72.375 187.125 C72.26542969 186.45984375 72.15585937 185.7946875 72.04296875 185.109375 C71.92050781 184.45195313 71.79804687 183.79453125 71.671875 183.1171875 C71.56713867 182.52019043 71.46240234 181.92319336 71.35449219 181.30810547 C70.20250732 178.05802768 68.86775973 175.89649527 66.625 173.25 C63.60643272 172.65675506 61.38691115 172.47569531 58.37158203 172.55297852 C57.54182861 172.55049606 56.7120752 172.54801361 55.85717773 172.54545593 C53.11479389 172.54453783 50.37483864 172.58635458 47.6328125 172.62890625 C45.72477159 172.63756343 43.81671777 172.64370764 41.90866089 172.64744568 C36.88322515 172.66468263 31.85880946 172.71880029 26.83374023 172.77972412 C22.73904776 172.82324502 18.64444112 172.84085918 14.54956245 172.85699558 C9.66058685 172.87664235 4.77170571 172.90716477 -0.1171875 172.94140625 C-1.04740597 172.94783205 -1.97762444 172.95425785 -2.93603134 172.96087837 C-5.57838112 172.98194715 -8.22054335 173.01023553 -10.86279297 173.04125977 C-12.02725449 173.05000626 -12.02725449 173.05000626 -13.21524048 173.05892944 C-17.37172585 173.11643581 -21.29075068 173.49787255 -25.375 174.25 C-27.83207562 174.34023351 -30.29126904 174.38063056 -32.75 174.3828125 C-33.43755371 174.38376923 -34.12510742 174.38472595 -34.83349609 174.38571167 C-36.27897229 174.38638847 -37.72445161 174.38456929 -39.16992188 174.38037109 C-41.36855976 174.37501569 -43.56699339 174.38033309 -45.765625 174.38671875 C-47.17708378 174.38605788 -48.58854243 174.38477653 -50 174.3828125 C-51.27101563 174.38168457 -52.54203125 174.38055664 -53.8515625 174.37939453 C-57.11941747 174.259386 -60.16866365 173.87091937 -63.375 173.25 C-63.5608667 173.85062256 -63.7467334 174.45124512 -63.93823242 175.07006836 C-64.791283 177.78326867 -65.6763266 180.48494633 -66.5625 183.1875 C-66.85447266 184.13302734 -67.14644531 185.07855469 -67.44726562 186.05273438 C-67.74697266 186.95185547 -68.04667969 187.85097656 -68.35546875 188.77734375 C-68.62254639 189.60999756 -68.88962402 190.44265137 -69.16479492 191.30053711 C-70.375 193.25 -70.375 193.25 -72.68212891 194.04199219 C-94.2556235 195.70841262 -120.62125386 190.73504567 -137.9609375 177.41796875 C-141.63776114 174.11596694 -144.14163834 170.64075863 -146.375 166.25 C-146.71273438 165.58742188 -147.05046875 164.92484375 -147.3984375 164.2421875 C-149.44006307 159.31606341 -149.64515887 154.40493898 -149.6875 149.125 C-149.69313965 148.455896 -149.6987793 147.78679199 -149.70458984 147.09741211 C-149.65514833 143.69893634 -149.26986142 140.8985259 -148.29296875 137.6328125 C-147.28053461 133.90188497 -147.5923842 131.98864052 -148.375 128.25 C-149.77444916 112.31627168 -146.77194106 100.59310634 -136.61328125 87.890625 C-135.87464844 87.01921875 -135.13601563 86.1478125 -134.375 85.25 C-133.83230469 84.60546875 -133.28960937 83.9609375 -132.73046875 83.296875 C-118.91937703 68.33194523 -97.56677636 58.15147123 -78.375 52.25 C-77.385 52.25 -76.395 52.25 -75.375 52.25 C-75.45621094 51.69054687 -75.53742188 51.13109375 -75.62109375 50.5546875 C-76.38594857 40.84571403 -71.50773532 31.89182846 -65.625 24.375 C-48.43416243 6.41912516 -23.98553768 0.02611178 0 0 Z " fill="#C28C74" transform="translate(595.375,455.75)"/>
<path d="M0 0 C0.92683594 0.00491455 1.85367188 0.0098291 2.80859375 0.01489258 C9.51104568 0.12978165 15.33760443 0.89651004 21.625 3.3125 C23.18734375 3.84037109 23.18734375 3.84037109 24.78125 4.37890625 C32.4338934 7.08772746 39.02785015 10.59415011 45.625 15.3125 C46.23601562 15.73789062 46.84703125 16.16328125 47.4765625 16.6015625 C60.98537326 27.03727887 70.60728873 44.53794583 73.23828125 61.1953125 C75.59246429 82.78311903 71.31222117 102.82867775 57.9375 120.3125 C47.27508773 133.19541464 35.43579736 140.29088887 19.625 145.3125 C18.57570313 145.67988281 17.52640625 146.04726563 16.4453125 146.42578125 C-2.49938639 150.82296596 -21.60920139 146.90605918 -38.21484375 137.37890625 C-56.07318159 125.70145172 -68.37049226 108.6957356 -72.9375 87.6875 C-75.55497759 67.49553001 -72.13501219 48.39508271 -60.42578125 31.5 C-58.49446974 29.01092269 -56.48465253 26.65155164 -54.375 24.3125 C-53.78332031 23.62800781 -53.19164062 22.94351562 -52.58203125 22.23828125 C-39.15915263 7.67059422 -19.60061229 -0.12339802 0 0 Z " fill="#171311" transform="translate(866.375,300.6875)"/>
<path d="M0 0 C14.03810502 11.9524942 25.08220879 28.49976095 26.83984375 47.2265625 C28.07006109 68.53032627 24.67684459 87.05970008 11 104 C10.39542969 104.76699219 9.79085937 105.53398437 9.16796875 106.32421875 C1.84174832 115.11269906 -7.45495185 121.62336442 -18 126 C-19.63582031 126.69996094 -19.63582031 126.69996094 -21.3046875 127.4140625 C-38.28221504 134.01681236 -58.39682553 133.29154476 -75 126 C-94.77530017 116.9416367 -107.9419121 102.54130593 -116.375 82.75 C-123.04208704 64.3317457 -121.69951455 44.11985928 -113.57104492 26.51245117 C-110.43747368 20.04009831 -106.78714504 14.35152425 -102 9 C-101.35675781 8.26394531 -100.71351563 7.52789062 -100.05078125 6.76953125 C-90.66955237 -3.30531898 -79.05989321 -9.86117898 -66 -14 C-65.26910156 -14.24492187 -64.53820312 -14.48984375 -63.78515625 -14.7421875 C-42.22783139 -20.78320368 -17.0830323 -13.5976351 0 0 Z " fill="#171311" transform="translate(512,317)"/>
<path d="M0 0 C0.72020325 -0.00133942 1.44040649 -0.00267883 2.18243408 -0.00405884 C12.63708705 0.00017145 22.49118171 0.4625487 32.625 3.25 C33.48351562 3.44335938 34.34203125 3.63671875 35.2265625 3.8359375 C51.25601528 7.85635399 66.06370539 17.55445786 75.4453125 31.23828125 C80.52964396 39.90858159 82.31519203 48.223359 79.9296875 58.140625 C74.84781344 73.42895201 64.57850843 82.8206152 50.625 90.25 C46.35088972 92.1099425 42.02193398 93.70868347 37.625 95.25 C36.81417969 95.5903125 36.00335937 95.930625 35.16796875 96.28125 C11.9530861 105.12501482 -18.92930703 101.98382017 -41.375 92.25 C-54.65421698 85.99177894 -67.25329136 76.95210566 -73.375 63.25 C-76.42952959 54.52277261 -77.09565631 45.25422868 -73.17260742 36.70019531 C-64.94483421 20.4231822 -50.30368196 10.66160135 -33.38818359 4.52978516 C-22.20768281 0.86677042 -11.66320999 0.01269712 0 0 Z " fill="#23201F" transform="translate(595.375,455.75)"/>
<path d="M0 0 C1.25683594 0.24339111 1.25683594 0.24339111 2.5390625 0.49169922 C6.20172364 1.02962674 9.67372535 1.1295279 13.375 1.1328125 C14.06255371 1.13376923 14.75010742 1.13472595 15.45849609 1.13571167 C16.90397229 1.13638847 18.34945161 1.13456929 19.79492188 1.13037109 C21.99355976 1.12501569 24.19199339 1.13033309 26.390625 1.13671875 C27.80208378 1.13605788 29.21354243 1.13477653 30.625 1.1328125 C31.89601563 1.13168457 33.16703125 1.13055664 34.4765625 1.12939453 C37.87741048 1.08991156 37.87741048 1.08991156 40.6882019 0.50396729 C44.6398381 -0.09736628 48.52543703 -0.1709939 52.51220703 -0.19287109 C53.76209412 -0.20513733 53.76209412 -0.20513733 55.03723145 -0.21765137 C57.77741801 -0.24234114 60.5175537 -0.25897123 63.2578125 -0.2734375 C64.19611782 -0.27876118 65.13442314 -0.28408485 66.10116196 -0.28956985 C71.05945771 -0.3162188 76.0177289 -0.33562742 80.97607422 -0.35009766 C85.0791634 -0.36347978 89.18176032 -0.39142223 93.28466797 -0.43212891 C98.24534029 -0.48133605 103.20556361 -0.5062022 108.16646957 -0.51332474 C110.05557034 -0.52004833 111.94466064 -0.53529909 113.83362198 -0.55921555 C116.4718126 -0.59073656 119.10825359 -0.59092512 121.74658203 -0.58349609 C122.91711624 -0.6081041 122.91711624 -0.6081041 124.11129761 -0.63320923 C128.00313952 -0.58827281 129.62813153 -0.36552195 132.45333862 2.41146851 C134.57973555 5.97026004 135.13207353 7.79228423 135.17700195 11.91772461 C135.19625481 13.45589088 135.19625481 13.45589088 135.21589661 15.02513123 C135.22328354 16.13961136 135.23067047 17.25409149 135.23828125 18.40234375 C135.246353 19.54981583 135.25442474 20.6972879 135.26274109 21.87953186 C135.27659684 24.31656376 135.28731229 26.75361519 135.29516602 29.19067383 C135.31228567 32.89117258 135.35614866 36.59075626 135.40039062 40.29101562 C135.41052571 42.66145178 135.41903925 45.03189552 135.42578125 47.40234375 C135.44328934 48.4986058 135.46079742 49.59486786 135.47883606 50.72434998 C135.45517609 59.24686487 133.97802615 67.53870671 128.625 74.4375 C121.44215503 81.44932486 115.25187368 83.30044069 105.56323242 83.29052734 C104.14763786 83.30060318 104.14763786 83.30060318 102.70344543 83.31088257 C99.58739945 83.32986105 96.47156891 83.3337868 93.35546875 83.3359375 C91.18459485 83.34236585 89.01372182 83.34909424 86.84284973 83.35610962 C82.29259229 83.36808225 77.74241076 83.37179048 73.19213867 83.37060547 C67.37150104 83.37040236 61.55135208 83.3976968 55.73083019 83.43214989 C51.24658488 83.45442667 46.76245698 83.45844275 42.278162 83.45738602 C40.13282908 83.45974109 37.98749287 83.46855929 35.84221458 83.48405075 C32.83611573 83.50372466 29.83106825 83.49786667 26.82495117 83.48583984 C25.94519623 83.49707886 25.06544128 83.50831787 24.1590271 83.51989746 C16.8679211 83.44605876 11.71140884 81.4032942 6.25 76.5625 C5.5075 75.716875 4.765 74.87125 4 74 C3.278125 73.195625 2.55625 72.39125 1.8125 71.5625 C-1.4639686 66.93025129 -2.25025796 62.4534502 -2.25878906 56.85864258 C-2.26509338 55.66753372 -2.27139771 54.47642487 -2.27789307 53.2492218 C-2.2738446 51.97717392 -2.26979614 50.70512604 -2.265625 49.39453125 C-2.26753845 48.07837326 -2.2694519 46.76221527 -2.27142334 45.40617371 C-2.27436191 42.62986522 -2.27011592 39.85368598 -2.26074219 37.07739258 C-2.24931478 33.51969347 -2.25593565 29.96229506 -2.26788712 26.40460682 C-2.27684673 23.00539075 -2.27057765 19.60625586 -2.265625 16.20703125 C-2.26967346 14.92891068 -2.27372192 13.6507901 -2.27789307 12.3339386 C-2.27158875 11.15228622 -2.26528442 9.97063385 -2.25878906 8.75317383 C-2.25719788 7.71203934 -2.25560669 6.67090485 -2.25396729 5.59822083 C-2 3 -2 3 0 0 Z " fill="#FEFBFA" transform="translate(532,628)"/>
<path d="M0 0 C2.47704501 2.47704501 3.04945734 4.75119815 4.12109375 8.02734375 C5.09143119 10.20521222 6.312454 11.35005948 8 13 C8 13.66 8 14.32 8 15 C8.58494736 15.28683907 9.16989471 15.57367813 9.77256775 15.86920929 C11.13333639 16.56002471 12.47995087 17.28102115 13.79689026 18.05211639 C19.19213704 21.09981697 23.65158294 21.57426092 29.77734375 21.51757812 C30.72151154 21.5245874 31.66567932 21.53159668 32.63845825 21.53881836 C35.73844402 21.55632618 38.83750603 21.54480103 41.9375 21.53125 C44.10408706 21.53394698 46.27067293 21.53783111 48.43725586 21.54284668 C52.96968146 21.54873198 57.50179094 21.54020978 62.03417969 21.52148438 C67.83124457 21.49869573 73.62756859 21.51182397 79.42460632 21.53577423 C83.89601174 21.55025823 88.36724277 21.54561422 92.83865356 21.53526306 C94.97559701 21.53260298 97.11255651 21.53584012 99.2494812 21.54518127 C102.24096355 21.55538956 105.23126165 21.53978553 108.22265625 21.51757812 C109.09769806 21.52567505 109.97273987 21.53377197 110.8742981 21.54211426 C118.82415442 21.43329597 125.25784505 18.56938215 131 13 C132.85798276 10.0038231 132.85798276 10.0038231 134.3125 6.75 C134.82425781 5.67234375 135.33601562 4.5946875 135.86328125 3.484375 C136.23839844 2.66453125 136.61351562 1.8446875 137 1 C137.33 1 137.66 1 138 1 C139.28209161 30.57357971 139.28209161 30.57357971 132 39 C124.81264377 46.04865287 118.65274696 48.30088596 108.77856445 48.29052734 C107.85755447 48.29724457 106.93654449 48.30396179 105.98762512 48.31088257 C102.94612207 48.32986191 99.90483982 48.33378716 96.86328125 48.3359375 C94.74203908 48.34236693 92.62079781 48.3490954 90.4995575 48.35610962 C86.05184882 48.36808328 81.6042178 48.37179049 77.15649414 48.37060547 C71.47505251 48.37040261 65.79411296 48.39766999 60.11279011 48.43214989 C55.72968794 48.45446245 51.3467056 48.45844162 46.96355247 48.45738602 C44.87011172 48.45973675 42.77666739 48.46853032 40.68328285 48.48405075 C37.74464138 48.50379273 34.80706935 48.49783977 31.8684082 48.48583984 C31.01454529 48.49707886 30.16068237 48.50831787 29.28094482 48.51989746 C21.18171193 48.4364565 14.00187545 46.21476401 8.0625 40.5625 C0.11933948 31.78027323 -0.2936074 23.46943934 -0.125 12.0625 C-0.11597656 10.90169922 -0.10695313 9.74089844 -0.09765625 8.54492188 C-0.07421162 5.69639892 -0.04139522 2.84830922 0 0 Z " fill="#5198AB" transform="translate(529,689)"/>
<path d="M0 0 C5.53326136 8.29989203 5.26224564 19.59290502 3.3828125 29.1328125 C-0.36091442 40.76155718 -8.3199816 48.50541158 -19 54 C-37.78068684 62.88210318 -56.75380168 62.40024419 -77 62 C-78.83343335 54.5443133 -79.25165491 47.53275043 -79.125 39.875 C-79.11597656 38.823125 -79.10695313 37.77125 -79.09765625 36.6875 C-79.07435853 34.12475122 -79.04165112 31.56250488 -79 29 C-78.41323486 28.96036133 -77.82646973 28.92072266 -77.22192383 28.87988281 C-37.63953981 26.66372117 -37.63953981 26.66372117 -4.5625 7.375 C-2.64821711 5.05168231 -1.27898618 2.72453801 0 0 Z " fill="#4F97AA" transform="translate(746,588)"/>
<path d="M0 0 C0.66 0.99 1.32 1.98 2 3 C13.52198235 17.969002 30.88506103 23.28100496 49 26 C59.30894221 27.24074546 69.65293446 28.14350058 80 29 C80.76595745 50.53191489 80.76595745 50.53191489 76 61 C57.47153631 65.35366006 30.17842546 58.917473 14.03515625 49.21875 C7.82125554 45.01498361 3.41083257 40.70565043 0 34 C-0.33773438 33.33742188 -0.67546875 32.67484375 -1.0234375 31.9921875 C-4.51625229 23.56457016 -4.35215543 12.08362968 -1.5 3.5 C-1.005 2.345 -0.51 1.19 0 0 Z " fill="#4F97AA" transform="translate(449,588)"/>
<path d="M0 0 C9.46926067 5.54461556 21.69996073 12.84559539 27.86376953 22.09130859 C28.20763395 25.32363418 28.12875708 27.46196316 26.86376953 30.46630859 C24.30364131 32.54641278 22.24140073 32.55501733 19.00732422 32.48779297 C15.13422132 31.77140127 12.76320553 29.30661647 9.98876953 26.65380859 C8.86742049 25.63312612 7.74507013 24.61354233 6.62158203 23.59521484 C5.71150391 22.76892578 4.80142578 21.94263672 3.86376953 21.09130859 C-4.97171835 16.67356466 -19.18860558 21.13262133 -28.13623047 24.09130859 C-36.62627204 27.56132558 -42.13264992 32.08534102 -46.82373047 39.90380859 C-48.13623047 42.09130859 -48.13623047 42.09130859 -51.13623047 44.09130859 C-54.15063096 43.90290856 -56.37363204 43.5234477 -59.01123047 42.02880859 C-60.91709009 38.74649481 -60.88944075 35.69416443 -60.13623047 32.09130859 C-54.07704166 18.91716324 -41.32982616 12.14174766 -28.38623047 7.21630859 C-27.31373047 6.84505859 -26.24123047 6.47380859 -25.13623047 6.09130859 C-34.74897249 2.85495457 -44.5468708 1.07414441 -54.13623047 5.09130859 C-57.22589629 4.90592864 -59.35189355 4.56191075 -62.01123047 2.96630859 C-63.83722732 -0.07701949 -63.56083628 -2.45118696 -63.13623047 -5.90869141 C-50.81460779 -23.4433083 -14.24185359 -7.980505 0 0 Z " fill="#385056" transform="translate(167.13623046875,233.90869140625)"/>
<path d="M0 0 C2.75649744 2.06737308 3.78955122 3.08805527 4.5625 6.4375 C3.72101232 10.27094386 2.14799562 11.72272657 -1 14 C-3.34156337 13.73048837 -5.67466515 13.38519266 -8 13 C-10.81396943 12.87630904 -13.62148045 12.90400663 -16.4375 12.9375 C-17.16904297 12.94201172 -17.90058594 12.94652344 -18.65429688 12.95117188 C-20.43623419 12.96281852 -22.21812863 12.98074809 -24 13 C-23.24976563 13.32871094 -22.49953125 13.65742188 -21.7265625 13.99609375 C-11.79737416 18.61054022 -1.17185117 25.29646266 3 36 C3.65633919 39.57769207 3.66771129 42.66457742 2 46 C-1.2563747 47.62818735 -4.44083463 47.53088391 -8 47 C-10.65084697 45.3905572 -11.32311826 43.39833151 -12.8125 40.625 C-17.63368801 32.13899749 -26.12274959 29.12260349 -35 26 C-38.99324044 25.01222306 -42.91098708 24.41074043 -47 24 C-48.19625 23.814375 -49.3925 23.62875 -50.625 23.4375 C-59.10205081 24.8503418 -66.25172698 32.73129982 -72.65234375 38.08203125 C-77.47118266 42.01888633 -77.47118266 42.01888633 -81.5 41.875 C-85 41 -85 41 -87 39.375 C-88.46319736 35.89990626 -87.85482052 33.63687275 -87 30 C-69.14076283 7.71003606 -27.98397434 -12.55413656 0 0 Z " fill="#395057" transform="translate(1079,221)"/>
<path d="M0 0 C45.54 0 91.08 0 138 0 C138 5.94 138 11.88 138 18 C136.02 15.525 136.02 15.525 134 13 C132.22390161 11.22390161 129.85000162 11.87378309 127.48455811 11.86447144 C126.69341614 11.86649567 125.90227417 11.8685199 125.0871582 11.87060547 C124.25784286 11.86885315 123.42852753 11.86710083 122.57408142 11.86529541 C119.81629376 11.86087348 117.05856963 11.8638174 114.30078125 11.8671875 C112.38844287 11.86651424 110.47610457 11.86554402 108.56376648 11.86428833 C104.54616485 11.86281064 100.52858539 11.86496701 96.51098633 11.86962891 C91.36730576 11.87530704 86.22367759 11.87205984 81.07999897 11.86605644 C77.12598784 11.86243634 73.17198904 11.86359642 69.21797752 11.86618423 C67.32220643 11.86685049 65.42643422 11.86603561 63.53066444 11.86370468 C60.8736845 11.86115656 58.2167882 11.86505005 55.55981445 11.87060547 C54.77879364 11.86858124 53.99777283 11.86655701 53.19308472 11.86447144 C49.01556677 11.88059896 45.10287447 12.23602822 41 13 C38.54292438 13.09023351 36.08373096 13.13063056 33.625 13.1328125 C32.59366943 13.13424759 32.59366943 13.13424759 31.54150391 13.13571167 C30.09602771 13.13638847 28.65054839 13.13456929 27.20507812 13.13037109 C25.00644024 13.12501569 22.80800661 13.13033309 20.609375 13.13671875 C19.19791622 13.13605788 17.78645757 13.13477653 16.375 13.1328125 C15.10398437 13.13168457 13.83296875 13.13055664 12.5234375 13.12939453 C9.25558253 13.009386 6.20633635 12.62091937 3 12 C2.34 13.65 1.68 15.3 1 17 C0.67 17 0.34 17 0 17 C0 11.39 0 5.78 0 0 Z " fill="#ACAAA8" transform="translate(529,617)"/>
<path d="M0 0 C0 2.97 0 5.94 0 9 C-1.78810766 9.69670416 -3.58062052 10.38211189 -5.375 11.0625 C-6.37273438 11.44535156 -7.37046875 11.82820313 -8.3984375 12.22265625 C-11 13 -11 13 -13 12 C-11.0238076 9.99698146 -9.04425526 7.99750133 -7.0625 6 C-6.49853516 5.42765625 -5.93457031 4.8553125 -5.35351562 4.265625 C-1.11328125 0 -1.11328125 0 0 0 Z " fill="#7ADFFA" transform="translate(520,499)"/>
<path d="M0 0 C3.26460973 1.80412643 4.88929795 2.83394693 7 6 C4.69 5.34 2.38 4.68 0 4 C0 2.68 0 1.36 0 0 Z " fill="#82DCF4" transform="translate(676,504)"/>
</svg>
