<?xml version="1.0" encoding="UTF-8"?>
<svg version="1.1" xmlns="http://www.w3.org/2000/svg" width="225" height="224">
<path d="M0 0 C74.25 0 148.5 0 225 0 C225 73.92 225 147.84 225 224 C150.75 224 76.5 224 0 224 C0 150.08 0 76.16 0 0 Z " fill="#E1E1E1" transform="translate(0,0)"/>
<path d="M0 0 C11.55 0 23.1 0 35 0 C32.31981988 2.1441441 29.63304097 4.28077306 26.90712643 6.36646461 C15.16207476 15.49449155 1.97161131 25.91481469 -0.50387573 41.35565186 C-1.69767508 51.05028974 -1.32928781 60.84932537 -0.93782496 70.58481932 C-0.77109543 75.47896012 -0.76612777 80.37362831 -0.74134827 85.27017212 C-0.67844832 93.46122104 -0.51558184 101.64476905 -0.27709961 109.83251953 C0.0590211 121.37473507 0.21566404 132.91433928 0.33526051 144.46056056 C0.50411088 159.93935067 0.72563851 175.41999488 1.1484623 190.89411163 C1.19231604 192.55887931 1.23147195 194.22377845 1.26555252 195.88877487 C1.31348117 198.16291603 1.37957722 200.43580596 1.45082092 202.70932007 C1.48442246 203.9800556 1.51802401 205.25079113 1.55264378 206.5600338 C2.30782846 212.36706108 4.60956237 216.33881964 9.23828125 219.96484375 C12.33291138 221.78319626 15.49167612 222.33462823 19 223 C19 220.36 19 217.72 19 215 C17.68 214.67 16.36 214.34 15 214 C15.495 212.02 15.495 212.02 16 210 C16.33 210.99 16.66 211.98 17 213 C19.42383077 214.16953416 19.42383077 214.16953416 22 215 C22.66 215.33 23.32 215.66 24 216 C26.24969267 216.10106532 28.50246963 216.13514022 30.75442505 216.14044189 C31.45694393 216.14341302 32.15946281 216.14638414 32.88327014 216.1494453 C35.24917768 216.15815162 37.61503472 216.15964219 39.98095703 216.16113281 C41.67268482 216.16575976 43.36441157 216.17078426 45.05613708 216.17617798 C49.66178042 216.18931921 54.26740917 216.19575074 58.87306833 216.20018864 C61.75062539 216.20311768 64.62817844 216.20722226 67.50573349 216.21169281 C76.50897139 216.22537469 85.51220016 216.23503694 94.51544774 216.2388947 C104.90747819 216.24337185 115.29937688 216.26090091 125.69136727 216.2898953 C133.72289141 216.31152526 141.75437852 216.32159975 149.78593147 216.32293582 C154.58280426 216.32398326 159.3795533 216.32987775 164.17639542 216.34775543 C168.69242114 216.36425794 173.20823042 216.36638103 177.72427559 216.35761642 C179.37863177 216.35684711 181.03299969 216.3611748 182.68732643 216.37107468 C194.20828972 216.5927389 194.20828972 216.5927389 205 213 C206.97127988 210.71495163 206.97127988 210.71495163 208 208 C208.34796505 207.28041579 208.6959301 206.56083158 209.05443954 205.8194418 C210.24526193 202.26868584 210.27699918 198.96401327 210.25396729 195.26393127 C210.25708727 194.49210115 210.26020725 193.72027102 210.26342177 192.92505211 C210.27138957 190.34261622 210.26508288 187.7604161 210.25878906 185.17797852 C210.26149949 183.32492943 210.26506071 181.47188142 210.26940918 179.61883545 C210.27852994 174.58787053 210.27499002 169.5569876 210.26865101 164.52602124 C210.26358867 159.26107388 210.26828319 153.99613355 210.27142334 148.73118591 C210.27506261 139.88840474 210.27026522 131.04565696 210.26074219 122.20288086 C210.24986108 111.98103868 210.25338088 101.75927631 210.264395 91.53743607 C210.27347297 82.76108637 210.27475055 73.98476069 210.26951766 65.20840782 C210.26640034 59.96678639 210.26598204 54.72520246 210.27259064 49.48358345 C210.27837074 44.55470167 210.27435496 39.62592269 210.26280212 34.697052 C210.26015896 32.88866789 210.26091476 31.08027512 210.26532745 29.27189445 C210.27079797 26.80216387 210.26393049 24.33276205 210.25396729 21.86305237 C210.25842873 21.14855079 210.26289017 20.43404921 210.26748681 19.69789606 C210.23413761 15.43149238 209.557186 11.96929778 208 8 C211.24299151 10.38957269 213.50902342 12.2047869 215 16 C216.423125 15.9690625 216.423125 15.9690625 217.875 15.9375 C221 16 221 16 223 17 C220.72962456 9.9498868 218.42037283 5.87152476 211.6875 2.1875 C210.800625 1.795625 209.91375 1.40375 209 1 C209 0.67 209 0.34 209 0 C214.28 0 219.56 0 225 0 C225 73.92 225 147.84 225 224 C150.75 224 76.5 224 0 224 C0 150.08 0 76.16 0 0 Z " fill="#CBCCCC" transform="translate(0,0)"/>
<path d="M0 0 C11.55 0 23.1 0 35 0 C32.31981988 2.1441441 29.63304097 4.28077306 26.90712643 6.36646461 C15.16207476 15.49449155 1.97161131 25.91481469 -0.50387573 41.35565186 C-1.69767508 51.05028974 -1.32928781 60.84932537 -0.93782496 70.58481932 C-0.77109543 75.47896012 -0.76612777 80.37362831 -0.74134827 85.27017212 C-0.67844832 93.46122104 -0.51558184 101.64476905 -0.27709961 109.83251953 C0.0590211 121.37473507 0.21566404 132.91433928 0.33526051 144.46056056 C0.50411088 159.93935067 0.72563851 175.41999488 1.1484623 190.89411163 C1.19231604 192.55887931 1.23147195 194.22377845 1.26555252 195.88877487 C1.31348117 198.16291603 1.37957722 200.43580596 1.45082092 202.70932007 C1.48442246 203.9800556 1.51802401 205.25079113 1.55264378 206.5600338 C2.20310047 211.56175041 3.9690386 215.6738087 8 218.8125 C12.5887078 222.15843277 16.29561004 222.1467582 21.76130676 222.14044189 C22.95936598 222.14489858 22.95936598 222.14489858 24.18162841 222.1494453 C26.86694574 222.15814013 29.55221852 222.1596412 32.23754883 222.16113281 C34.15926713 222.16576042 36.0809845 222.170785 38.00270081 222.17617798 C43.23003169 222.18930926 48.45734973 222.19574833 53.68469453 222.20018864 C56.9493561 222.20311811 60.21401414 222.20722268 63.47867393 222.21169281 C73.68966748 222.2253695 83.90065299 222.23503538 94.11165506 222.2388947 C105.90507121 222.24337639 117.69837152 222.26092875 129.49175245 222.2898953 C138.603511 222.31149971 147.71523693 222.32159832 156.82702082 222.32293582 C162.27103067 222.32398471 167.71493165 222.32991049 173.15891457 222.34775543 C178.27985141 222.36421468 183.40059729 222.36640202 188.52155113 222.35761642 C190.400893 222.35684491 192.28024505 222.36120383 194.15956116 222.37107468 C196.72584965 222.38376303 199.29145863 222.37793444 201.85774231 222.36749268 C202.60084477 222.37554908 203.34394723 222.38360548 204.10956794 222.39190602 C208.81518555 222.34714936 212.00600438 221.48478005 216 219 C221.75596143 212.98240396 223.30210571 208.30996312 223.26742554 200.12553406 C223.27422221 198.94540425 223.27422221 198.94540425 223.28115618 197.74143344 C223.29380389 195.10840548 223.29217958 192.47558426 223.29052734 189.8425293 C223.29651238 187.95331557 223.30331787 186.0641043 223.31088257 184.17489624 C223.32855277 179.04464042 223.3332384 173.91445131 223.33451414 168.784168 C223.33593578 165.57810316 223.34020563 162.37205528 223.34550858 159.16599464 C223.36401257 147.97857206 223.37217877 136.79119714 223.37060547 125.60375977 C223.36940413 115.17967688 223.39050411 104.75580108 223.4220928 94.3317706 C223.4482558 85.37874271 223.45897274 76.42578245 223.45769465 67.47271663 C223.457185 62.1270128 223.46286972 56.78149297 223.48405075 51.43582726 C223.50343332 46.40672697 223.50355737 41.3779862 223.48901749 36.34887314 C223.48692829 34.50584576 223.4916369 32.66279588 223.5037384 30.81980705 C223.51922166 28.29792343 223.50986312 25.77727473 223.49447632 23.25541687 C223.50476344 22.53117718 223.51505057 21.80693749 223.52564943 21.06075114 C223.45326652 15.66885671 221.93461166 11.53017093 219 7 C217.04459076 5.15306604 217.04459076 5.15306604 214.875 4.125 C212.49235044 2.83926835 210.93753017 1.93753017 209 0 C214.28 0 219.56 0 225 0 C225 73.92 225 147.84 225 224 C150.75 224 76.5 224 0 224 C0 150.08 0 76.16 0 0 Z " fill="#7F7F7F" transform="translate(0,0)"/>
<path d="M0 0 C1.134375 0.020625 2.26875 0.04125 3.4375 0.0625 C4.77082095 2.7291419 4.10852033 4.22930303 3.4375 7.0625 C2.1175 7.0625 0.7975 7.0625 -0.5625 7.0625 C-0.5625 15.6425 -0.5625 24.2225 -0.5625 33.0625 C1.0875 33.0625 2.7375 33.0625 4.4375 33.0625 C4.4375 24.8125 4.4375 16.5625 4.4375 8.0625 C7.9025 7.5675 7.9025 7.5675 11.4375 7.0625 C11.4375 13.3325 11.4375 19.6025 11.4375 26.0625 C9.9525 26.5575 9.9525 26.5575 8.4375 27.0625 C8.4375 26.4025 8.4375 25.7425 8.4375 25.0625 C7.7775 25.0625 7.1175 25.0625 6.4375 25.0625 C6.4375 27.3725 6.4375 29.6825 6.4375 32.0625 C7.9225 32.5575 7.9225 32.5575 9.4375 33.0625 C8.9425 31.0825 8.9425 31.0825 8.4375 29.0625 C9.0975 29.0625 9.7575 29.0625 10.4375 29.0625 C11.6670082 33.48872951 11.6670082 33.48872951 10.5625 36.25 C10.005625 37.1471875 10.005625 37.1471875 9.4375 38.0625 C8.9425 39.0525 8.9425 39.0525 8.4375 40.0625 C-4.4325 40.0625 -17.3025 40.0625 -30.5625 40.0625 C-31.2225 38.7425 -31.8825 37.4225 -32.5625 36.0625 C-32.8925 37.3825 -33.2225 38.7025 -33.5625 40.0625 C-42.4725 40.0625 -51.3825 40.0625 -60.5625 40.0625 C-60.5625 31.8125 -60.5625 23.5625 -60.5625 15.0625 C-60.2325 15.0625 -59.9025 15.0625 -59.5625 15.0625 C-59.2325 20.6725 -58.9025 26.2825 -58.5625 32.0625 C-56.9125 32.3925 -55.2625 32.7225 -53.5625 33.0625 C-53.5625 27.4525 -53.5625 21.8425 -53.5625 16.0625 C-52.9025 16.3925 -52.2425 16.7225 -51.5625 17.0625 C-51.5625 22.3425 -51.5625 27.6225 -51.5625 33.0625 C-49.9125 33.0625 -48.2625 33.0625 -46.5625 33.0625 C-46.61470703 31.79792969 -46.61470703 31.79792969 -46.66796875 30.5078125 C-46.69503906 29.41210938 -46.72210938 28.31640625 -46.75 27.1875 C-46.78480469 26.09695312 -46.81960937 25.00640625 -46.85546875 23.8828125 C-46.75878906 22.95210937 -46.66210938 22.02140625 -46.5625 21.0625 C-43.5625 19.0625 -43.5625 19.0625 -41.4375 19.375 C-39.5625 20.0625 -39.5625 20.0625 -38.5625 21.0625 C-38.49005947 23.08214199 -38.47872812 25.10417124 -38.5 27.125 C-38.50902344 28.22972656 -38.51804687 29.33445312 -38.52734375 30.47265625 C-38.53894531 31.32730469 -38.55054687 32.18195312 -38.5625 33.0625 C-36.9125 33.0625 -35.2625 33.0625 -33.5625 33.0625 C-33.62251504 30.79093079 -33.71129968 28.52010726 -33.8125 26.25 C-33.85890625 24.98542969 -33.9053125 23.72085938 -33.953125 22.41796875 C-34.25032163 19.03566456 -34.25032163 19.03566456 -36.40625 17.125 C-39.22623995 15.73543973 -41.46213985 15.85111181 -44.5625 16.0625 C-44.5625 13.0625 -44.5625 13.0625 -43.5625 12.0625 C-45.5425 11.4025 -47.5225 10.7425 -49.5625 10.0625 C-49.5625 9.7325 -49.5625 9.4025 -49.5625 9.0625 C-45.56454108 8.10630267 -41.85446078 7.9585408 -37.75 8 C-36.58855469 8.00902344 -35.42710938 8.01804687 -34.23046875 8.02734375 C-33.35003906 8.03894531 -32.46960938 8.05054688 -31.5625 8.0625 C-31.54268066 8.64741211 -31.52286133 9.23232422 -31.50244141 9.83496094 C-31.40696519 12.49458025 -31.29737858 15.15343838 -31.1875 17.8125 C-31.1565625 18.73289062 -31.125625 19.65328125 -31.09375 20.6015625 C-31.05507813 21.49101563 -31.01640625 22.38046875 -30.9765625 23.296875 C-30.92943115 24.52229004 -30.92943115 24.52229004 -30.88134766 25.77246094 C-30.52999754 28.29594034 -29.9788533 29.94417953 -28.5625 32.0625 C-25.50341587 32.87834568 -25.50341587 32.87834568 -22.5625 33.0625 C-22.8925 31.4125 -23.2225 29.7625 -23.5625 28.0625 C-21.06888429 29.26631448 -18.88106917 30.51678722 -16.5625 32.0625 C-14.60870501 32.34035432 -14.60870501 32.34035432 -12.5625 32.25 C-11.5415625 32.24033203 -11.5415625 32.24033203 -10.5 32.23046875 C-8.34491791 32.11947746 -8.34491791 32.11947746 -5.5625 31.0625 C-5.2325 30.4025 -4.9025 29.7425 -4.5625 29.0625 C-5.71878906 29.11470703 -5.71878906 29.11470703 -6.8984375 29.16796875 C-7.90132812 29.19503906 -8.90421875 29.22210938 -9.9375 29.25 C-11.43410156 29.30220703 -11.43410156 29.30220703 -12.9609375 29.35546875 C-13.81945312 29.25878906 -14.67796875 29.16210938 -15.5625 29.0625 C-16.2225 28.0725 -16.8825 27.0825 -17.5625 26.0625 C-12.9425 26.0625 -8.3225 26.0625 -3.5625 26.0625 C-4.2225 23.0925 -4.8825 20.1225 -5.5625 17.0625 C-7.16570974 16.86698662 -8.77012986 16.68138017 -10.375 16.5 C-11.26832031 16.39558594 -12.16164062 16.29117188 -13.08203125 16.18359375 C-15.69625572 15.90591291 -15.69625572 15.90591291 -18.5625 17.0625 C-18.5625 16.4025 -18.5625 15.7425 -18.5625 15.0625 C-19.2225 15.0625 -19.8825 15.0625 -20.5625 15.0625 C-21.0575 14.0725 -21.0575 14.0725 -21.5625 13.0625 C-22.2225 13.3925 -22.8825 13.7225 -23.5625 14.0625 C-23.5625 12.4125 -23.5625 10.7625 -23.5625 9.0625 C-21.9125 8.7325 -20.2625 8.4025 -18.5625 8.0625 C-18.5625 9.0525 -18.5625 10.0425 -18.5625 11.0625 C-17.5725 11.0625 -16.5825 11.0625 -15.5625 11.0625 C-15.5625 10.0725 -15.5625 9.0825 -15.5625 8.0625 C-10.1175 8.5575 -10.1175 8.5575 -4.5625 9.0625 C-4.583125 7.763125 -4.60375 6.46375 -4.625 5.125 C-4.64649454 3.77084367 -4.63398199 2.41493917 -4.5625 1.0625 C-3.5625 0.0625 -3.5625 0.0625 0 0 Z " fill="#F1F3F2" transform="translate(84.5625,23.9375)"/>
<path d="M0 0 C0.33 0 0.66 0 1 0 C1.04669884 24.29540904 1.08197847 48.59081136 1.10362434 72.88625622 C1.11394156 84.16678047 1.12801042 95.44727684 1.15087891 106.7277832 C1.17079913 116.55865396 1.1837132 126.38950453 1.18817699 136.22039491 C1.19078668 141.4268594 1.19692989 146.63326614 1.21146011 151.83971214 C1.22502239 156.73896019 1.22922537 161.63812663 1.22621536 166.53739166 C1.22676613 168.33652248 1.23075162 170.13565599 1.23841095 171.93477058 C1.24835098 174.3897757 1.24597233 176.8444721 1.24050903 179.29948425 C1.24633472 180.01252738 1.2521604 180.7255705 1.25816262 181.46022099 C1.23448972 185.39183657 0.88292331 188.51388864 -1 192 C-3.125 192.8125 -3.125 192.8125 -5 193 C-5.33 194.65 -5.66 196.3 -6 198 C-7.32 198 -8.64 198 -10 198 C-10 198.66 -10 199.32 -10 200 C-14.45763139 201.71108388 -18.11625146 202.24248773 -22.88031006 202.21600342 C-23.54808354 202.21503985 -24.21585701 202.21407628 -24.90386605 202.21308351 C-27.12844811 202.20737686 -29.35265448 202.18720306 -31.57714844 202.16699219 C-33.17754771 202.15983519 -34.77795107 202.1535455 -36.37835693 202.14805603 C-40.71746876 202.13045572 -45.0564027 202.10001107 -49.39541912 202.06672192 C-53.94442465 202.03345545 -58.49348351 202.01022484 -63.0425415 201.9854126 C-70.6856477 201.94206623 -78.32866176 201.89020565 -85.97167969 201.83349609 C-94.79090903 201.76818141 -103.61013491 201.71711023 -112.42949653 201.67355418 C-120.92873234 201.63117625 -129.42786726 201.57782192 -137.92700958 201.51981354 C-141.53598253 201.49542006 -145.14494539 201.4749721 -148.75395966 201.45778656 C-153.01235107 201.43706984 -157.27057138 201.40673518 -161.52884674 201.36920357 C-163.08558418 201.35700763 -164.64235118 201.34805289 -166.1991272 201.34270287 C-186.59897791 201.26734806 -186.59897791 201.26734806 -193 197 C-193 196.34 -193 195.68 -193 195 C-194.32 194.67 -195.64 194.34 -197 194 C-196.505 192.02 -196.505 192.02 -196 190 C-195.67 190.99 -195.34 191.98 -195 193 C-192.57616923 194.16953416 -192.57616923 194.16953416 -190 195 C-189.34 195.33 -188.68 195.66 -188 196 C-185.75030733 196.10106532 -183.49753037 196.13514022 -181.24557495 196.14044189 C-180.54305607 196.14341302 -179.84053719 196.14638414 -179.11672986 196.1494453 C-176.75082232 196.15815162 -174.38496528 196.15964219 -172.01904297 196.16113281 C-170.32731518 196.16575976 -168.63558843 196.17078426 -166.94386292 196.17617798 C-162.33821958 196.18931921 -157.73259083 196.19575074 -153.12693167 196.20018864 C-150.24937461 196.20311768 -147.37182156 196.20722226 -144.49426651 196.21169281 C-135.49102861 196.22537469 -126.48779984 196.23503694 -117.48455226 196.2388947 C-107.09252181 196.24337185 -96.70062312 196.26090091 -86.30863273 196.2898953 C-78.27710859 196.31152526 -70.24562148 196.32159975 -62.21406853 196.32293582 C-57.41719574 196.32398326 -52.6204467 196.32987775 -47.82360458 196.34775543 C-43.30757886 196.36425794 -38.79176958 196.36638103 -34.27572441 196.35761642 C-32.62136823 196.35684711 -30.96700031 196.3611748 -29.31267357 196.37107468 C-17.7938116 196.58828906 -17.7938116 196.58828906 -7 193 C-5.06521129 190.80329738 -5.06521129 190.80329738 -4 188 C-3.23309735 186.42105029 -3.23309735 186.42105029 -2.45070171 184.8102026 C-0.82553103 180.99442599 -0.57212859 177.3982464 -0.60127258 173.28675842 C-0.59130234 172.1691025 -0.59130234 172.1691025 -0.58113068 171.02886766 C-0.56257923 168.54913284 -0.5651006 166.06988388 -0.56762695 163.59008789 C-0.55860498 161.80581993 -0.54827669 160.02155818 -0.53674316 158.23730469 C-0.5091982 153.40521224 -0.49989203 148.57323748 -0.49388909 143.74107671 C-0.48449894 138.68682915 -0.458295 133.63266926 -0.43388367 128.57847595 C-0.39023268 119.01287371 -0.36167708 109.44728851 -0.33856028 99.88161701 C-0.31150114 88.98922931 -0.26759004 78.09692987 -0.22227156 67.20460522 C-0.12944533 44.80311802 -0.05775529 22.40160314 0 0 Z " fill="#A4A4A4" transform="translate(212,20)"/>
<path d="M0 0 C0.33 0 0.66 0 1 0 C1.09357552 15.37743824 1.16404384 30.75486331 1.20724869 46.13252258 C1.22784561 53.27317847 1.25591085 60.41365712 1.30175781 67.55419922 C1.34171403 73.78025752 1.36745368 80.00618741 1.37635398 86.23237038 C1.38155404 89.52704457 1.39583525 92.82126734 1.42292023 96.11584473 C1.45200134 99.80010662 1.45595384 103.48361035 1.45410156 107.16796875 C1.46848267 108.25194443 1.48286377 109.3359201 1.49768066 110.45274353 C1.45708289 117.92663676 0.27566111 123.28758408 -4.81640625 129.05859375 C-5.39261719 129.51363281 -5.96882812 129.96867188 -6.5625 130.4375 C-7.14128906 130.91058594 -7.72007812 131.38367188 -8.31640625 131.87109375 C-12.17875634 134.46092942 -16.15850065 134.13791704 -20.61186218 134.12025452 C-21.39438396 134.12110894 -22.17690573 134.12196337 -22.98314029 134.12284368 C-25.61337635 134.12449488 -28.24354908 134.11898298 -30.8737793 134.11352539 C-32.75597126 134.11324342 -34.63816333 134.11340146 -36.52035522 134.1139679 C-41.63779255 134.11425547 -46.75520657 134.10836522 -51.87263846 134.10139394 C-57.21781023 134.09515371 -62.5629825 134.09455607 -67.90815735 134.09336853 C-78.03348766 134.0902572 -88.15880721 134.08204646 -98.28413278 134.07201904 C-109.80997919 134.06085178 -121.3358261 134.05534591 -132.86167657 134.05032361 C-156.57445702 134.03986369 -180.28722791 134.02226806 -204 134 C-203.67 132.02 -203.34 130.04 -203 128 C-202.32310812 128.21136219 -201.64621624 128.42272438 -200.94881248 128.64049149 C-192.16592604 131.13405806 -183.72985335 131.44906666 -174.67822266 131.44824219 C-173.07043603 131.45891908 -171.46265746 131.47087277 -169.85488892 131.48399353 C-165.5247491 131.51562553 -161.19472806 131.52919337 -156.86449099 131.53904247 C-152.31889719 131.55222686 -147.77340295 131.58135622 -143.22787476 131.60845947 C-135.60392287 131.65163382 -127.97999015 131.68380916 -120.35595703 131.70849609 C-110.57716428 131.74022206 -100.798557 131.7904611 -91.01987648 131.84641647 C-82.59437677 131.89445467 -74.16883943 131.93374287 -65.74328947 131.97177219 C-63.04209726 131.98436086 -60.34091362 131.99820056 -57.63972855 132.01222992 C-53.39614828 132.03373603 -49.1525802 132.04976827 -44.90896225 132.06158638 C-43.35373514 132.06668562 -41.79851256 132.07351113 -40.24330139 132.08220482 C-38.11780167 132.09375724 -35.99237786 132.09892966 -33.86685181 132.10247803 C-32.08443809 132.10907755 -32.08443809 132.10907755 -30.26601601 132.11581039 C-27.09105247 132.00322865 -24.116686 131.59840049 -21 131 C-21 130.34 -21 129.68 -21 129 C-19.68 128.67 -18.36 128.34 -17 128 C-16.67 126.68 -16.34 125.36 -16 124 C-14.68 123.67 -13.36 123.34 -12 123 C-11.67 121.35 -11.34 119.7 -11 118 C-8.36 118 -5.72 118 -3 118 C-1.22965643 114.93810973 -0.74480473 112.71378282 -0.7215271 109.19110107 C-0.71036362 108.22638885 -0.69920013 107.26167664 -0.68769836 106.26773071 C-0.68445808 104.69032608 -0.68445808 104.69032608 -0.68115234 103.08105469 C-0.67110672 101.96856354 -0.6610611 100.85607239 -0.65071106 99.70986938 C-0.6198058 96.03054321 -0.60282329 92.35129004 -0.5859375 88.671875 C-0.56723179 86.12167733 -0.54765883 83.57148589 -0.5272522 81.02130127 C-0.48111543 74.99366126 -0.44372985 68.96602833 -0.41057932 62.938308 C-0.37234492 56.07492609 -0.32293824 49.21163881 -0.27259517 42.3483367 C-0.16930265 28.23229467 -0.08003356 14.11619168 0 0 Z " fill="#BBBBBB" transform="translate(223,89)"/>
<path d="M0 0 C3.196875 -0.061875 6.39375 -0.12375 9.6875 -0.1875 C11.18543091 -0.22846802 11.18543091 -0.22846802 12.71362305 -0.27026367 C17.64022382 -0.31642729 21.03086436 -0.25575371 25 3 C25.5878125 3.46792969 26.175625 3.93585938 26.78125 4.41796875 C28.81148025 7.05336379 28.52688359 9.48851805 28.421875 12.70703125 C27.69700311 16.64684423 25.9448656 18.32284945 23 21 C19.48770482 22.30927075 15.96026665 22.09960267 12.25 22.0625 C11.07953125 22.05347656 9.9090625 22.04445313 8.703125 22.03515625 C7.81109375 22.02355469 6.9190625 22.01195313 6 22 C6 25.96 6 29.92 6 34 C4.02 34 2.04 34 0 34 C0 22.78 0 11.56 0 0 Z " fill="#052355" transform="translate(79,99)"/>
<path d="M0 0 C11.55 0 23.1 0 35 0 C33.35 1.32 31.7 2.64 30 4 C28.94621653 4.97272395 27.90870306 5.96358361 26.89379883 6.97680664 C26.34005081 7.5274025 25.7863028 8.07799835 25.21577454 8.64527893 C24.63538925 9.22768845 24.05500397 9.81009796 23.45703125 10.41015625 C22.84736008 11.0188707 22.2376889 11.62758514 21.60954285 12.25474548 C20.32839126 13.53521959 19.04848952 14.8169453 17.76977539 16.09985352 C15.81183038 18.06317146 13.8485846 20.02107508 11.88476562 21.97851562 C10.63769991 23.22624183 9.39094427 24.47427804 8.14453125 25.72265625 C7.26484428 26.59930687 7.26484428 26.59930687 6.36738586 27.4936676 C3.97304127 29.90187859 1.889773 32.1653405 0 35 C0 23.45 0 11.9 0 0 Z " fill="#044A86" transform="translate(0,0)"/>
<path d="M0 0 C2 2 2 2 2 5 C0.02 5.99 0.02 5.99 -2 7 C-2.61875 6.34 -3.2375 5.68 -3.875 5 C-8.21569465 2.22195543 -11.96987401 2.01710182 -17 3 C-19.82424288 5.19022918 -21.41508603 6.83017207 -23 10 C-23.39771327 14.77255923 -23.47453429 17.08482672 -21.25 21.375 C-18.2246387 24.90458818 -16.64991187 25.82447746 -12.0625 26.3125 C-8.51448601 25.95045776 -6.77161763 25.23269198 -4 23 C-3.34 21.35 -2.68 19.7 -2 18 C-5.63 18 -9.26 18 -13 18 C-13 16.35 -13 14.7 -13 13 C-7.39 13 -1.78 13 4 13 C4 23.74637681 4 23.74637681 -1 29 C-5.65203465 31.90995473 -10.5796885 32.59130671 -16 32 C-22.0067512 30.03227116 -26.03292815 27.27845308 -29.3125 21.8125 C-30.65683561 16.31294524 -30.69965976 11.06010929 -28.875 5.6875 C-21.2158392 -5.29063047 -11.09018185 -6.18881839 0 0 Z " fill="#082456" transform="translate(140,102)"/>
<path d="M0 0 C0.69676718 -0.00085442 1.39353435 -0.00170885 2.11141568 -0.00258917 C4.45144441 -0.00423926 6.79140181 0.00126972 9.13142395 0.00672913 C10.80672199 0.00701113 12.48202015 0.00685301 14.15731812 0.00628662 C18.71072504 0.00599914 23.26410574 0.01188789 27.81750655 0.01886058 C32.57410662 0.02510235 37.33070726 0.02569857 42.08731079 0.02688599 C51.09703878 0.02999687 60.10675466 0.03820699 69.11647731 0.04823548 C79.37269834 0.05940415 89.62891995 0.06490897 99.88514555 0.06993091 C120.98523013 0.08038979 142.08530382 0.09798455 163.18537903 0.12025452 C162.81037903 2.05775452 162.81037903 2.05775452 162.18537903 4.12025452 C161.52537903 4.45025452 160.86537903 4.78025452 160.18537903 5.12025452 C158.83872681 4.66384095 158.83872681 4.66384095 157.4648695 4.1982069 C153.99785297 3.05861562 151.35089248 2.87123357 147.71353149 2.87301636 C146.43066757 2.86882187 145.14780365 2.86462738 143.82606506 2.86030579 C142.41694564 2.8657883 141.00782699 2.87147125 139.59870911 2.87733459 C138.1051729 2.87626091 136.61163711 2.87432095 135.11810303 2.87158203 C131.07288999 2.86674555 127.0277877 2.87437354 122.98258805 2.88453507 C118.74791484 2.89333167 114.51324494 2.89155784 110.27856445 2.89117432 C103.17106782 2.89211 96.06361395 2.90078257 88.95613098 2.91444397 C80.73541973 2.93018658 72.51475525 2.93544139 64.29403001 2.93470842 C56.38536162 2.93409847 48.47670847 2.93919967 40.56804466 2.94750023 C37.2016812 2.95103319 33.83532313 2.95286349 30.4689579 2.95339394 C26.50860821 2.95439716 22.5482979 2.96049212 18.5879612 2.97056007 C17.13307944 2.97348474 15.67819315 2.97471051 14.22330856 2.97413254 C12.24096 2.97364296 10.25861316 2.97990756 8.27627563 2.98654175 C7.16593366 2.98821759 6.05559168 2.98989344 4.91160297 2.99162006 C2.09045189 3.00125062 2.09045189 3.00125062 -0.81462097 4.12025452 C-1.54785893 6.1353381 -1.54785893 6.1353381 -1.81462097 8.12025452 C-2.39212097 8.14087952 -2.96962097 8.16150452 -3.56462097 8.18275452 C-7.19852218 9.69688002 -8.06312514 12.67981627 -9.81462097 16.12025452 C-10.80462097 15.79025452 -11.79462097 15.46025452 -12.81462097 15.12025452 C-12.81462097 14.46025452 -12.81462097 13.80025452 -12.81462097 13.12025452 C-14.13462097 12.79025452 -15.45462097 12.46025452 -16.81462097 12.12025452 C-16.48462097 11.46025452 -16.15462097 10.80025452 -15.81462097 10.12025452 C-15.15462097 10.45025452 -14.49462097 10.78025452 -13.81462097 11.12025452 C-13.81462097 10.46025452 -13.81462097 9.80025452 -13.81462097 9.12025452 C-14.47462097 9.12025452 -15.13462097 9.12025452 -15.81462097 9.12025452 C-14.36998144 5.74942894 -12.56798972 3.5398816 -9.81462097 1.12025452 C-6.34489496 -0.03632082 -3.66202259 -0.00269862 0 0 Z M-14.81462097 15.12025452 C-13.82462097 15.61525452 -13.82462097 15.61525452 -12.81462097 16.12025452 C-13.80462097 16.61525452 -13.80462097 16.61525452 -14.81462097 17.12025452 C-14.81462097 16.46025452 -14.81462097 15.80025452 -14.81462097 15.12025452 Z " fill="#E9E9E9" transform="translate(41.81462097167969,-0.1202545166015625)"/>
<path d="M0 0 C2.12438339 -0.08078641 4.2496323 -0.13909141 6.375 -0.1875 C7.55835938 -0.22230469 8.74171875 -0.25710937 9.9609375 -0.29296875 C11.46527344 -0.14794922 11.46527344 -0.14794922 13 0 C13.66 0.99 14.32 1.98 15 3 C15.99 3.33 16.98 3.66 18 4 C16.68 4.33 15.36 4.66 14 5 C14.33 5.66 14.66 6.32 15 7 C16.11375 7.144375 17.2275 7.28875 18.375 7.4375 C22 8 22 8 23.71484375 9.0859375 C25.70435611 12.04904102 25.28413897 14.67628414 25.1875 18.1875 C25.16042969 19.45980469 25.13335937 20.73210938 25.10546875 22.04296875 C25.07066406 23.01878906 25.03585938 23.99460937 25 25 C23.35 25 21.7 25 20 25 C19.67 21.04 19.34 17.08 19 13 C15.25308553 11.60229416 15.25308553 11.60229416 13 13 C12.53101037 15.8159849 12.53101037 15.8159849 12.375 19.0625 C12.30023438 20.16722656 12.22546875 21.27195312 12.1484375 22.41015625 C12.09945312 23.26480469 12.05046875 24.11945312 12 25 C10.35 25 8.7 25 7 25 C6.67 19.72 6.34 14.44 6 9 C5.67 14.28 5.34 19.56 5 25 C3.35 25 1.7 25 0 25 C-2.18106603 22.81893397 -1.51329642 18.09364237 -1.6875 15.0625 C-1.74744141 14.22525391 -1.80738281 13.38800781 -1.86914062 12.52539062 C-1.91619141 11.72423828 -1.96324219 10.92308594 -2.01171875 10.09765625 C-2.05772217 9.36039307 -2.10372559 8.62312988 -2.15112305 7.86352539 C-2 6 -2 6 0 4 C0 2.68 0 1.36 0 0 Z " fill="#E2E8EF" transform="translate(26,32)"/>
<path d="M0 0 C2.31 0 4.62 0 7 0 C8.6784708 3.71431569 10.3505806 7.43142459 12.01708984 11.15112305 C12.58374811 12.41360671 13.15207654 13.67534221 13.72216797 14.9362793 C14.54583641 16.75888012 15.3628165 18.58449877 16.1796875 20.41015625 C16.67194824 21.50465088 17.16420898 22.59914551 17.67138672 23.72680664 C19.05293736 27.13041734 20.05437055 30.45487049 21 34 C18.69 34 16.38 34 14 34 C13.01 31.36 12.02 28.72 11 26 C7.7 25.67 4.4 25.34 1 25 C1 24.67 1 24.34 1 24 C3.97 24 6.94 24 10 24 C10 23.34 10 22.68 10 22 C5.38 22.33 0.76 22.66 -4 23 C-2 21 -2 21 0.6015625 20.8046875 C3.40104167 20.86979167 6.20052083 20.93489583 9 21 C7.35 17.04 5.7 13.08 4 9 C1.51275097 12.31633204 -0.23109915 15.29373156 -2 19 C-3.32 19 -4.64 19 -6 19 C-6.33 20.98 -6.66 22.96 -7 25 C-6.34 25 -5.68 25 -5 25 C-5.55728913 28.34373475 -6.35173889 31.03312999 -8 34 C-9.98 34 -11.96 34 -14 34 C-11.63517299 26.38896973 -8.5641079 19.20851483 -5.3125 11.9375 C-4.80138672 10.78572266 -4.29027344 9.63394531 -3.76367188 8.44726562 C-2.51278694 5.62985188 -1.25815677 2.81417202 0 0 Z " fill="#082556" transform="translate(159,99)"/>
<path d="M0 0 C5.28 0 10.56 0 16 0 C16 73.92 16 147.84 16 224 C10.39 224 4.78 224 -1 224 C1 222 1 222 3.8125 220.75 C9.09344406 217.85065816 12.21443127 213.70027975 14 208 C14.18976703 205.33936663 14.27869323 202.78467905 14.26742554 200.12553406 C14.27195665 199.33878085 14.27648776 198.55202765 14.28115618 197.74143344 C14.29380389 195.10840548 14.29217958 192.47558426 14.29052734 189.8425293 C14.29651238 187.95331557 14.30331787 186.0641043 14.31088257 184.17489624 C14.32855277 179.04464042 14.3332384 173.91445131 14.33451414 168.784168 C14.33593578 165.57810316 14.34020563 162.37205528 14.34550858 159.16599464 C14.36401257 147.97857206 14.37217877 136.79119714 14.37060547 125.60375977 C14.36940413 115.17967688 14.39050411 104.75580108 14.4220928 94.3317706 C14.4482558 85.37874271 14.45897274 76.42578245 14.45769465 67.47271663 C14.457185 62.1270128 14.46286972 56.78149297 14.48405075 51.43582726 C14.50343332 46.40672697 14.50355737 41.3779862 14.48901749 36.34887314 C14.48692829 34.50584576 14.4916369 32.66279588 14.5037384 30.81980705 C14.51922166 28.29792343 14.50986312 25.77727473 14.49447632 23.25541687 C14.50476344 22.53117718 14.51505057 21.80693749 14.52564943 21.06075114 C14.45326652 15.66885671 12.93461166 11.53017093 10 7 C8.04459076 5.15306604 8.04459076 5.15306604 5.875 4.125 C3.49235044 2.83926835 1.93753017 1.93753017 0 0 Z " fill="#000000" transform="translate(209,0)"/>
<path d="M0 0 C8.25 0 16.5 0 25 0 C25 1.65 25 3.3 25 5 C18.73 5 12.46 5 6 5 C6 8.3 6 11.6 6 15 C11.61 15 17.22 15 23 15 C23 16.65 23 18.3 23 20 C17.39 20 11.78 20 6 20 C6 24.62 6 29.24 6 34 C4.02 34 2.04 34 0 34 C0 22.78 0 11.56 0 0 Z " fill="#052A5B" transform="translate(50,99)"/>
<path d="M0 0 C1.65 0.33 3.3 0.66 5 1 C5 1.99 5 2.98 5 4 C11.27 4 17.54 4 24 4 C24 4.33 24 4.66 24 5 C18.39 5 12.78 5 7 5 C7 6.65 7 8.3 7 10 C10.63 10 14.26 10 18 10 C17 15 17 15 14.3125 17.3125 C10.67993897 19.16304996 8.99878815 19.66646469 5 19 C0.68544202 16.71582225 -2.13452098 14.56005984 -4 10 C-4.22805455 7.27854899 -4.13934685 4.740488 -4 2 C-3.01 2 -2.02 2 -1 2 C-0.67 1.34 -0.34 0.68 0 0 Z " fill="#D9DCDF" transform="translate(120,110)"/>
<path d="M0 0 C2.5 1.6875 2.5 1.6875 4 4 C4 5.98 4 7.96 4 10 C-2.435 10.495 -2.435 10.495 -9 11 C-8.00022962 12.2279807 -8.00022962 12.2279807 -6.00390625 12.0625 C-4.37890454 12.02089996 -2.75390453 11.9792335 -1.12890625 11.9375 C1 12 1 12 3 13 C2.67 13.99 2.34 14.98 2 16 C-2.55470082 17.51823361 -6.95756539 17.78555177 -11.4375 16.0625 C-13.97329433 12.71525148 -14.32648324 9.1354544 -14 5 C-10.2966384 -1.12970195 -6.73899252 -1.70472538 0 0 Z " fill="#1B70B3" transform="translate(77,40)"/>
<path d="M0 0 C1.134375 0.020625 2.26875 0.04125 3.4375 0.0625 C4.77082095 2.7291419 4.10852033 4.22930303 3.4375 7.0625 C1.7875 7.0625 0.1375 7.0625 -1.5625 7.0625 C-1.5625 13.6625 -1.5625 20.2625 -1.5625 27.0625 C-1.8925 27.0625 -2.2225 27.0625 -2.5625 27.0625 C-3.0265625 25.4228125 -3.0265625 25.4228125 -3.5 23.75 C-4.14587897 21.50842006 -4.8248117 19.2755649 -5.5625 17.0625 C-7.16570974 16.86698662 -8.77012986 16.68138017 -10.375 16.5 C-11.26832031 16.39558594 -12.16164063 16.29117188 -13.08203125 16.18359375 C-15.69625572 15.90591291 -15.69625572 15.90591291 -18.5625 17.0625 C-18.5625 16.4025 -18.5625 15.7425 -18.5625 15.0625 C-19.2225 15.0625 -19.8825 15.0625 -20.5625 15.0625 C-20.8925 14.4025 -21.2225 13.7425 -21.5625 13.0625 C-22.5525 13.5575 -22.5525 13.5575 -23.5625 14.0625 C-23.5625 12.4125 -23.5625 10.7625 -23.5625 9.0625 C-21.9125 8.7325 -20.2625 8.4025 -18.5625 8.0625 C-18.5625 9.0525 -18.5625 10.0425 -18.5625 11.0625 C-17.5725 11.0625 -16.5825 11.0625 -15.5625 11.0625 C-15.5625 10.0725 -15.5625 9.0825 -15.5625 8.0625 C-11.9325 8.3925 -8.3025 8.7225 -4.5625 9.0625 C-4.583125 7.763125 -4.60375 6.46375 -4.625 5.125 C-4.64649454 3.77084367 -4.63398199 2.41493917 -4.5625 1.0625 C-3.5625 0.0625 -3.5625 0.0625 0 0 Z " fill="#F4F6F4" transform="translate(84.5625,23.9375)"/>
<path d="M0 0 C2.64 0 5.28 0 8 0 C8.33 0.99 8.66 1.98 9 3 C9.66 3.33 10.32 3.66 11 4 C4.73 10.27 -1.54 16.54 -8 23 C-10.4837537 20.5162463 -10.32803116 19.43222478 -10.5625 16 C-10.77217523 12.36281225 -10.77217523 12.36281225 -12 9 C-6.06 8.505 -6.06 8.505 0 8 C0 5.36 0 2.72 0 0 Z " fill="#074C86" transform="translate(16,3)"/>
<path d="M0 0 C5.9509721 0.32459848 5.9509721 0.32459848 8.7109375 2.1015625 C10.71361182 5.0509556 10.28397156 7.68236678 10.1875 11.1875 C10.16042969 12.45980469 10.13335937 13.73210938 10.10546875 15.04296875 C10.07066406 16.01878906 10.03585938 16.99460937 10 18 C8.35 18 6.7 18 5 18 C4.67 14.04 4.34 10.08 4 6 C0.25308553 4.60229416 0.25308553 4.60229416 -2 6 C-2.46898963 8.8159849 -2.46898963 8.8159849 -2.625 12.0625 C-2.69976562 13.16722656 -2.77453125 14.27195312 -2.8515625 15.41015625 C-2.90054688 16.26480469 -2.94953125 17.11945312 -3 18 C-4.32 18 -5.64 18 -7 18 C-7 12.39 -7 6.78 -7 1 C-4.525 1.495 -4.525 1.495 -2 2 C-1.34 1.34 -0.68 0.68 0 0 Z " fill="#176BB2" transform="translate(41,39)"/>
<path d="M0 0 C1.8975 -0.061875 3.795 -0.12375 5.75 -0.1875 C7.35101563 -0.23970703 7.35101563 -0.23970703 8.984375 -0.29296875 C12.33799392 0.0328362 13.66154555 0.61143581 16 3 C16.5 6 16.5 6 16 9 C13.66154555 11.38856419 12.33799392 11.9671638 8.984375 12.29296875 C7.91703125 12.25816406 6.8496875 12.22335938 5.75 12.1875 C2.90375 12.0946875 2.90375 12.0946875 0 12 C0 8.04 0 4.08 0 0 Z " fill="#D7D8DC" transform="translate(85,104)"/>
<path d="M0 0 C0.33 0 0.66 0 1 0 C1 8.58 1 17.16 1 26 C2.32 26.33 3.64 26.66 5 27 C4.030625 26.979375 3.06125 26.95875 2.0625 26.9375 C-0.87465895 26.64381501 -0.87465895 26.64381501 -2 28 C0.31 28.33 2.62 28.66 5 29 C5 29.33 5 29.66 5 30 C-1.6 29.67 -8.2 29.34 -15 29 C-15.33 29.99 -15.66 30.98 -16 32 C-16.33 31.34 -16.66 30.68 -17 30 C-19.02463255 29.34786708 -19.02463255 29.34786708 -21 29 C-19.35 29 -17.7 29 -16 29 C-15.67 27.68 -15.34 26.36 -15 25 C-12.02148438 25.04882812 -12.02148438 25.04882812 -9.04296875 25.09765625 C-6.79694539 25.08263217 -6.79694539 25.08263217 -4 24 C-3.67 23.34 -3.34 22.68 -3 22 C-4.15628906 22.05220703 -4.15628906 22.05220703 -5.3359375 22.10546875 C-6.33882812 22.13253906 -7.34171875 22.15960938 -8.375 22.1875 C-9.87160156 22.23970703 -9.87160156 22.23970703 -11.3984375 22.29296875 C-12.25695312 22.19628906 -13.11546875 22.09960938 -14 22 C-14.66 21.01 -15.32 20.02 -16 19 C-11.38 19 -6.76 19 -2 19 C-1.01137789 15.04551155 -0.67065744 11.29394376 -0.4375 7.25 C-0.39431641 6.55261719 -0.35113281 5.85523438 -0.30664062 5.13671875 C-0.20110404 3.42468078 -0.1001009 1.71236439 0 0 Z " fill="#E0E9F0" transform="translate(83,31)"/>
<path d="M0 0 C3.58880268 4.30254214 4.52200925 8.6510811 6 14 C2.7 14.33 -0.6 14.66 -4 15 C-0.37 15 3.26 15 7 15 C7.33 16.32 7.66 17.64 8 19 C5.37493198 19.02690844 2.75013827 19.04679404 0.125 19.0625 C-0.62136719 19.07087891 -1.36773437 19.07925781 -2.13671875 19.08789062 C-7.7734375 19.11328125 -7.7734375 19.11328125 -10 18 C-9.67 16.02 -9.34 14.04 -9 12 C-8.39671875 11.94972656 -7.7934375 11.89945313 -7.171875 11.84765625 C-4.74621499 11.15786548 -4.74621499 11.15786548 -3.515625 8.49609375 C-2.88914063 6.98208984 -2.88914063 6.98208984 -2.25 5.4375 C-1.82203125 4.42558594 -1.3940625 3.41367188 -0.953125 2.37109375 C-0.63859375 1.58863281 -0.3240625 0.80617188 0 0 Z " fill="#203C66" transform="translate(162,106)"/>
<path d="M0 0 C0.99 0 1.98 0 3 0 C3.07347656 1.26457031 3.07347656 1.26457031 3.1484375 2.5546875 C3.22320312 3.65039062 3.29796875 4.74609375 3.375 5.875 C3.44460938 6.96554688 3.51421875 8.05609375 3.5859375 9.1796875 C3.73253491 12.13046474 3.73253491 12.13046474 6 14 C6.8927076 18.33347465 7.24150246 22.58160268 7 27 C4.6875 30.125 4.6875 30.125 2 32 C1.34 32.99 0.68 33.98 0 35 C0 23.45 0 11.9 0 0 Z " fill="#054479" transform="translate(0,0)"/>
<path d="M0 0 C5.61 0 11.22 0 17 0 C17 0.33 17 0.66 17 1 C11.72 1 6.44 1 1 1 C1 1.99 1 2.98 1 4 C6.28 4 11.56 4 17 4 C17 4.33 17 4.66 17 5 C13.37 5 9.74 5 6 5 C6.02320312 5.91523437 6.04640625 6.83046875 6.0703125 7.7734375 C6.08835937 8.96195313 6.10640625 10.15046875 6.125 11.375 C6.14820312 12.55835937 6.17140625 13.74171875 6.1953125 14.9609375 C6 18 6 18 4 20 C3.34 19.01 2.68 18.02 2 17 C2.01160156 17.81984375 2.02320312 18.6396875 2.03515625 19.484375 C2.04869141 21.10085937 2.04869141 21.10085937 2.0625 22.75 C2.07410156 23.81734375 2.08570312 24.8846875 2.09765625 25.984375 C2.01510087 28.53368501 1.74617558 30.57933591 1 33 C2.32 33 3.64 33 5 33 C5 30.03 5 27.06 5 24 C5.33 24 5.66 24 6 24 C6 27.3 6 30.6 6 34 C4.02 34 2.04 34 0 34 C0 22.78 0 11.56 0 0 Z " fill="#031953" transform="translate(79,99)"/>
<path d="M0 0 C8.25 0 16.5 0 25 0 C25 1.65 25 3.3 25 5 C18.73 5 12.46 5 6 5 C6 4.34 6 3.68 6 3 C4.35 2.67 2.7 2.34 1 2 C1 12.23 1 22.46 1 33 C2.65 33 4.3 33 6 33 C6 33.33 6 33.66 6 34 C4.02 34 2.04 34 0 34 C0 22.78 0 11.56 0 0 Z " fill="#031A53" transform="translate(50,99)"/>
<path d="M0 0 C1.32 0 2.64 0 4 0 C4 2.31 4 4.62 4 7 C4.99 7 5.98 7 7 7 C7 7.99 7 8.98 7 10 C6.01 10 5.02 10 4 10 C4.33 12.97 4.66 15.94 5 19 C5.99 19.33 6.98 19.66 8 20 C8 21.32 8 22.64 8 24 C5.125 24.125 5.125 24.125 2 24 C0 22 0 22 -0.22705078 19.75341797 C-0.21657715 18.84221191 -0.20610352 17.93100586 -0.1953125 16.9921875 C-0.18886719 16.00605469 -0.18242188 15.01992188 -0.17578125 14.00390625 C-0.15902344 12.97136719 -0.14226563 11.93882813 -0.125 10.875 C-0.11597656 9.83472656 -0.10695312 8.79445313 -0.09765625 7.72265625 C-0.07403747 5.14820908 -0.04110149 2.57421788 0 0 Z " fill="#0563AF" transform="translate(54,33)"/>
<path d="M0 0 C4.92127034 -0.16682272 8.50343896 -0.24828052 13 2 C12.67 3.65 12.34 5.3 12 7 C8.22923111 7.05799124 4.45857666 7.09359306 0.6875 7.125 C-0.38435547 7.14175781 -1.45621094 7.15851563 -2.56054688 7.17578125 C-3.58857422 7.18222656 -4.61660156 7.18867187 -5.67578125 7.1953125 C-6.62364502 7.20578613 -7.57150879 7.21625977 -8.5480957 7.22705078 C-11 7 -11 7 -14 5 C-13.67 4.34 -13.34 3.68 -13 3 C-7.39 3 -1.78 3 4 3 C2.68 2.67 1.36 2.34 0 2 C0 1.34 0 0.68 0 0 Z " fill="#EFEFEE" transform="translate(81,57)"/>
<path d="M0 0 C0.75732422 0.00966797 1.51464844 0.01933594 2.29492188 0.02929688 C3.08060547 0.05443359 3.86628906 0.07957031 4.67578125 0.10546875 C5.87170898 0.12577148 5.87170898 0.12577148 7.09179688 0.14648438 C9.05758092 0.18179786 11.02301707 0.23560428 12.98828125 0.29296875 C12.98828125 1.94296875 12.98828125 3.59296875 12.98828125 5.29296875 C7.37828125 5.29296875 1.76828125 5.29296875 -4.01171875 5.29296875 C-4.34171875 9.25296875 -4.67171875 13.21296875 -5.01171875 17.29296875 C-7.70273109 14.60195641 -7.31059424 13.10220929 -7.32421875 9.35546875 C-7.34097656 8.29457031 -7.35773437 7.23367187 -7.375 6.140625 C-6.77930648 1.4711564 -4.60372248 -0.10384336 0 0 Z " fill="#021D56" transform="translate(60.01171875,113.70703125)"/>
<path d="M0 0 C1.32 0 2.64 0 4 0 C4 8.58 4 17.16 4 26 C2.68 26 1.36 26 0 26 C0 17.42 0 8.84 0 0 Z " fill="#0662B2" transform="translate(84,31)"/>
<path d="M0 0 C0.99 0 1.98 0 3 0 C6 4.22222222 6 4.22222222 6 7 C6.66 7 7.32 7 8 7 C7.49396008 9.16874252 7.00016187 10.99967627 6 13 C5.9310528 14.37342831 5.91532292 15.75002102 5.9375 17.125 C5.958125 18.40375 5.97875 19.6825 6 21 C4.33388095 21.042721 2.66617115 21.04063832 1 21 C0 20 0 20 -0.09765625 17.93359375 C-0.08605469 17.10988281 -0.07445312 16.28617188 -0.0625 15.4375 C-0.05347656 14.61121094 -0.04445312 13.78492188 -0.03515625 12.93359375 C-0.02355469 12.29550781 -0.01195312 11.65742187 0 11 C0.99 11 1.98 11 3 11 C3 10.01 3 9.02 3 8 C2.01 8 1.02 8 0 8 C0 5.36 0 2.72 0 0 Z " fill="#EEF1F2" transform="translate(58,32)"/>
<path d="M0 0 C2.31 0.33 4.62 0.66 7 1 C7 3.64 7 6.28 7 9 C9.64 9 12.28 9 15 9 C15 11.31 15 13.62 15 16 C9.00163986 15.0206759 6.20660079 12.80194012 2.37890625 8.109375 C0.63713981 5.44491642 0.07927945 3.17117792 0 0 Z " fill="#B7BABC" transform="translate(1,207)"/>
<path d="M0 0 C1.65 0.33 3.3 0.66 5 1 C5 1.99 5 2.98 5 4 C11.27 4 17.54 4 24 4 C24 4.33 24 4.66 24 5 C18.39 5 12.78 5 7 5 C7 6.65 7 8.3 7 10 C6.34 10 5.68 10 5 10 C4.34 9.34 3.68 8.68 3 8 C2.34 7.67 1.68 7.34 1 7 C1 7.99 1 8.98 1 10 C0.01 10.495 0.01 10.495 -1 11 C-0.01 12.485 -0.01 12.485 1 14 C0.01 14 -0.98 14 -2 14 C-4.60018816 10.09971775 -4.15085514 6.52565431 -4 2 C-3.01 2 -2.02 2 -1 2 C-0.67 1.34 -0.34 0.68 0 0 Z " fill="#DEE4DE" transform="translate(120,110)"/>
<path d="M0 0 C6.16802119 -0.52493797 10.6070171 0.9904739 16 4 C18 6 18 6 18 9 C16.02 9.99 16.02 9.99 14 11 C13.34 10.360625 12.68 9.72125 12 9.0625 C8.14309088 6.41087498 5.62159967 6.31332879 1 6 C0.67 4.02 0.34 2.04 0 0 Z " fill="#092554" transform="translate(124,98)"/>
<path d="M0 0 C2 2 2 2 3.25 4.8125 C6.15627434 10.10607113 10.28876458 13.15224737 16 15 C16 15.33 16 15.66 16 16 C10.72 16 5.44 16 0 16 C0 10.72 0 5.44 0 0 Z " fill="#084174" transform="translate(0,208)"/>
<path d="M0 0 C0.33 0 0.66 0 1 0 C1 5.28 1 10.56 1 16 C-4.28 16 -9.56 16 -15 16 C-13 14 -13 14 -10.1875 12.75 C-4.89392887 9.84372566 -1.84775263 5.71123542 0 0 Z " fill="#084477" transform="translate(223,208)"/>
<path d="M0 0 C1.65 0 3.3 0 5 0 C5 5.94 5 11.88 5 18 C3.35 18 1.7 18 0 18 C0 12.06 0 6.12 0 0 Z " fill="#1F71B6" transform="translate(26,39)"/>
<path d="M0 0 C2.00051495 0.25813096 4.00116001 0.52048354 5.9921875 0.84375 C8.20703469 1.1470326 8.20703469 1.1470326 11 0 C11 1.32 11 2.64 11 4 C10.4225 4.020625 9.845 4.04125 9.25 4.0625 C5.61609879 5.5766255 4.75149584 8.55956175 3 12 C2.01 11.67 1.02 11.34 0 11 C0 10.34 0 9.68 0 9 C-1.32 8.67 -2.64 8.34 -4 8 C-3.67 7.34 -3.34 6.68 -3 6 C-2.34 6.33 -1.68 6.66 -1 7 C-1 6.34 -1 5.68 -1 5 C-1.66 5 -2.32 5 -3 5 C-1.125 1.125 -1.125 1.125 0 0 Z M-2 11 C-1.01 11.495 -1.01 11.495 0 12 C-0.99 12.495 -0.99 12.495 -2 13 C-2 12.34 -2 11.68 -2 11 Z " fill="#E4E5E8" transform="translate(29,4)"/>
<path d="M0 0 C3.3 0 6.6 0 10 0 C10 2.97 10 5.94 10 9 C6.7 9 3.4 9 0 9 C0 6.03 0 3.06 0 0 Z " fill="#0262AA" transform="translate(3,3)"/>
<path d="M0 0 C0.66 0 1.32 0 2 0 C3.86386572 3.15760781 4.20131511 5.35749152 4.0625 9 C3.94925112 12.23005509 4.07263224 14.89439633 5 18 C4.01 18 3.02 18 2 18 C0.31201173 19.43750191 0.31201173 19.43750191 -1 21 C-0.67 18.69 -0.34 16.38 0 14 C-0.7425 14.20625 -1.485 14.4125 -2.25 14.625 C-5.32330841 15.04408751 -6.42786866 14.61949011 -9 13 C-8.236875 12.7525 -7.47375 12.505 -6.6875 12.25 C-3.61961508 10.82307678 -2.59992704 9.95986502 -1 7 C-0.27518916 3.34725531 -0.27518916 3.34725531 0 0 Z " fill="#D4D6DD" transform="translate(107,107)"/>
<path d="M0 0 C3.40680413 0.30970947 5.56041967 0.68766661 8.375 2.6875 C10.43883512 5.62449613 10.31944345 7.48612204 10 11 C8.25034642 11.05429959 6.50020213 11.09292823 4.75 11.125 C3.77546875 11.14820313 2.8009375 11.17140625 1.796875 11.1953125 C-1.0196498 10.99862781 -2.60949036 10.44568916 -5 9 C-4.67 8.34 -4.34 7.68 -4 7 C-0.7 7.33 2.6 7.66 6 8 C3.49183541 5.49183541 2.09162264 4.38589981 -1 3 C-0.67 2.01 -0.34 1.02 0 0 Z " fill="#1065AE" transform="translate(71,39)"/>
<path d="M0 0 C4.95 0 9.9 0 15 0 C15 4.95 15 9.9 15 15 C13 13 13 13 11.4375 9.6875 C8.87692308 4.99801429 4.7027458 3.18054666 0 1 C0 0.67 0 0.34 0 0 Z " fill="#0B4780" transform="translate(209,0)"/>
<path d="M0 0 C0.66 0 1.32 0 2 0 C2 6.93 2 13.86 2 21 C3.98 21 5.96 21 8 21 C8 21.33 8 21.66 8 22 C6.02 22 4.04 22 2 22 C1.67 22.66 1.34 23.32 1 24 C0.34 24 -0.32 24 -1 24 C-1 23.01 -1 22.02 -1 21 C-0.34 21 0.32 21 1 21 C0.67 16.71 0.34 12.42 0 8 C-0.33 10.64 -0.66 13.28 -1 16 C-1.66 16 -2.32 16 -3 16 C-3 13.36 -3 10.72 -3 8 C-6.63 8 -10.26 8 -14 8 C-14 7.67 -14 7.34 -14 7 C-10.7 7 -7.4 7 -4 7 C-4 5.35 -4 3.7 -4 2 C-3.34 2.66 -2.68 3.32 -2 4 C-1.34 3.67 -0.68 3.34 0 3 C0 2.01 0 1.02 0 0 Z " fill="#CFD5D6" transform="translate(77,112)"/>
<path d="M0 0 C0.33 0.66 0.66 1.32 1 2 C3.01669827 3.13350534 3.01669827 3.13350534 5 4 C4.67 4.66 4.34 5.32 4 6 C5.98 6 7.96 6 10 6 C10.66 4.68 11.32 3.36 12 2 C12.66 4.31 13.32 6.62 14 9 C12.35 9 10.7 9 9 9 C9 8.34 9 7.68 9 7 C7.906875 7.020625 6.81375 7.04125 5.6875 7.0625 C2 7 2 7 -1 6 C-1.33 6.33 -1.66 6.66 -2 7 C-4.67058851 7.14115161 -7.32432238 7.04247107 -10 7 C-9.443125 6.731875 -8.88625 6.46375 -8.3125 6.1875 C-3.37424914 3.93288201 -3.37424914 3.93288201 0 0 Z M18 2 C18.33 2.66 18.66 3.32 19 4 C18.0625 6.625 18.0625 6.625 17 9 C16.67 8.34 16.34 7.68 16 7 C15.34 6.67 14.68 6.34 14 6 C15.32 4.68 16.64 3.36 18 2 Z " fill="#C6CCD8" transform="translate(141,127)"/>
<path d="M0 0 C3.46692734 3.7971109 4.51061867 8.17724141 6 13 C2.37 13 -1.26 13 -5 13 C-2.05357143 3.89285714 -2.05357143 3.89285714 0 0 Z " fill="#DADCE0" transform="translate(162,106)"/>
<path d="M0 0 C0.4125 0.495 0.825 0.99 1.25 1.5 C3.12202338 3.43386092 3.12202338 3.43386092 7 3 C7 3.99 7 4.98 7 6 C6.51917969 6.46019531 6.03835937 6.92039062 5.54296875 7.39453125 C3.53835103 9.48034867 3.51882865 10.84016467 3.3125 13.6875 C3.24675781 14.49574219 3.18101563 15.30398437 3.11328125 16.13671875 C3.07589844 16.75160156 3.03851563 17.36648437 3 18 C1.68 18 0.36 18 -1 18 C-1.02690844 15.37493198 -1.04679404 12.75013827 -1.0625 10.125 C-1.07087891 9.37863281 -1.07925781 8.63226563 -1.08789062 7.86328125 C-1.11328125 2.2265625 -1.11328125 2.2265625 0 0 Z " fill="#04285C" transform="translate(81,114)"/>
<path d="M0 0 C2.64 0 5.28 0 8 0 C8.33 0.99 8.66 1.98 9 3 C9.66 3.33 10.32 3.66 11 4 C7.21243523 7.61139896 7.21243523 7.61139896 5 9 C2.125 8.8125 2.125 8.8125 0 8 C0 5.36 0 2.72 0 0 Z " fill="#1E5385" transform="translate(16,3)"/>
<path d="M0 0 C1.32 0 2.64 0 4 0 C4 5.61 4 11.22 4 17 C2.68 17 1.36 17 0 17 C0 11.39 0 5.78 0 0 Z " fill="#0263B2" transform="translate(34,40)"/>
<path d="M0 0 C0.33 1.32 0.66 2.64 1 4 C5.29 4 9.58 4 14 4 C13.67 5.32 13.34 6.64 13 8 C10.03 7.505 10.03 7.505 7 7 C7 6.34 7 5.68 7 5 C6.29875 5.28875 5.5975 5.5775 4.875 5.875 C1.94547497 7.02133588 -1.00921653 8.02625654 -4 9 C-4.66 7.35 -5.32 5.7 -6 4 C-5.01 4 -4.02 4 -3 4 C-3 3.01 -3 2.02 -3 1 C-2.01 0.67 -1.02 0.34 0 0 Z " fill="#E5E4E3" transform="translate(124,116)"/>
<path d="M0 0 C1.98 0 3.96 0 6 0 C5.67 0.5775 5.34 1.155 5 1.75 C3.72924102 4.19883862 3.72924102 4.19883862 4 8 C2 11.25 2 11.25 0 14 C-0.66 13.67 -1.32 13.34 -2 13 C-2 12.34 -2 11.68 -2 11 C-2.66 11 -3.32 11 -4 11 C-4.33 9.35 -4.66 7.7 -5 6 C-3.68 6.33 -2.36 6.66 -1 7 C-1 6.01 -1 5.02 -1 4 C-0.01 4 0.98 4 2 4 C1.34 2.68 0.68 1.36 0 0 Z " fill="#E3E4E7" transform="translate(111,96)"/>
<path d="M0 0 C-1.98 0.99 -1.98 0.99 -4 2 C-2.68 2.33 -1.36 2.66 0 3 C-0.33 4.32 -0.66 5.64 -1 7 C-2.65 7 -4.3 7 -6 7 C-6 8.65 -6 10.3 -6 12 C-4.35 12 -2.7 12 -1 12 C-1 12.33 -1 12.66 -1 13 C-3.31 13 -5.62 13 -8 13 C-8 9.04 -8 5.08 -8 1 C-5.29120665 -0.35439668 -2.99066732 -0.06501451 0 0 Z " fill="#E5F3F8" transform="translate(32,24)"/>
<path d="M0 0 C0.99 0.33 1.98 0.66 3 1 C2.44271087 4.34373475 1.64826111 7.03312999 0 10 C-1.98 10 -3.96 10 -6 10 C-5.34 8.02 -4.68 6.04 -4 4 C-3.34 4 -2.68 4 -2 4 C-1.34 2.68 -0.68 1.36 0 0 Z " fill="#092351" transform="translate(151,123)"/>
<path d="M0 0 C0.50731767 5.32683552 -0.73281996 7.82526994 -4 12 C-6.125 14.375 -6.125 14.375 -8 16 C-8.66 16 -9.32 16 -10 16 C-10 15.34 -10 14.68 -10 14 C-9.34 14 -8.68 14 -8 14 C-8.33 13.01 -8.66 12.02 -9 11 C-7.02 10.34 -5.04 9.68 -3 9 C-3 7.68 -3 6.36 -3 5 C-3.66 5 -4.32 5 -5 5 C-3.33333333 0 -3.33333333 0 0 0 Z " fill="#B4BCC2" transform="translate(223,205)"/>
<path d="M0 0 C0.99 0.33 1.98 0.66 3 1 C2.67 1.99 2.34 2.98 2 4 C2.99 4 3.98 4 5 4 C4.125 8.75 4.125 8.75 3 11 C0.9375 11.625 0.9375 11.625 -1 12 C-1.02712066 10.56260487 -1.04645067 9.12506137 -1.0625 7.6875 C-1.07410156 6.88699219 -1.08570313 6.08648437 -1.09765625 5.26171875 C-1 3 -1 3 0 0 Z " fill="#E7E8EA" transform="translate(153,96)"/>
<path d="M0 0 C0.66 0 1.32 0 2 0 C2.33 2.64 2.66 5.28 3 8 C3.99 8.33 4.98 8.66 6 9 C6 10.32 6 11.64 6 13 C3.125 13.125 3.125 13.125 0 13 C-0.66 12.34 -1.32 11.68 -2 11 C-1.67 10.01 -1.34 9.02 -1 8 C-0.34 8.33 0.32 8.66 1 9 C0.67 6.03 0.34 3.06 0 0 Z " fill="#0A64AF" transform="translate(56,44)"/>
<path d="M0 0 C-0.0625 1.75 -0.0625 1.75 -1 4 C-3.24164322 5.59501537 -5.53566643 6.74543018 -8 8 C-8.33 7.34 -8.66 6.68 -9 6 C-8.34 5.34 -7.68 4.68 -7 4 C-7 2.68 -7 1.36 -7 0 C-4.3333581 -1.33332095 -2.83319697 -0.67102033 0 0 Z " fill="#062051" transform="translate(126,100)"/>
<path d="M0 0 C1.32 0 2.64 0 4 0 C4.33 1.65 4.66 3.3 5 5 C8.3 5.33 11.6 5.66 15 6 C15 6.33 15 6.66 15 7 C11.37 7.66 7.74 8.32 4 9 C4 8.34 4 7.68 4 7 C3.34 7 2.68 7 2 7 C1.67 6.34 1.34 5.68 1 5 C0.01 5.495 0.01 5.495 -1 6 C-1.042721 4.33388095 -1.04063832 2.66617115 -1 1 C-0.67 0.67 -0.34 0.34 0 0 Z " fill="#F2F8F8" transform="translate(62,32)"/>
<path d="M0 0 C0.66 0 1.32 0 2 0 C2.33 0.66 2.66 1.32 3 2 C9.27 2 15.54 2 22 2 C22 2.33 22 2.66 22 3 C16.39 3 10.78 3 5 3 C5 4.65 5 6.3 5 8 C4.34 8 3.68 8 3 8 C0.25624329 5.04518508 0 4.22528092 0 0 Z " fill="#C1C4D2" transform="translate(122,112)"/>
<path d="M0 0 C0.66 0.66 1.32 1.32 2 2 C3.32 1.34 4.64 0.68 6 0 C6.66 2.31 7.32 4.62 8 7 C5.69 7 3.38 7 1 7 C0.34 5.02 -0.32 3.04 -1 1 C-0.67 0.67 -0.34 0.34 0 0 Z " fill="#142A58" transform="translate(172,126)"/>
<path d="M0 0 C-0.33 0.99 -0.66 1.98 -1 3 C-2.43410368 3.24954005 -3.87260072 3.47392642 -5.3125 3.6875 C-6.11300781 3.81511719 -6.91351563 3.94273438 -7.73828125 4.07421875 C-10 4 -10 4 -11.79296875 2.51953125 C-12.19128906 2.01808594 -12.58960937 1.51664063 -13 1 C-11.58622218 0.63447197 -10.16879424 0.28304505 -8.75 -0.0625 C-7.96109375 -0.25972656 -7.1721875 -0.45695312 -6.359375 -0.66015625 C-3.89605178 -1.01497267 -2.34395868 -0.76877544 0 0 Z " fill="#1269B4" transform="translate(80,53)"/>
<path d="M0 0 C0.33 0 0.66 0 1 0 C1 3.96 1 7.92 1 12 C-0.32 12 -1.64 12 -3 12 C-3 9.03 -3 6.06 -3 3 C-2.01 3.33 -1.02 3.66 0 4 C0 2.68 0 1.36 0 0 Z " fill="#0562AD" transform="translate(50,45)"/>
<path d="M0 0 C2.31 0 4.62 0 7 0 C7 0.33 7 0.66 7 1 C5.02 1 3.04 1 1 1 C1 1.66 1 2.32 1 3 C2.98 3 4.96 3 7 3 C7 4.32 7 5.64 7 7 C4.69 7 2.38 7 0 7 C0 4.69 0 2.38 0 0 Z " fill="#036AB9" transform="translate(4,4)"/>
<path d="M0 0 C4.29 0 8.58 0 13 0 C12.67 1.32 12.34 2.64 12 4 C10 5 10 5 7.6171875 4.22265625 C6.71226562 3.83980469 5.80734375 3.45695313 4.875 3.0625 C3.50988281 2.49208984 3.50988281 2.49208984 2.1171875 1.91015625 C1.41851562 1.60980469 0.71984375 1.30945313 0 1 C0 0.67 0 0.34 0 0 Z " fill="#E7E7E7" transform="translate(192,0)"/>
<path d="M0 0 C0.33 0.99 0.66 1.98 1 3 C0.67 3.66 0.34 4.32 0 5 C-0.56847656 4.86722656 -1.13695313 4.73445313 -1.72265625 4.59765625 C-6.47151097 3.5115242 -11.16780324 2.61687618 -16 2 C-16 1.67 -16 1.34 -16 1 C-14.84371094 1.01740234 -14.84371094 1.01740234 -13.6640625 1.03515625 C-12.15972656 1.04869141 -12.15972656 1.04869141 -10.625 1.0625 C-9.12839844 1.07990234 -9.12839844 1.07990234 -7.6015625 1.09765625 C-4.67443902 0.98777924 -2.98367107 0 0 0 Z " fill="#E6E7EA" transform="translate(105,96)"/>
<path d="M0 0 C2.35953094 2.35953094 2.49141413 3.77895617 3 7 C1.35 7 -0.3 7 -2 7 C-1.34 4.69 -0.68 2.38 0 0 Z M7 0 C7.33 0.66 7.66 1.32 8 2 C7.0625 4.625 7.0625 4.625 6 7 C5.67 6.34 5.34 5.68 5 5 C4.34 4.67 3.68 4.34 3 4 C4.32 2.68 5.64 1.36 7 0 Z " fill="#D5D6D6" transform="translate(152,129)"/>
<path d="M0 0 C0.99 0.495 0.99 0.495 2 1 C3.53668865 1.22467831 5.07968054 1.40796805 6.625 1.5625 C7.44226563 1.64628906 8.25953125 1.73007813 9.1015625 1.81640625 C9.72804688 1.87699219 10.35453125 1.93757813 11 2 C11 2.33 11 2.66 11 3 C8.69 3.33 6.38 3.66 4 4 C3.896875 4.94875 3.79375 5.8975 3.6875 6.875 C3 10 3 10 0 12 C0 8.04 0 4.08 0 0 Z " fill="#CFD1D5" transform="translate(85,121)"/>
<path d="M0 0 C1.32 0 2.64 0 4 0 C4 1.65 4 3.3 4 5 C3.01 5 2.02 5 1 5 C1.33 6.65 1.66 8.3 2 10 C2.66 9.34 3.32 8.68 4 8 C4 9.32 4 10.64 4 12 C4.66 12 5.32 12 6 12 C5.67 12.66 5.34 13.32 5 14 C3.35 13.67 1.7 13.34 0 13 C0 10.03 0 7.06 0 4 C0.99 4 1.98 4 3 4 C3 3.01 3 2.02 3 1 C2.01 0.67 1.02 0.34 0 0 Z " fill="#BCD0E5" transform="translate(58,39)"/>
<path d="M0 0 C0.33 1.32 0.66 2.64 1 4 C0.4225 4.020625 -0.155 4.04125 -0.75 4.0625 C-4.38390121 5.5766255 -5.24850416 8.55956175 -7 12 C-7.99 11.67 -8.98 11.34 -10 11 C-10 7.69674728 -7.241448 6.241448 -5 4 C-5 3.34 -5 2.68 -5 2 C-3.35 1.34 -1.7 0.68 0 0 Z M-12 11 C-11.01 11.495 -11.01 11.495 -10 12 C-10.99 12.495 -10.99 12.495 -12 13 C-12 12.34 -12 11.68 -12 11 Z " fill="#F5F6F6" transform="translate(39,4)"/>
<path d="M0 0 C0.33 0 0.66 0 1 0 C1 4.62 1 9.24 1 14 C-0.65 14 -2.3 14 -4 14 C-4 10.04 -4 6.08 -4 2 C-3.67 2 -3.34 2 -3 2 C-2.34 5.3 -1.68 8.6 -1 12 C-0.67 8.04 -0.34 4.08 0 0 Z " fill="#133169" transform="translate(55,118)"/>
<path d="M0 0 C0 1.65 0 3.3 0 5 C-1.75 5.6875 -1.75 5.6875 -4 6 C-6.25 4.5625 -6.25 4.5625 -8 3 C-3.375 0 -3.375 0 0 0 Z " fill="#D9DCDF" transform="translate(38,0)"/>
<path d="M0 0 C0.66 0 1.32 0 2 0 C2 1.32 2 2.64 2 4 C-1.16986168 5.58493084 -4.54032261 5.2940042 -8 5 C-10.5 4 -10.5 4 -12 3 C-11.67 2.34 -11.34 1.68 -11 1 C-8.03 1.495 -8.03 1.495 -5 2 C-5 2.66 -5 3.32 -5 4 C-3.01508358 3.73323796 -3.01508358 3.73323796 -1 3 C-0.67 2.01 -0.34 1.02 0 0 Z " fill="#0263B3" transform="translate(78,45)"/>
<path d="M0 0 C0.33 0.99 0.66 1.98 1 3 C-2.3 3 -5.6 3 -9 3 C-8.67 2.01 -8.34 1.02 -8 0 C-5.13822943 -1.43088528 -3.06624227 -0.59991697 0 0 Z " fill="#CADDEC" transform="translate(76,44)"/>
<path d="M0 0 C0.99 0 1.98 0 3 0 C3 2.97 3 5.94 3 9 C2.01 9.33 1.02 9.66 0 10 C-0.99 9.01 -1.98 8.02 -3 7 C-2.34 6.67 -1.68 6.34 -1 6 C-0.34227572 2.97065509 -0.34227572 2.97065509 0 0 Z " fill="#E8EDF0" transform="translate(49,32)"/>
<path d="M0 0 C3.63 0 7.26 0 11 0 C11 0.66 11 1.32 11 2 C11.66 2 12.32 2 13 2 C12.67 2.99 12.34 3.98 12 5 C11.34 5 10.68 5 10 5 C10 3.68 10 2.36 10 1 C8.68 1.99 7.36 2.98 6 4 C4.02 3.01 2.04 2.02 0 1 C0 0.67 0 0.34 0 0 Z " fill="#3D6B9A" transform="translate(209,0)"/>
<path d="M0 0 C0.33 0.66 0.66 1.32 1 2 C1.99 2.33 2.98 2.66 4 3 C4.75 5 4.75 5 5 7 C4.67 7.33 4.34 7.66 4 8 C3.92851801 9.35243917 3.91600546 10.70834367 3.9375 12.0625 C3.958125 13.361875 3.97875 14.66125 4 16 C1.79086 12.68629 1.77518447 11.6553979 1.875 7.8125 C1.89304687 6.91144531 1.91109375 6.01039062 1.9296875 5.08203125 C1.95289062 4.39496094 1.97609375 3.70789063 2 3 C1.34 3 0.68 3 0 3 C0 2.01 0 1.02 0 0 Z " fill="#E8E9F0" transform="translate(73,96)"/>
<path d="M0 0 C1.15242187 0.00902344 2.30484375 0.01804687 3.4921875 0.02734375 C4.36101562 0.03894531 5.22984375 0.05054687 6.125 0.0625 C5.795 1.0525 5.465 2.0425 5.125 3.0625 C-0.815 2.7325 -6.755 2.4025 -12.875 2.0625 C-12.875 1.7325 -12.875 1.4025 -12.875 1.0625 C-8.52167264 0.22226812 -4.43057481 -0.04520995 0 0 Z " fill="#EBEDEE" transform="translate(132.875,95.9375)"/>
<path d="M0 0 C-1.98 0.99 -1.98 0.99 -4 2 C-2.68 2.33 -1.36 2.66 0 3 C0 3.66 0 4.32 0 5 C-2.64 5 -5.28 5 -8 5 C-8 3.68 -8 2.36 -8 1 C-5.29120665 -0.35439668 -2.99066732 -0.06501451 0 0 Z " fill="#F1F8F5" transform="translate(32,24)"/>
<path d="M0 0 C1.5625 1.625 1.5625 1.625 3 4 C2.6875 7.25 2.6875 7.25 2 10 C1.34 10 0.68 10 0 10 C-2 3.25 -2 3.25 -2 1 C-1.34 0.67 -0.68 0.34 0 0 Z " fill="#08285E" transform="translate(165,99)"/>
<path d="M0 0 C0.99 0.33 1.98 0.66 3 1 C2.34 1 1.68 1 1 1 C1.33 1.99 1.66 2.98 2 4 C0.68 4.33 -0.64 4.66 -2 5 C-2 7.97 -2 10.94 -2 14 C-2.33 14 -2.66 14 -3 14 C-3.08082094 12.04233719 -3.13910778 10.08373272 -3.1875 8.125 C-3.22230469 7.03445312 -3.25710937 5.94390625 -3.29296875 4.8203125 C-3.19628906 3.88960937 -3.09960938 2.95890625 -3 2 C-2.01 1.34 -1.02 0.68 0 0 Z " fill="#D1E0EF" transform="translate(41,43)"/>
<path d="M0 0 C2.75 0.8125 2.75 0.8125 5 2 C4 4 4 4 2.375 4.625 C-0.7660575 5.12095645 -3.82601831 5.06103811 -7 5 C-6.01 4.34 -5.02 3.68 -4 3 C-3.38125 2.4225 -2.7625 1.845 -2.125 1.25 C-1.073125 0.63125 -1.073125 0.63125 0 0 Z " fill="#104C83" transform="translate(217,218)"/>
<path d="M0 0 C0.66 0 1.32 0 2 0 C2.04898438 0.61488281 2.09796875 1.22976562 2.1484375 1.86328125 C2.22320312 2.67152344 2.29796875 3.47976562 2.375 4.3125 C2.44460937 5.11300781 2.51421875 5.91351563 2.5859375 6.73828125 C2.89564426 9.27224441 2.89564426 9.27224441 5 12 C4.01 12 3.02 12 2 12 C-0.60018816 8.09971775 -0.15085514 4.52565431 0 0 Z " fill="#D1D4D9" transform="translate(116,112)"/>
<path d="M0 0 C0.99 0 1.98 0 3 0 C3 1.65 3 3.3 3 5 C2.34 5 1.68 5 1 5 C0.67 7.64 0.34 10.28 0 13 C-0.33 13 -0.66 13 -1 13 C-1.02686553 11.02090602 -1.04633375 9.04171029 -1.0625 7.0625 C-1.07410156 5.96035156 -1.08570313 4.85820313 -1.09765625 3.72265625 C-1 1 -1 1 0 0 Z " fill="#2073B7" transform="translate(47,44)"/>
<path d="M0 0 C2.0625 1.75 2.0625 1.75 4 4 C3.9375 6.1875 3.9375 6.1875 3 8 C2.01 8.33 1.02 8.66 0 9 C-1.125 3.375 -1.125 3.375 0 0 Z " fill="#D3DBDF" transform="translate(218,6)"/>
<path d="M0 0 C1.98 0 3.96 0 6 0 C5.649375 0.598125 5.29875 1.19625 4.9375 1.8125 C3.66695302 4.10813214 3.66695302 4.10813214 5 7 C2.13275314 6.42655063 1.1385485 6.1385485 -1 4 C-0.01 4 0.98 4 2 4 C1.34 2.68 0.68 1.36 0 0 Z " fill="#EAEAED" transform="translate(111,96)"/>
<path d="M0 0 C0.99 0 1.98 0 3 0 C3.33 1.65 3.66 3.3 4 5 C3.01 4.67 2.02 4.34 1 4 C0.67 4.66 0.34 5.32 0 6 C-0.99 5.67 -1.98 5.34 -3 5 C-1.125 1.125 -1.125 1.125 0 0 Z " fill="#D5D8DD" transform="translate(4,29)"/>
<path d="M0 0 C2.31 0 4.62 0 7 0 C2.25 4.875 2.25 4.875 0 6 C0 4.02 0 2.04 0 0 Z " fill="#A5AFB0" transform="translate(17,3)"/>
<path d="M0 0 C0.99 0 1.98 0 3 0 C2.25 5.75 2.25 5.75 0 8 C0 6.68 0 5.36 0 4 C-0.99 4 -1.98 4 -3 4 C-3 3.34 -3 2.68 -3 2 C-2.01 2 -1.02 2 0 2 C0 1.34 0 0.68 0 0 Z " fill="#051E53" transform="translate(141,119)"/>
<path d="M0 0 C0.99 0.33 1.98 0.66 3 1 C3 1.66 3 2.32 3 3 C3.66 3 4.32 3 5 3 C5 3.66 5 4.32 5 5 C2.69 5 0.38 5 -2 5 C-1.34 3.35 -0.68 1.7 0 0 Z " fill="#DEE2E6" transform="translate(159,114)"/>
<path d="M0 0 C0.125 2.875 0.125 2.875 0 6 C-0.66 6.66 -1.32 7.32 -2 8 C-2.99 8 -3.98 8 -5 8 C-4.67 7.01 -4.34 6.02 -4 5 C-3.855625 4.29875 -3.71125 3.5975 -3.5625 2.875 C-3.376875 2.25625 -3.19125 1.6375 -3 1 C-1 0 -1 0 0 0 Z " fill="#D4D9DD" transform="translate(101,107)"/>
<path d="M0 0 C2.475 0.99 2.475 0.99 5 2 C5 2.66 5 3.32 5 4 C4.01 4.495 4.01 4.495 3 5 C3.33 6.32 3.66 7.64 4 9 C1.47740939 7.02579865 1.0070192 6.03254358 0.3125 2.8125 C0.209375 1.884375 0.10625 0.95625 0 0 Z " fill="#B0B8C0" transform="translate(1,207)"/>
<path d="M0 0 C0.66 0 1.32 0 2 0 C2.33 2.64 2.66 5.28 3 8 C1.68 7.67 0.36 7.34 -1 7 C-0.67 4.69 -0.34 2.38 0 0 Z " fill="#C7D0DC" transform="translate(91,49)"/>
<path d="M0 0 C0 0.66 0 1.32 0 2 C-1.98 2.33 -3.96 2.66 -6 3 C-6 2.34 -6 1.68 -6 1 C-7.32 0.34 -8.64 -0.32 -10 -1 C-5.92166722 -1.99202689 -3.81355207 -1.90677603 0 0 Z " fill="#A9A9A9" transform="translate(202,218)"/>
<path d="M0 0 C1.32 0 2.64 0 4 0 C4.1875 2.875 4.1875 2.875 4 6 C3.01 6.66 2.02 7.32 1 8 C0.67 6.35 0.34 4.7 0 3 C0.66 3 1.32 3 2 3 C2 2.34 2 1.68 2 1 C1.34 0.67 0.68 0.34 0 0 Z " fill="#12315F" transform="translate(137,123)"/>
<path d="M0 0 C3 3.75 3 3.75 3 6 C1.02 6.66 -0.96 7.32 -3 8 C-1.125 2.25 -1.125 2.25 0 0 Z " fill="#C7CEDA" transform="translate(162,106)"/>
<path d="M0 0 C0.33 1.98 0.66 3.96 1 6 C0.01 5.67 -0.98 5.34 -2 5 C-2 4.34 -2 3.68 -2 3 C-3.65 2.67 -5.3 2.34 -7 2 C-4 0 -4 0 0 0 Z " fill="#E3E8EA" transform="translate(81,38)"/>
<path d="M0 0 C1.32 0.66 2.64 1.32 4 2 C4 3.32 4 4.64 4 6 C2.35 6 0.7 6 -1 6 C-0.67 4.02 -0.34 2.04 0 0 Z " fill="#BDBDBD" transform="translate(20,217)"/>
<path d="M0 0 C0.99 0.33 1.98 0.66 3 1 C1.515 4.96 1.515 4.96 0 9 C-1.125 7.3125 -1.125 7.3125 -2 5 C-1.125 2.25 -1.125 2.25 0 0 Z " fill="#CFD3DB" transform="translate(149,115)"/>
<path d="M0 0 C0.66 1.32 1.32 2.64 2 4 C0.68 5.65 -0.64 7.3 -2 9 C-2 6.36 -2 3.72 -2 1 C-1.34 0.67 -0.68 0.34 0 0 Z " fill="#E7E8E8" transform="translate(147,113)"/>
<path d="M0 0 C-0.33 0.66 -0.66 1.32 -1 2 C-5.29 1.67 -9.58 1.34 -14 1 C-14 0.67 -14 0.34 -14 0 C-8.97874074 -0.77916092 -5.02296004 -1.13016601 0 0 Z " fill="#112A59" transform="translate(102,100)"/>
<path d="M0 0 C2 3 2 3 1.75 5.5625 C1 8 1 8 -1 10 C-1.33 9.67 -1.66 9.34 -2 9 C-1.30232558 2.60465116 -1.30232558 2.60465116 0 0 Z " fill="#163261" transform="translate(116,120)"/>
<path d="M0 0 C1.65 0 3.3 0 5 0 C5 1.32 5 2.64 5 4 C3.35 4 1.7 4 0 4 C0 2.68 0 1.36 0 0 Z " fill="#07C5F6" transform="translate(26,32)"/>
<path d="M0 0 C2 3 2 3 3 6 C2.01 7.485 2.01 7.485 1 9 C1 8.34 1 7.68 1 7 C-0.32 7.33 -1.64 7.66 -3 8 C-2.34 7.01 -1.68 6.02 -1 5 C-0.61500109 3.34450469 -0.27206865 1.6777567 0 0 Z " fill="#132F5D" transform="translate(168,105)"/>
<path d="M0 0 C0.99 1.32 1.98 2.64 3 4 C2.34 4.66 1.68 5.32 1 6 C0.67 6.99 0.34 7.98 0 9 C-1.125 6.75 -1.125 6.75 -2 4 C-1.125 1.6875 -1.125 1.6875 0 0 Z " fill="#0D2F62" transform="translate(117,101)"/>
<path d="M0 0 C2.31 0 4.62 0 7 0 C5.68 0.33 4.36 0.66 3 1 C3.7763932 4.0745356 3.7763932 4.0745356 6 6 C4.35 6 2.7 6 1 6 C0.67 4.02 0.34 2.04 0 0 Z " fill="#334870" transform="translate(124,98)"/>
<path d="M0 0 C2.31 0 4.62 0 7 0 C7 0.66 7 1.32 7 2 C5.02 2.33 3.04 2.66 1 3 C0.67 3.99 0.34 4.98 0 6 C0 4.02 0 2.04 0 0 Z " fill="#E9EBE8" transform="translate(48,96)"/>
<path d="M0 0 C3 1 3 1 4 3 C4.99 3.33 5.98 3.66 7 4 C7.33 3.01 7.66 2.02 8 1 C8 2.32 8 3.64 8 5 C5.125 5.125 5.125 5.125 2 5 C1.34 4.34 0.68 3.68 0 3 C0 2.01 0 1.02 0 0 Z " fill="#3074B0" transform="translate(54,52)"/>
<path d="M0 0 C2.31 0.33 4.62 0.66 7 1 C5 4 5 4 3 5 C2.67 5.66 2.34 6.32 2 7 C0.5393715 4.35261084 0 3.10551666 0 0 Z " fill="#1667A8" transform="translate(63,48)"/>
<path d="M0 0 C3.625 0.375 3.625 0.375 7 1 C7.33 2.32 7.66 3.64 8 5 C6.68 4.34 5.36 3.68 4 3 C3.67 3.66 3.34 4.32 3 5 C3 4.34 3 3.68 3 3 C1.35 2.67 -0.3 2.34 -2 2 C-1.34 1.34 -0.68 0.68 0 0 Z " fill="#ECE7EE" transform="translate(211,5)"/>
<path d="M0 0 C1.32 0.33 2.64 0.66 4 1 C3.34 2.32 2.68 3.64 2 5 C0.68 4.34 -0.64 3.68 -2 3 C-1.34 2.01 -0.68 1.02 0 0 Z " fill="#D3D6D8" transform="translate(114,130)"/>
<path d="M0 0 C0.33 0 0.66 0 1 0 C2.28571429 8.57142857 2.28571429 8.57142857 1 12 C0.01 12 -0.98 12 -2 12 C-1.34 8.04 -0.68 4.08 0 0 Z " fill="#B8BAC7" transform="translate(144,115)"/>
<path d="M0 0 C1.0326802 2.78823655 1.04509293 3.8677274 0.0625 6.75 C-0.288125 7.4925 -0.63875 8.235 -1 9 C-1.66 7.68 -2.32 6.36 -3 5 C-2.34 5 -1.68 5 -1 5 C-1.66 3.68 -2.32 2.36 -3 1 C-2.01 0.67 -1.02 0.34 0 0 Z " fill="#D6D8D8" transform="translate(180,120)"/>
<path d="M0 0 C1.32 0.33 2.64 0.66 4 1 C3.67 2.32 3.34 3.64 3 5 C2.01 5 1.02 5 0 5 C0 3.35 0 1.7 0 0 Z " fill="#ECEFEF" transform="translate(24,59)"/>
<path d="M0 0 C2 2 2 2 2.125 5.625 C2.08375 6.73875 2.0425 7.8525 2 9 C1.01 8.67 0.02 8.34 -1 8 C-0.67 5.36 -0.34 2.72 0 0 Z " fill="#016AB8" transform="translate(55,44)"/>
<path d="M0 0 C1.67542976 0.28604898 3.34385343 0.61781233 5 1 C3.68 2.32 2.36 3.64 1 5 C0.34 3.68 -0.32 2.36 -1 1 C-0.67 0.67 -0.34 0.34 0 0 Z " fill="#CACACA" transform="translate(202,210)"/>
<path d="M0 0 C0 0.99 0 1.98 0 3 C-1.98 3 -3.96 3 -6 3 C-6.33 2.34 -6.66 1.68 -7 1 C-4.53721199 -0.231394 -2.7204945 -0.07159196 0 0 Z " fill="#C6C7D3" transform="translate(131,126)"/>
<path d="M0 0 C0.103125 0.639375 0.20625 1.27875 0.3125 1.9375 C0.539375 2.618125 0.76625 3.29875 1 4 C1.99 4.33 2.98 4.66 4 5 C2.68 5 1.36 5 0 5 C-0.33 5.99 -0.66 6.98 -1 8 C-1.93065133 5.39417629 -2.14917407 4.35801776 -1.0625 1.75 C-0.711875 1.1725 -0.36125 0.595 0 0 Z " fill="#041E50" transform="translate(153,113)"/>
<path d="M0 0 C0.99 0.33 1.98 0.66 3 1 C2.01 1.33 1.02 1.66 0 2 C-0.33 2.99 -0.66 3.98 -1 5 C-2.32 4.34 -3.64 3.68 -5 3 C-2 1 -2 1 0 0 Z " fill="#041D4C" transform="translate(101,101)"/>
</svg>
