<?xml version="1.0" encoding="UTF-8"?>
<svg version="1.1" xmlns="http://www.w3.org/2000/svg" width="213" height="261">
<path d="M0 0 C8.13159668 6.9083783 14.96410764 14.53862648 20 24 C20.68642578 25.28777344 20.68642578 25.28777344 21.38671875 26.6015625 C26.46215577 36.93533517 29.98142264 48.41376048 29 60 C29.556875 59.94457031 30.11375 59.88914062 30.6875 59.83203125 C34.73153476 59.79787555 37.20345649 60.30146009 40.29980469 63.0168457 C43.50043806 67.02721134 45.87068666 70.1520749 46.23632812 75.37719727 C45.8018773 79.12485528 45.10020397 82.69943028 44.25 86.375 C43.97532615 87.69780751 43.70477765 89.02147792 43.43823242 90.34594727 C42.90124178 92.99189068 42.34023602 95.6311481 41.76513672 98.26904297 C41.07439426 101.63723899 40.54221945 104.97095111 40.09765625 108.37890625 C38.07581304 123.31257085 38.07581304 123.31257085 32.375 127.875 C26.18472677 130.99705085 21.50254271 130.08235247 14.98095703 128.51464844 C5.35244535 125.94105254 5.35244535 125.94105254 -4.21875 127.1875 C-6.93547043 128.99864696 -9.44796676 130.96559614 -12 133 C-29.91701028 143.19510861 -52.1123073 145.00808377 -71.93359375 139.97753906 C-83.95856553 136.50301597 -94.77457332 130.44134882 -104 122 C-105.02287109 121.11441406 -105.02287109 121.11441406 -106.06640625 120.2109375 C-120.58893969 106.85361712 -129.11083644 86.50374321 -130.16015625 67.02734375 C-130.43869744 56.28534231 -129.12271876 45.73458673 -125.421875 35.61328125 C-123.78856008 30.86546144 -123.60896884 26.4837835 -123.5625 21.5 C-123.24045759 11.47109507 -121.41452832 4.24976102 -114 -3 C-106.36354126 -8.5152202 -97.15339219 -11.34093385 -87.75 -10.875 C-81.97568384 -10.66517747 -77.13516028 -12.26102077 -71.74511719 -14.13427734 C-47.78308639 -22.42790254 -19.54209967 -15.30425109 0 0 Z " fill="#72C3ED" transform="translate(150,34)"/>
<path d="M0 0 C8.13159668 6.9083783 14.96410764 14.53862648 20 24 C20.68642578 25.28777344 20.68642578 25.28777344 21.38671875 26.6015625 C26.46215577 36.93533517 29.98142264 48.41376048 29 60 C29.556875 59.94457031 30.11375 59.88914062 30.6875 59.83203125 C34.73153476 59.79787555 37.20345649 60.30146009 40.29980469 63.0168457 C43.50043806 67.02721134 45.87068666 70.1520749 46.23632812 75.37719727 C45.8018773 79.12485528 45.10020397 82.69943028 44.25 86.375 C43.97532615 87.69780751 43.70477765 89.02147792 43.43823242 90.34594727 C42.90124178 92.99189068 42.34023602 95.6311481 41.76513672 98.26904297 C41.07439426 101.63723899 40.54221945 104.97095111 40.09765625 108.37890625 C38.07581304 123.31257085 38.07581304 123.31257085 32.375 127.875 C26.18472677 130.99705085 21.50254271 130.08235247 14.98095703 128.51464844 C5.35244535 125.94105254 5.35244535 125.94105254 -4.21875 127.1875 C-6.93547043 128.99864696 -9.44796676 130.96559614 -12 133 C-29.91701028 143.19510861 -52.1123073 145.00808377 -71.93359375 139.97753906 C-83.95856553 136.50301597 -94.77457332 130.44134882 -104 122 C-105.02287109 121.11441406 -105.02287109 121.11441406 -106.06640625 120.2109375 C-120.58893969 106.85361712 -129.11083644 86.50374321 -130.16015625 67.02734375 C-130.50461094 53.74337381 -128.12515184 41.27955161 -123 29 C-120.10938391 31.89061609 -120.11369504 35.08060603 -120 39 C-120.55859375 42.68359375 -120.55859375 42.68359375 -121.4375 46.4375 C-125.73754757 66.8808645 -121.97955099 86.63938227 -110.89453125 104.3671875 C-100.28707523 119.12375463 -84.68411288 130.8842978 -66.60498047 134.61621094 C-45.78078762 137.68421761 -27.97791006 134.8764487 -10 124 C-10.92941406 123.89945313 -11.85882813 123.79890625 -12.81640625 123.6953125 C-19.46490613 122.68313212 -24.22563661 121.90512022 -28.375 116.3125 C-32.54311354 109.87553648 -31.15015844 102.77449912 -29.7578125 95.60546875 C-29.62937958 94.9326033 -29.50094666 94.25973785 -29.36862183 93.56648254 C-28.9609685 91.43875769 -28.54329676 89.31315518 -28.125 87.1875 C-27.71746849 85.07836696 -27.31198768 82.96884834 -26.90693665 80.85923767 C-26.64241298 79.48979652 -26.37485964 78.12093686 -26.10417175 76.75270081 C-25.50965069 73.7373375 -24.95911714 70.72862829 -24.5012207 67.68920898 C-23.43970378 60.6590746 -23.43970378 60.6590746 -21.21484375 57.32421875 C-15.10573537 52.93362456 -10.14202835 52.52761829 -2.91210938 53.64477539 C-0.59943236 54.06019127 1.69915688 54.52349679 4 55 C5.2998584 55.25644287 5.2998584 55.25644287 6.62597656 55.51806641 C12.10257612 56.60088085 17.55494749 57.76873675 23 59 C22.06347072 48.89387059 20.26388733 40.30194415 16 31 C15.57976562 30.06542969 15.15953125 29.13085938 14.7265625 28.16796875 C7.07846295 12.71703932 -7.73513249 -0.38573101 -24 -6 C-44.589596 -12.49298463 -65.01985006 -12.05260335 -84.38696289 -2.12402344 C-89.2906877 0.49369584 -93.75513773 3.39829868 -98 7 C-98.969375 7.7425 -99.93875 8.485 -100.9375 9.25 C-103.08256011 10.83789372 -103.08256011 10.83789372 -104 13 C-104.99 12.67 -105.98 12.34 -107 12 C-107.34765625 9.81640625 -107.34765625 9.81640625 -107 7 C-105.171859 5.05178406 -103.52840616 3.54622265 -101.4375 1.9375 C-100.8919043 1.50066895 -100.34630859 1.06383789 -99.78417969 0.61376953 C-96.02959228 -2.34294024 -92.26767384 -4.86616308 -88 -7 C-98.00427325 -6.62600848 -106.00034532 -4.59235003 -113.50390625 2.3046875 C-117.87066168 7.25291689 -119.81468309 13.88111264 -122 20 C-122.33 20 -122.66 20 -123 20 C-123.59167941 11.86440808 -121.33047675 6.4624226 -116.8125 -0.25 C-109.85192523 -7.05589533 -100.14210491 -10.98946592 -90.3515625 -11.00390625 C-89.06378906 -10.94009766 -89.06378906 -10.94009766 -87.75 -10.875 C-81.97568384 -10.66517747 -77.13516028 -12.26102077 -71.74511719 -14.13427734 C-47.78308639 -22.42790254 -19.54209967 -15.30425109 0 0 Z " fill="#014B87" transform="translate(150,34)"/>
<path d="M0 0 C0.33 0 0.66 0 1 0 C1.01417969 0.78761719 1.02835938 1.57523438 1.04296875 2.38671875 C1.37618467 9.99664982 2.84643104 16.00604395 5.8203125 23.00390625 C6.86393548 25.65443216 7.40933696 27.8899418 7.8125 30.6875 C9.02898945 36.67219364 12.95995191 40.61491675 17 45 C17.46341797 45.5057959 17.92683594 46.0115918 18.40429688 46.53271484 C30.7518884 59.85789164 44.44868205 69.57262333 61 77 C62.09699219 77.49371094 63.19398437 77.98742187 64.32421875 78.49609375 C73.04137983 82.25753201 81.52256171 85.12245942 91 86 C90.814375 87.9490625 90.814375 87.9490625 90.625 89.9375 C90.69415228 94.80121061 91.83176708 98.15916067 94.66796875 102.11328125 C99.46801695 105.99673733 106.0286534 106.33904942 112 107 C103.71156413 115.87106968 90.03468836 119.99101929 78.16796875 120.56640625 C75.84130945 120.59403019 73.51413446 120.59214276 71.1875 120.5625 C69.34937744 120.54606445 69.34937744 120.54606445 67.47412109 120.52929688 C47.73744234 120.05906495 30.90769255 112.1472776 16.9765625 98.265625 C2.78062235 83.24317778 -3.6699243 63.84762473 -3.2734375 43.4296875 C-3.02891429 37.70986097 -1.86076344 32.24530519 -0.55859375 26.68359375 C0.15349803 21.98777176 0.17738489 17.35476977 -2 13 C-2.16796875 10.9765625 -2.16796875 10.9765625 -2.1875 8.625 C-2.20167969 7.85414062 -2.21585938 7.08328125 -2.23046875 6.2890625 C-1.97801607 3.78165112 -1.25193467 2.16738098 0 0 Z " fill="#72C3ED" transform="translate(29,50)"/>
<path d="M0 0 C-2.47785109 2.80104906 -5.12977357 4.80240595 -8.25 6.8125 C-11.4584235 8.92484515 -14.56853154 11.09099873 -17.5625 13.5 C-18.22378906 14.0259375 -18.88507812 14.551875 -19.56640625 15.09375 C-21.66049329 17.8782581 -21.44358018 19.5810848 -21 23 C-19.68673707 26.32180622 -19.68673707 26.32180622 -17.8125 29.5625 C-16.92498047 31.20412109 -16.92498047 31.20412109 -16.01953125 32.87890625 C-13.00814402 37.53286833 -9.96279729 40.60979396 -5 43 C-3.20423011 44.49130655 -1.43654756 46.01666128 0.3125 47.5625 C15.65241902 60.60652001 34.74200036 69.31322803 54.1875 74.24609375 C56.90200788 74.97373267 59.41566891 75.90260941 62 77 C62.31644087 84.52338162 61.13460421 91.23328814 59.5 98.5625 C59.26152344 99.66658203 59.02304688 100.77066406 58.77734375 101.90820312 C58.19310751 104.60737458 57.60051035 107.30441124 57 110 C50.92919794 110.27345955 46.21601593 109.50177417 40.5 107.5 C39.72390381 107.23372803 38.94780762 106.96745605 38.14819336 106.69311523 C13.8993653 98.07947014 -12.40603629 81.4989312 -26.0390625 59.06640625 C-27.36444364 56.21629802 -27.99002879 53.44326294 -28.5 50.3515625 C-29.06253283 47.70590026 -30.04677148 45.47842807 -31.125 43 C-34.15993594 34.91064067 -35.02936098 23.52151684 -31.5625 15.4375 C-26.265576 7.25301674 -19.32647019 3.09077984 -10.04296875 0.609375 C-6.5309312 -0.09393419 -3.55625724 -0.33081463 0 0 Z " fill="#FCFDFE" transform="translate(63,26)"/>
<path d="M0 0 C2.5831587 3.60423028 2.05675936 6.62044867 1.4921875 10.8203125 C0.86403115 13.60214776 -0.44393277 15.6320716 -2 18 C-2 19.32 -2 20.64 -2 22 C-4 23.75 -4 23.75 -6 25 C-6.36351563 24.5153125 -6.72703125 24.030625 -7.1015625 23.53125 C-9.80599968 21.34989326 -11.94088551 21.59430063 -15.375 21.5 C-20.49680877 21.35870872 -24.25048544 20.74951456 -28 17 C-28.59277319 12.47160153 -28.5027641 8.2555282 -26.4375 4.125 C-20.49136475 -3.49825031 -8.39391398 -4.57453789 0 0 Z M-17 6 C-18.35439668 8.70879335 -18.06501451 11.00933268 -18 14 C-17.01 14.33 -16.02 14.66 -15 15 C-14.401875 14.360625 -13.80375 13.72125 -13.1875 13.0625 C-11 11 -11 11 -8 10 C-8.33 8.35 -8.66 6.7 -9 5 C-12.38048354 3.79268445 -13.99434913 4.03078046 -17 6 Z " fill="#000000" transform="translate(52,188)"/>
<path d="M0 0 C2.64 0 5.28 0 8 0 C8 1.32 8 2.64 8 4 C8.99 4.33 9.98 4.66 11 5 C10.67 6.65 10.34 8.3 10 10 C8.68 10 7.36 10 6 10 C5.67 11.98 5.34 13.96 5 16 C6.32 16 7.64 16 9 16 C8.34 17.98 7.68 19.96 7 22 C5.54207116 22.05399736 4.08357288 22.09279177 2.625 22.125 C1.40683594 22.15980469 1.40683594 22.15980469 0.1640625 22.1953125 C-2 22 -2 22 -4 20 C-3.9765625 17.8359375 -3.9765625 17.8359375 -3.625 15.375 C-3.45871094 14.14910156 -3.45871094 14.14910156 -3.2890625 12.8984375 C-3.14597656 11.95871094 -3.14597656 11.95871094 -3 11 C-3.99 10.67 -4.98 10.34 -6 10 C-6 10.66 -6 11.32 -6 12 C-6.928125 11.938125 -7.85625 11.87625 -8.8125 11.8125 C-11.89848889 11.73258696 -11.89848889 11.73258696 -13.75 13.125 C-15.40483154 15.60724732 -16.17581408 18.14704874 -17 21 C-19.64 21 -22.28 21 -25 21 C-24.69075786 18.89535207 -24.3774944 16.7912947 -24.0625 14.6875 C-23.88847656 13.51574219 -23.71445313 12.34398437 -23.53515625 11.13671875 C-23 8 -23 8 -22 5 C-21.443125 5.01160156 -20.88625 5.02320313 -20.3125 5.03515625 C-16.37494114 5.08171522 -12.58790721 5.01044117 -8.6875 4.4375 C-5.59465632 4.07055244 -3.85176715 3.93058732 -1 5 C-0.67 3.35 -0.34 1.7 0 0 Z " fill="#000000" transform="translate(127,187)"/>
<path d="M0 0 C1.13308594 -0.02578125 2.26617187 -0.0515625 3.43359375 -0.078125 C6.85807254 0.28099637 8.28988841 0.66799821 10.5625 3.25 C10.76953125 5.58984375 10.76953125 5.58984375 10.375 8.1875 C10.25769531 9.04214844 10.14039062 9.89679688 10.01953125 10.77734375 C9.61514924 12.9651541 9.13588896 15.10103789 8.5625 17.25 C-10.39988245 19.26880878 -10.39988245 19.26880878 -14.4375 17.25 C-14.92192907 10.83131488 -14.92192907 10.83131488 -12.875 8.375 C-9.75761808 6.93620834 -6.8386537 6.57703401 -3.4375 6.25 C-6.4075 6.25 -9.3775 6.25 -12.4375 6.25 C-9.21621053 0.26760527 -6.58120686 0.08964186 0 0 Z M-5.4375 11.25 C-5.4375 11.91 -5.4375 12.57 -5.4375 13.25 C-3.7875 13.25 -2.1375 13.25 -0.4375 13.25 C-0.1075 12.59 0.2225 11.93 0.5625 11.25 C-1.4175 11.25 -3.3975 11.25 -5.4375 11.25 Z " fill="#000000" transform="translate(91.4375,190.75)"/>
<path d="M0 0 C1.56041016 -0.03867188 1.56041016 -0.03867188 3.15234375 -0.078125 C6.41462617 0.28970282 7.78948353 0.9057806 10.0625 3.25 C10.0625 4.24 10.0625 5.23 10.0625 6.25 C9.0725 6.745 9.0725 6.745 8.0625 7.25 C8.3925 7.58 8.7225 7.91 9.0625 8.25 C9.10342937 10.58297433 9.10491723 12.91705225 9.0625 15.25 C3.33902863 19.17466608 -3.18954604 19.13926525 -9.9375 18.25 C-12.3359375 16.9140625 -12.3359375 16.9140625 -13.9375 15.25 C-13.9375 14.26 -13.9375 13.27 -13.9375 12.25 C-12.6175 11.92 -11.2975 11.59 -9.9375 11.25 C-10.5975 10.92 -11.2575 10.59 -11.9375 10.25 C-12.30377907 4.75581395 -12.30377907 4.75581395 -10.625 2.4375 C-7.24012093 0.05554806 -4.00932599 0.05947084 0 0 Z M-2.9375 5.25 C1.0625 6.25 1.0625 6.25 1.0625 6.25 Z M-3.9375 12.25 C0.0625 13.25 0.0625 13.25 0.0625 13.25 Z " fill="#000000" transform="translate(173.9375,190.75)"/>
<path d="M0 0 C2.97 0 5.94 0 9 0 C8.67 3.3 8.34 6.6 8 10 C8.99 9.67 9.98 9.34 11 9 C12.02281518 6.90280128 12.02281518 6.90280128 12.6875 4.4375 C12.93886719 3.61121094 13.19023437 2.78492188 13.44921875 1.93359375 C13.63097656 1.29550781 13.81273437 0.65742188 14 0 C16.64 0 19.28 0 22 0 C21.69075786 2.10464793 21.3774944 4.2087053 21.0625 6.3125 C20.80146484 8.07013672 20.80146484 8.07013672 20.53515625 9.86328125 C20 13 20 13 19 16 C16.06296475 16.24849534 13.12713668 16.47448285 10.1875 16.6875 C9.35412109 16.76033203 8.52074219 16.83316406 7.66210938 16.90820312 C6.85966797 16.96298828 6.05722656 17.01777344 5.23046875 17.07421875 C4.12288208 17.16062622 4.12288208 17.16062622 2.99291992 17.2487793 C1 17 1 17 -0.75756836 15.64160156 C-2.51830394 13.31517475 -2.14342114 11.90625065 -1.75 9.0625 C-1.64171875 8.20785156 -1.5334375 7.35320312 -1.421875 6.47265625 C-1.05035321 4.29512576 -0.53576045 2.14304182 0 0 Z " fill="#000000" transform="translate(139,192)"/>
<path d="M0 0 C2.64 0 5.28 0 8 0 C7.67 3.63 7.34 7.26 7 11 C7.99 10.67 8.98 10.34 10 10 C11.02700444 7.67108904 11.02700444 7.67108904 11.6875 4.9375 C11.93886719 4.01839844 12.19023438 3.09929687 12.44921875 2.15234375 C12.63097656 1.44207031 12.81273438 0.73179687 13 0 C15.97 0 18.94 0 22 0 C21.01 5.28 20.02 10.56 19 16 C15.87541815 16.22105072 12.75107416 16.42737462 9.625 16.625 C8.73554687 16.68945312 7.84609375 16.75390625 6.9296875 16.8203125 C6.07890625 16.871875 5.228125 16.9234375 4.3515625 16.9765625 C3.17327881 17.05511475 3.17327881 17.05511475 1.97119141 17.13525391 C0 17 0 17 -2 15 C-2.37440428 9.47753685 -1.74301123 5.2290337 0 0 Z " fill="#000000" transform="translate(56,192)"/>
<path d="M0 0 C1.62490954 -0.02698189 3.24994633 -0.04638757 4.875 -0.0625 C5.77992188 -0.07410156 6.68484375 -0.08570313 7.6171875 -0.09765625 C10 0 10 0 12 1 C13.155 0.814375 14.31 0.62875 15.5 0.4375 C16.655 0.293125 17.81 0.14875 19 0 C21 2 21 2 21.01171875 4.2421875 C20.90472656 5.11101562 20.79773438 5.97984375 20.6875 6.875 C20.58824219 7.73867187 20.48898438 8.60234375 20.38671875 9.4921875 C20.04428665 11.71280777 19.5894344 13.83370263 19 16 C17.68 16 16.36 16 15 16 C15.33 12.04 15.66 8.08 16 4 C15.01 4.33 14.02 4.66 13 5 C11.96961044 7.56042066 11.96961044 7.56042066 11.3125 10.5625 C11.06113281 11.57441406 10.80976563 12.58632812 10.55078125 13.62890625 C10.36902344 14.41136719 10.18726563 15.19382813 10 16 C8.68 16 7.36 16 6 16 C6.33 12.04 6.66 8.08 7 4 C2.92097496 5.47657938 2.92097496 5.47657938 2.171875 8.1640625 C1.96304688 9.38222656 1.96304688 9.38222656 1.75 10.625 C1.60046875 11.44226563 1.4509375 12.25953125 1.296875 13.1015625 C1.19890625 13.72804687 1.1009375 14.35453125 1 15 C-0.32 15.33 -1.64 15.66 -3 16 C-2.52013969 10.43109483 -1.70084819 5.32932432 0 0 Z " fill="#000000" transform="translate(145,222)"/>
<path d="M0 0 C1.60488281 -0.03867188 1.60488281 -0.03867188 3.2421875 -0.078125 C6.125 0.25 6.125 0.25 7.9765625 1.58203125 C9.8182752 4.25689969 9.63924742 6.10023452 9.125 9.25 C6.90957303 11.96568468 5.31238889 13.12689279 1.7890625 13.4921875 C-0.44739282 13.49924256 -2.64592068 13.42482975 -4.875 13.25 C-5.205 15.56 -5.535 17.87 -5.875 20.25 C-7.525 20.58 -9.175 20.91 -10.875 21.25 C-10.23536805 17.9362709 -9.58726081 14.62425665 -8.9375 11.3125 C-8.66389648 9.89420898 -8.66389648 9.89420898 -8.38476562 8.44726562 C-8.20751953 7.54814453 -8.03027344 6.64902344 -7.84765625 5.72265625 C-7.60414429 4.47367554 -7.60414429 4.47367554 -7.35571289 3.19946289 C-6.35762483 -0.84814157 -3.74775266 0.0539245 0 0 Z M-2.875 3.25 C-3.205 5.56 -3.535 7.87 -3.875 10.25 C0.9147321 10.48428313 0.9147321 10.48428313 5.125 8.25 C4.795 6.6 4.465 4.95 4.125 3.25 C1.815 3.25 -0.495 3.25 -2.875 3.25 Z " fill="#000000" transform="translate(117.875,216.75)"/>
<path d="M0 0 C2.375 1.625 2.375 1.625 4 4 C4.25 7.25 4.25 7.25 4 10 C0.37 10.33 -3.26 10.66 -7 11 C-7 11.66 -7 12.32 -7 13 C-6.278125 12.855625 -5.55625 12.71125 -4.8125 12.5625 C-2.9375 12.1875 -1.0625 11.8125 0.8125 11.4375 C1.534375 11.293125 2.25625 11.14875 3 11 C1.63016497 14.16115776 1.0109362 14.9927092 -2 17 C-8.45283019 16.54716981 -8.45283019 16.54716981 -11 14 C-11.57081986 10.94160729 -11.51250351 8.06445395 -11 5 C-7.90494929 0.53948574 -5.42331926 -1.03850794 0 0 Z M-6 4 C-6 4.66 -6 5.32 -6 6 C-4.02 6 -2.04 6 0 6 C0 5.34 0 4.68 0 4 C-3.04913228 2.98888907 -3.04913228 2.98888907 -6 4 Z " fill="#000000" transform="translate(178,222)"/>
<path d="M0 0 C0 0.99 0 1.98 0 3 C-0.57105469 2.95359375 -1.14210937 2.9071875 -1.73046875 2.859375 C-10.96318761 2.44837957 -20.26067215 4.30791663 -27.5625 10.25 C-31.10157581 13.73703058 -33.20113777 17.40290764 -35 22 C-35.29777344 22.75410156 -35.59554687 23.50820313 -35.90234375 24.28515625 C-36.62765455 26.18032317 -37.31749949 28.08899857 -38 30 C-38.33 30 -38.66 30 -39 30 C-39.59167941 21.86440808 -37.33047675 16.4624226 -32.8125 9.75 C-25.67083921 2.76704279 -9.93422269 -4.96711135 0 0 Z " fill="#085791" transform="translate(66,24)"/>
<path d="M0 0 C4.29 0 8.58 0 13 0 C11.125 12.625 11.125 12.625 10 16 C8.68 15.67 7.36 15.34 6 15 C6.66 11.37 7.32 7.74 8 4 C6.35 4.33 4.7 4.66 3 5 C2.34 8.3 1.68 11.6 1 15 C-0.32 15.33 -1.64 15.66 -3 16 C-2.52013969 10.43109483 -1.70084819 5.32932432 0 0 Z " fill="#000000" transform="translate(129,222)"/>
<path d="M0 0 C1.60866022 3.18711085 3.1679823 6.39439217 4.6875 9.625 C5.14511719 10.58664063 5.60273437 11.54828125 6.07421875 12.5390625 C6.37972656 13.35117187 6.68523438 14.16328125 7 15 C6.67 15.66 6.34 16.32 6 17 C1.74096061 13.18155089 -0.81225078 9.48767715 -1.25 3.6875 C-1 1 -1 1 0 0 Z " fill="#86ABCB" transform="translate(42,42)"/>
<path d="M0 0 C0.33 0 0.66 0 1 0 C1.22114415 2.79119779 1.42743301 5.5821212 1.625 8.375 C1.68945312 9.1690625 1.75390625 9.963125 1.8203125 10.78125 C1.96058587 12.85028224 1.98758237 14.92625536 2 17 C1.34 17.66 0.68 18.32 0 19 C-2.04197653 14.0226822 -2.6580724 9.32264441 -2 4 C-0.984375 1.7265625 -0.984375 1.7265625 0 0 Z " fill="#6190B8" transform="translate(29,50)"/>
<path d="M0 0 C5.47368421 10.52631579 5.47368421 10.52631579 5 17 C1.4083185 12.55315623 -1.16099294 8.9963125 -0.6875 3.125 C-0.460625 2.09375 -0.23375 1.0625 0 0 Z " fill="#BACEE1" transform="translate(31,65)"/>
<path d="M0 0 C5.95522388 -0.52238806 5.95522388 -0.52238806 9 1 C9 1.99 9 2.98 9 4 C5.04 4 1.08 4 -3 4 C-2.01 2.68 -1.02 1.36 0 0 Z " fill="#2D71A3" transform="translate(57,23)"/>
<path d="M0 0 C5.29500913 1.36157378 7.23745533 4.60343955 10 9 C9.01 9.33 8.02 9.66 7 10 C5.83043409 8.52312468 4.66441854 7.04343707 3.5 5.5625 C2.8503125 4.73878906 2.200625 3.91507813 1.53125 3.06640625 C0 1 0 1 0 0 Z " fill="#BED0E2" transform="translate(46,58)"/>
<path d="M0 0 C2.72426311 2.35277269 3.8141763 4.62496331 5 8 C4.34 8.66 3.68 9.32 3 10 C0.59185923 6.48812804 -0.36629408 4.27343092 0 0 Z " fill="#DEE8F1" transform="translate(36,78)"/>
<path d="M0 0 C0.66 0.33 1.32 0.66 2 1 C0.515 4.96 0.515 4.96 -1 9 C-1.33 9 -1.66 9 -2 9 C-2.125 5.625 -2.125 5.625 -2 2 C-1.34 1.34 -0.68 0.68 0 0 Z " fill="#1E6A9F" transform="translate(29,45)"/>
<path d="M0 0 C2 3 2 3 1.625 6.1875 C1.41875 7.115625 1.2125 8.04375 1 9 C-0.41377341 6.36095629 -1.37240135 3.92879371 -2 1 C-1.34 0.67 -0.68 0.34 0 0 Z " fill="#7097BC" transform="translate(29,60)"/>
<path d="M0 0 C1 2 2 4 3 6 C2.67 6.66 2.34 7.32 2 8 C1.01 7.67 0.02 7.34 -1 7 C-1.04254356 5.00045254 -1.04080783 2.99958364 -1 1 C-0.67 0.67 -0.34 0.34 0 0 Z " fill="#5C8DB6" transform="translate(42,42)"/>
<path d="M0 0 C1.61949011 2.57213134 2.04408751 3.67669159 1.625 6.75 C1.41875 7.4925 1.2125 8.235 1 9 C0.34 8.34 -0.32 7.68 -1 7 C-0.625 3.375 -0.625 3.375 0 0 Z " fill="#9DB8D2" transform="translate(31,65)"/>
<path d="M0 0 C1.32 0 2.64 0 4 0 C4 1.32 4 2.64 4 4 C2.68 4 1.36 4 0 4 C0 2.68 0 1.36 0 0 Z " fill="#000000" transform="translate(139,217)"/>
</svg>
