<?xml version="1.0" encoding="UTF-8"?>
<svg version="1.1" xmlns="http://www.w3.org/2000/svg" width="192" height="192">
<path d="M0 0 C16.67977024 -0.53422752 32.695395 5.44418039 45.3828125 16.1796875 C57.2418732 27.39771789 64.85947006 42.7505805 65.9453125 59.1171875 C65.93710178 67.43464587 65.23776331 74.97069662 62.51953125 82.88671875 C61.20990357 87.97377592 62.58206499 92.82225173 63.96875 97.765625 C67.98044245 113.71242646 65.10116614 130.80756816 56.78149414 144.79882812 C47.46403492 159.54833636 34.0950878 169.2526685 17.19921875 173.8671875 C-0.17246096 177.49784335 -17.00528163 174.27511878 -32.203125 165.37060547 C-35.77197534 162.95466696 -38.62146212 159.79326772 -41.60229492 156.70654297 C-46.35881715 152.14371793 -50.71300862 152.23297475 -57.02734375 152.25390625 C-60.0546875 152.1171875 -60.0546875 152.1171875 -63.4296875 150.0546875 C-65.22006195 146.81824138 -65.83631286 144.72035499 -65.62109375 141.0546875 C-64.55863106 137.42033238 -62.17118653 136.11174688 -59.0546875 134.1171875 C-58.3946875 134.1171875 -57.7346875 134.1171875 -57.0546875 134.1171875 C-57.0546875 133.1271875 -57.0546875 132.1371875 -57.0546875 131.1171875 C-58.61364746 131.15646362 -58.61364746 131.15646362 -60.20410156 131.1965332 C-64.06537288 131.28713157 -67.92655059 131.34447054 -71.78857422 131.3918457 C-73.45898239 131.41696828 -75.12928087 131.45107302 -76.79931641 131.49438477 C-79.2024237 131.55514149 -81.60407654 131.58341771 -84.0078125 131.60546875 C-84.75274963 131.63127518 -85.49768677 131.6570816 -86.26519775 131.68367004 C-90.07031834 131.68572169 -91.70188375 131.44768797 -94.52246094 128.80541992 C-96.5557132 125.23815723 -96.70491521 123.16304878 -96.0546875 119.1171875 C-93.40502677 115.69404843 -91.96389577 114.26838622 -87.64135742 113.54956055 C-86.36881104 113.57574463 -85.09626465 113.60192871 -83.78515625 113.62890625 C-83.10415359 113.63598099 -82.42315094 113.64305573 -81.72151184 113.65034485 C-79.56058755 113.67818681 -77.40231928 113.74089223 -75.2421875 113.8046875 C-73.77152198 113.82978418 -72.30081557 113.85259497 -70.83007812 113.87304688 C-67.23742793 113.92797562 -63.64631722 114.01417103 -60.0546875 114.1171875 C-60.08006592 113.34592529 -60.10544434 112.57466309 -60.1315918 111.7800293 C-60.25326448 105.3701137 -59.82702684 100.01003435 -57.8671875 93.9296875 C-56.26061032 88.3629108 -55.6081669 84.34358757 -58.2578125 79.01171875 C-59.25909131 76.63122747 -59.17829043 74.67311956 -59.0546875 72.1171875 C-60.36824219 72.15199219 -61.68179688 72.18679687 -63.03515625 72.22265625 C-64.77082051 72.25080216 -66.50649865 72.27810146 -68.2421875 72.3046875 C-69.10650391 72.32982422 -69.97082031 72.35496094 -70.86132812 72.38085938 C-75.74523294 72.43699621 -79.13431954 72.38289207 -83.0546875 69.1171875 C-85.39637514 65.60465604 -85.55092427 64.25249394 -85.0546875 60.1171875 C-83.25474976 57.41728088 -81.9709145 55.575301 -79.0546875 54.1171875 C-77.53320424 54.03346091 -76.00812972 54.00988723 -74.484375 54.01953125 C-73.58847656 54.02275391 -72.69257812 54.02597656 -71.76953125 54.02929688 C-70.36380859 54.04186523 -70.36380859 54.04186523 -68.9296875 54.0546875 C-67.98480469 54.05919922 -67.03992188 54.06371094 -66.06640625 54.06835938 C-63.72910363 54.08016393 -61.39192689 54.09662991 -59.0546875 54.1171875 C-59.0546875 53.1271875 -59.0546875 52.1371875 -59.0546875 51.1171875 C-60.92386841 51.16431885 -60.92386841 51.16431885 -62.83081055 51.21240234 C-67.4617316 51.32114432 -72.09254027 51.38993584 -76.72436523 51.44677734 C-78.72748807 51.47691899 -80.73047925 51.51784065 -82.7331543 51.56982422 C-85.61540201 51.64275631 -88.49590305 51.67666924 -91.37890625 51.703125 C-92.27179855 51.73409271 -93.16469086 51.76506042 -94.0846405 51.79696655 C-100.16385922 51.80024441 -100.16385922 51.80024441 -102.74815369 49.81869507 C-104.61184935 47.65858613 -105.92100956 45.72797612 -106.53515625 42.921875 C-106.43847656 42.28507812 -106.34179688 41.64828125 -106.2421875 40.9921875 C-106.17386719 40.35023437 -106.10554688 39.70828125 -106.03515625 39.046875 C-104.47607492 35.97840417 -102.13612288 34.44405204 -99.0546875 33.1171875 C-95.42484488 32.5781571 -91.85027215 32.65072411 -88.1875 32.7265625 C-86.63541336 32.73505219 -86.63541336 32.73505219 -85.05197144 32.74371338 C-81.76073121 32.76602898 -78.47059636 32.81621784 -75.1796875 32.8671875 C-72.9427241 32.88725866 -70.70574357 32.90550835 -68.46875 32.921875 C-62.99702136 32.96587785 -57.52593342 33.03274199 -52.0546875 33.1171875 C-52.0546875 32.4571875 -52.0546875 31.7971875 -52.0546875 31.1171875 C-52.95960937 31.07851563 -52.95960937 31.07851563 -53.8828125 31.0390625 C-57.63508898 30.77277191 -60.36816791 30.53579701 -63.6171875 28.5546875 C-65.25746523 25.773347 -65.57502928 23.42707471 -65.68359375 20.21484375 C-64.59241627 16.57532631 -63.17397201 15.31503687 -60.0546875 13.1171875 C-54.92695665 12.33844446 -49.74682086 12.63618263 -44.57617188 12.75585938 C-37.4552402 12.7344752 -33.20604543 11.62005557 -27.30834961 7.61157227 C-19.49810152 2.43266114 -9.19098579 0.52420071 0 0 Z M-33.296875 36.64453125 C-41.04012717 47.53670597 -42.11857369 59.15342987 -41.0546875 72.1171875 C-38.64279235 83.80454227 -31.47834375 93.07652478 -22.0546875 100.1171875 C-20.44940697 101.04789517 -18.8246652 101.94608938 -17.1796875 102.8046875 C-13.57086518 104.69742648 -11.42844898 106.09402889 -10.0546875 110.1171875 C-10.12734771 113.6775379 -10.66962707 115.55440688 -12.6796875 118.4921875 C-16.17657732 120.88479633 -17.84738264 120.78501367 -22.0546875 120.1171875 C-29.01115761 117.08541247 -35.17136124 112.87104998 -41.0546875 108.1171875 C-43.66379292 119.85816187 -39.06933409 130.09375296 -32.90234375 139.9609375 C-26.67703477 148.29088831 -15.26267921 154.54444459 -5.0546875 156.1171875 C10.44760112 157.03846637 20.41095171 153.66037627 33.1328125 144.9296875 C42.09825538 135.96424462 46.33545267 124.96015508 47.1953125 112.4921875 C46.97758864 101.06168501 42.4827287 89.67983322 34.6953125 81.3046875 C31.23448532 78.08996358 27.33368969 75.80039766 23.25390625 73.453125 C16.49277609 69.54059282 16.49277609 69.54059282 15.0078125 65.6796875 C14.91038052 61.6849762 15.96813295 59.24470237 18.5703125 56.2421875 C22.26314284 54.49295208 25.18117572 54.91120193 28.9453125 56.1171875 C35.5168383 59.34258205 41.54798526 63.16963753 46.9453125 68.1171875 C47.73463837 54.90328777 44.35229084 43.96065107 35.9765625 33.70703125 C28.04780515 25.10318043 17.66225114 19.86302182 6.0234375 18.8671875 C-10.09966012 18.25003544 -22.94060682 24.42245767 -33.296875 36.64453125 Z " fill="#68D765" transform="translate(126.0546875,8.8828125)"/>
<path d="M0 0 C1.9375 1.0625 1.9375 1.0625 3 3 C3.72238405 5.98585409 4.20927223 8.0178707 4 11 C2.23535939 13.85993478 1.00434303 15.49782849 -2 17 C-5.87214182 17.43023798 -7.52496371 17.31669086 -10.8125 15.125 C-13.39266816 12.61855093 -13.91717964 11.74538327 -14.3125 8.1875 C-13.92835642 4.2692355 -12.70743683 2.78706733 -10 0 C-6.74113759 -1.62943121 -3.43230961 -0.76664293 0 0 Z " fill="#68D765" transform="translate(54,144)"/>
<path d="M0 0 C3.08329483 2.75873748 3.90431316 4.40461521 4.5625 8.5 C4 12 4 12 1.9375 14.9375 C-1.7595073 17.53327109 -3.56644342 17.71253588 -8 17 C-10.9375 15.5625 -10.9375 15.5625 -13 13 C-13.65269998 9.87963604 -13.63146359 7.12287449 -13 4 C-9.44153401 -0.90822895 -5.70711401 -1.630604 0 0 Z " fill="#68D765" transform="translate(13,43)"/>
</svg>
