<?xml version="1.0" encoding="UTF-8"?>
<svg version="1.1" xmlns="http://www.w3.org/2000/svg" width="85" height="82">
<path d="M0 0 C0.495 1.485 0.495 1.485 1 3 C2.66562068 4.57307672 2.66562068 4.57307672 4.6875 6.125 C11.66971508 12.05424189 16.45108887 19.25558119 17.3359375 28.515625 C17.46003657 40.37949631 15.18151364 49.19205956 7 58 C0.04217161 64.60611398 -8.41442376 68.12750351 -18 68.5 C-28.20186758 68.09086948 -36.7607714 64.16867081 -44 57 C-46.33933223 54.15389777 -48.23726094 51.23168827 -50 48 C-50.3403125 47.38640625 -50.680625 46.7728125 -51.03125 46.140625 C-54.67211933 38.25207479 -54.07762024 28.3837604 -51.5625 20.25 C-47.66115484 10.90331441 -40.5378887 4.96749888 -32 0 C-32 -0.66 -32 -1.32 -32 -2 C-22.05250061 -6.38860267 -9.22161611 -6.35218212 0 0 Z M-26 -3 C-26 -2.67 -26 -2.34 -26 -2 C-20.72 -2 -15.44 -2 -10 -2 C-10 -2.33 -10 -2.66 -10 -3 C-15.52967941 -3.71033431 -20.49983036 -4.30267176 -26 -3 Z " fill="#2BE4E4" transform="translate(61,8)"/>
<path d="M0 0 C1.53333984 0.00676758 1.53333984 0.00676758 3.09765625 0.01367188 C5.60683194 0.025397 8.1158849 0.04180824 10.625 0.0625 C10.955 1.3825 11.285 2.7025 11.625 4.0625 C7.995 4.3925 4.365 4.7225 0.625 5.0625 C4.255 6.0525 7.885 7.0425 11.625 8.0625 C11.625 9.3825 11.625 10.7025 11.625 12.0625 C4.2 13.5475 4.2 13.5475 -3.375 15.0625 C1.245 16.3825 5.865 17.7025 10.625 19.0625 C10.955 20.3825 11.285 21.7025 11.625 23.0625 C5.61639451 24.12088127 -0.22127561 24.17912571 -6.3125 24.125 C-7.28251953 24.12048828 -8.25253906 24.11597656 -9.25195312 24.11132812 C-11.6263676 24.0996315 -14.00065021 24.08324086 -16.375 24.0625 C-16.705 22.4125 -17.035 20.7625 -17.375 19.0625 C-15.395 18.7325 -13.415 18.4025 -11.375 18.0625 C-13.355 17.4025 -15.335 16.7425 -17.375 16.0625 C-17.375 14.7425 -17.375 13.4225 -17.375 12.0625 C-16.52035156 11.92972656 -15.66570313 11.79695313 -14.78515625 11.66015625 C-13.68042969 11.48355469 -12.57570313 11.30695312 -11.4375 11.125 C-10.33535156 10.95097656 -9.23320313 10.77695312 -8.09765625 10.59765625 C-5.47073071 10.34404864 -5.47073071 10.34404864 -4.375 9.0625 C-8.665 7.7425 -12.955 6.4225 -17.375 5.0625 C-17.375 3.7425 -17.375 2.4225 -17.375 1.0625 C-11.58854356 -0.19156138 -5.88631884 -0.04936913 0 0 Z " fill="#EBFBFB" transform="translate(46.375,28.9375)"/>
<path d="M0 0 C-3.25389988 2.16926659 -4.13395957 2.24080049 -7.88671875 2.1953125 C-8.82451172 2.18886719 -9.76230469 2.18242188 -10.72851562 2.17578125 C-12.19321289 2.15064453 -12.19321289 2.15064453 -13.6875 2.125 C-14.67556641 2.11597656 -15.66363281 2.10695313 -16.68164062 2.09765625 C-19.12133765 2.0740843 -21.56054697 2.04118022 -24 2 C-24.33 0.35 -24.66 -1.3 -25 -3 C-16.08623551 -4.91009239 -8.56124927 -2.44757188 0 0 Z " fill="#66E8E8" transform="translate(54,51)"/>
<path d="M0 0 C0.91120605 0.01047363 1.82241211 0.02094727 2.76123047 0.03173828 C3.74736328 0.03818359 4.73349609 0.04462891 5.74951172 0.05126953 C7.29832031 0.07640625 7.29832031 0.07640625 8.87841797 0.10205078 C9.91869141 0.11107422 10.95896484 0.12009766 12.03076172 0.12939453 C14.60520889 0.15301331 17.17920009 0.18594929 19.75341797 0.22705078 C20.08341797 1.54705078 20.41341797 2.86705078 20.75341797 4.22705078 C4.04498972 5.92864531 4.04498972 5.92864531 -4.24658203 2.22705078 C-2.24658203 0.22705078 -2.24658203 0.22705078 0 0 Z " fill="#AFF4F4" transform="translate(37.24658203125,28.77294921875)"/>
<path d="M0 0 C6.19240462 0.68804496 12.01955594 2.28048715 18 4 C18.33 3.01 18.66 2.02 19 1 C19 2.32 19 3.64 19 5 C14.37540756 6.17700048 9.92133538 6.11408412 5.1875 6.0625 C4.00510742 6.05573242 4.00510742 6.05573242 2.79882812 6.04882812 C0.86585239 6.03711312 -1.06708393 6.01917998 -3 6 C-3.33 5.34 -3.66 4.68 -4 4 C-1.69 3.34 0.62 2.68 3 2 C2.01 1.34 1.02 0.68 0 0 Z " fill="#C8F5F5" transform="translate(39,36)"/>
<path d="M0 0 C6.70518586 -0.19818283 12.65176798 -0.30844801 19 2 C19 2.33 19 2.66 19 3 C12.73 3 6.46 3 0 3 C0 2.01 0 1.02 0 0 Z " fill="#B0F4F4" transform="translate(29,49)"/>
<path d="M0 0 C0.33 0.66 0.66 1.32 1 2 C0.44140625 3.671875 0.44140625 3.671875 -0.4375 5.75 C-3.65246136 14.89346809 -2.53240392 24.82003579 0 34 C-5.56285357 26.98596724 -4.82519463 17.6086813 -4 9 C-3.02226906 5.51603297 -1.85487512 3.13010176 0 0 Z " fill="#25F2F2" transform="translate(10,23)"/>
<path d="M0 0 C0.98613281 0.00322266 1.97226562 0.00644531 2.98828125 0.00976562 C4.02082031 0.01814453 5.05335937 0.02652344 6.1171875 0.03515625 C7.67759766 0.04192383 7.67759766 0.04192383 9.26953125 0.04882812 C11.84380712 0.06063673 14.41796896 0.0771055 16.9921875 0.09765625 C16.9921875 0.42765625 16.9921875 0.75765625 16.9921875 1.09765625 C12.3721875 1.09765625 7.7521875 1.09765625 2.9921875 1.09765625 C3.3221875 2.08765625 3.6521875 3.07765625 3.9921875 4.09765625 C2.53296057 3.98356032 1.07478152 3.85600081 -0.3828125 3.72265625 C-1.60097656 3.61824219 -1.60097656 3.61824219 -2.84375 3.51171875 C-5.0078125 3.09765625 -5.0078125 3.09765625 -7.0078125 1.09765625 C-4.50284246 -0.15482877 -2.79927976 -0.01608781 0 0 Z " fill="#6DE8E8" transform="translate(40.0078125,28.90234375)"/>
<path d="M0 0 C5.62275316 4.65331296 7.00305047 10.67553283 7.75 17.625 C8.03049242 21.57939313 7.94417742 25.11838174 7 29 C6.67 29 6.34 29 6 29 C5.97421875 27.96101563 5.9484375 26.92203125 5.921875 25.8515625 C5.61520027 17.44524512 4.74596519 10.66362046 1 3 C0.67 2.01 0.34 1.02 0 0 Z " fill="#13FAFA" transform="translate(73,20)"/>
<path d="M0 0 C0.66 0.33 1.32 0.66 2 1 C0.79709989 1.79989804 -0.41266295 2.58947824 -1.625 3.375 C-2.63433594 4.03628906 -2.63433594 4.03628906 -3.6640625 4.7109375 C-9.01936472 7.66620461 -13.83930677 8.27706204 -19.875 8.125 C-20.56335937 8.11597656 -21.25171875 8.10695313 -21.9609375 8.09765625 C-23.64077838 8.07432513 -25.32043746 8.03846326 -27 8 C-27 7.67 -27 7.34 -27 7 C-25.69289062 6.97873047 -25.69289062 6.97873047 -24.359375 6.95703125 C-16.48935352 6.6418897 -5.97662976 5.97662976 0 0 Z " fill="#01E7E7" transform="translate(63,70)"/>
<path d="M0 0 C4.71403788 0.47939368 8.66579301 0.96834048 13 3 C13 3.33 13 3.66 13 4 C9.7 4 6.4 4 3 4 C2.67 3.01 2.34 2.02 2 1 C1.34 0.67 0.68 0.34 0 0 Z " fill="#18E2E2" transform="translate(31,35)"/>
<path d="M0 0 C1 3 1 3 0 6 C-0.99 5.67 -1.98 5.34 -3 5 C-3.33 4.34 -3.66 3.68 -4 3 C-4.99 2.34 -5.98 1.68 -7 1 C-3.535 0.505 -3.535 0.505 0 0 Z " fill="#41E5E5" transform="translate(53,41)"/>
<path d="M0 0 C0.66 0.33 1.32 0.66 2 1 C3.70363822 1.22622081 5.41328701 1.40888473 7.125 1.5625 C8.03507812 1.64628906 8.94515625 1.73007812 9.8828125 1.81640625 C10.58148438 1.87699219 11.28015625 1.93757813 12 2 C12 2.33 12 2.66 12 3 C2.58997722 4.51708428 2.58997722 4.51708428 -2 2 C-1.34 1.34 -0.68 0.68 0 0 Z " fill="#AAF0F0" transform="translate(34,40)"/>
<path d="M0 0 C0.33 0.99 0.66 1.98 1 3 C-0.9375 6.1875 -0.9375 6.1875 -3 9 C-3.66 8.01 -4.32 7.02 -5 6 C-4.34 5.01 -3.68 4.02 -3 3 C-2.34 3 -1.68 3 -1 3 C-0.67 2.01 -0.34 1.02 0 0 Z " fill="#29DCDC" transform="translate(74,54)"/>
<path d="M0 0 C0.94875 0.04125 1.8975 0.0825 2.875 0.125 C3.205 1.115 3.535 2.105 3.875 3.125 C0.905 2.795 -2.065 2.465 -5.125 2.125 C-3.125 0.125 -3.125 0.125 0 0 Z " fill="#8EEEEE" transform="translate(40.125,29.875)"/>
<path d="M0 0 C3.81684226 1.55500981 6.19195732 4.03595495 9 7 C8.67 7.66 8.34 8.32 8 9 C6.66368764 7.6905332 5.33102075 6.37734515 4 5.0625 C3.2575 4.33160156 2.515 3.60070312 1.75 2.84765625 C0 1 0 1 0 0 Z " fill="#3ACECE" transform="translate(64,11)"/>
<path d="M0 0 C1.43931117 0.45261358 2.87638999 0.91232979 4.3125 1.375 C5.11300781 1.63023438 5.91351563 1.88546875 6.73828125 2.1484375 C9 3 9 3 12 5 C7.25081338 4.53439347 3.89217595 3.83067342 0 1 C0 0.67 0 0.34 0 0 Z " fill="#04EFEF" transform="translate(24,72)"/>
<path d="M0 0 C0.66 0.33 1.32 0.66 2 1 C-1.465 3.97 -1.465 3.97 -5 7 C-3.38262276 3.76524552 -2.52370777 2.29427979 0 0 Z " fill="#1FFAFA" transform="translate(19,12)"/>
<path d="M0 0 C0.93065133 2.60582371 1.14917407 3.64198224 0.0625 6.25 C-0.4634375 7.11625 -0.4634375 7.11625 -1 8 C-2.2077558 4.37673261 -1.54311128 3.35853631 0 0 Z " fill="#24D4D4" transform="translate(78,49)"/>
<path d="M0 0 C0 0.99 0 1.98 0 3 C-1.98 3.99 -1.98 3.99 -4 5 C-2.68 3.35 -1.36 1.7 0 0 Z " fill="#00F5F5" transform="translate(70,64)"/>
<path d="M0 0 C0.99 0.33 1.98 0.66 3 1 C2.01 1 1.02 1 0 1 C0 0.67 0 0.34 0 0 Z " fill="#00FFFF" transform="translate(21,70)"/>
<path d="M0 0 C0 3 0 3 0 3 Z " fill="#15FFFF" transform="translate(74,59)"/>
<path d="M0 0 C0.99 0.495 0.99 0.495 2 1 C1.67 1.66 1.34 2.32 1 3 C0.67 2.01 0.34 1.02 0 0 Z " fill="#30FFFF" transform="translate(12,60)"/>
<path d="M0 0 C0.99 0.495 0.99 0.495 2 1 C1.67 1.66 1.34 2.32 1 3 C0.67 2.01 0.34 1.02 0 0 Z " fill="#15EFEF" transform="translate(10,57)"/>
<path d="M0 0 C0 3 0 3 0 3 Z " fill="#10D9D9" transform="translate(12,20)"/>
<path d="M0 0 C0.66 0.33 1.32 0.66 2 1 C1.01 1 0.02 1 -1 1 C-0.67 0.67 -0.34 0.34 0 0 Z " fill="#2AFFFF" transform="translate(23,9)"/>
<path d="M0 0 C0.99 0.33 1.98 0.66 3 1 C2.01 1 1.02 1 0 1 C0 0.67 0 0.34 0 0 Z " fill="#2AFFFF" transform="translate(61,9)"/>
<path d="" fill="#00D4D4" transform="translate(0,0)"/>
<path d="M0 0 C2 1 2 1 2 1 Z " fill="#2AFFFF" transform="translate(25,8)"/>
<path d="M0 0 C2 1 2 1 2 1 Z " fill="#60FFFF" transform="translate(27,7)"/>
<path d="" fill="#40FFFF" transform="translate(0,0)"/>
<path d="" fill="#40BFBF" transform="translate(0,0)"/>
<path d="" fill="#40FFFF" transform="translate(0,0)"/>
<path d="" fill="#40FFFF" transform="translate(0,0)"/>
<path d="" fill="#40FFFF" transform="translate(0,0)"/>
<path d="" fill="#40FFFF" transform="translate(0,0)"/>
<path d="" fill="#40FFFF" transform="translate(0,0)"/>
<path d="" fill="#40FFFF" transform="translate(0,0)"/>
<path d="" fill="#40BFBF" transform="translate(0,0)"/>
<path d="" fill="#55FFFF" transform="translate(0,0)"/>
<path d="" fill="#40FFFF" transform="translate(0,0)"/>
<path d="" fill="#40FFFF" transform="translate(0,0)"/>
</svg>
